<?xml version="1.0" standalone="no"?>
<!DOCTYPE svg PUBLIC "-//W3C//DTD SVG 1.1//EN" "http://www.w3.org/Graphics/SVG/1.1/DTD/svg11.dtd" >
<svg xmlns="http://www.w3.org/2000/svg" xmlns:xlink="http://www.w3.org/1999/xlink" version="1.1">
<metadata>
Created by FontForge 20200314 at Fri Apr 12 00:26:43 2013
 By Unknown
Copyright (c) Active Images, 1999. All rights reserved.
</metadata>
<defs>
<font id="CCJoeMad-Italic" horiz-adv-x="644" >
  <font-face 
    font-family="CCJoeMad-Italic"
    font-weight="400"
    font-style="italic"
    font-stretch="normal"
    units-per-em="1000"
    panose-1="3 0 6 6 3 0 0 9 0 4"
    ascent="874"
    descent="-126"
    x-height="791.5"
    cap-height="790"
    bbox="-195 -187 2019.38 978.25"
    underline-thickness="20"
    underline-position="-133"
    slope="-11"
    unicode-range="U+0020-FB02"
  />
<missing-glyph horiz-adv-x="359" 
 />
    <glyph glyph-name="a_A" unicode="AA" horiz-adv-x="1405" 
d="M751 661q-6 -6 -13.5 -24t-15 -42t-15 -52t-13.5 -54t-9.5 -46t-4.5 -30q20 -8 27.5 -19t-3.5 -41q-10 -27 -30 -48t-38 -26q-19 -58 -29.5 -115t-30.5 -108q-6 -15 -12 -28t-15 -21.5t-21.5 -10.5t-29.5 5q-16 6 -29 16.5t-20.5 23.5t-8 28.5t8.5 30.5q20 31 30.5 46
t16.5 29t9.5 34t8.5 61q-34 -8 -81 -18t-94.5 -19t-90 -15.5t-67.5 -6.5q-21 -29 -34 -49.5t-21 -36t-11 -28.5t-3 -28t-8.5 -33t-24 -28.5t-37 -9t-47.5 25.5q-17 16 -14.5 46.5t16.5 68t36.5 77.5t45 76t41.5 63t27 38q31 43 72 92.5t86.5 98.5t94.5 93t96.5 75.5t92 46.5
t80.5 6q50 -20 72 -56t10 -88zM609 664q-36 -21 -84 -54.5t-97.5 -75.5t-95 -89.5t-76.5 -95.5l289 50q11 25 21.5 63.5t19.5 78t15 73.5t8 50zM1482 748q2 -22 -2.5 -48.5t-13 -54.5t-18 -55.5t-17.5 -50.5q-13 -40 -29 -90t-32.5 -102.5t-33.5 -103.5t-32 -94t-27 -74.5
t-19 -44.5q-12 -13 -28 -19.5t-31.5 -8.5t-28 1t-16.5 10q-11 25 -11.5 43.5t4.5 35.5q5 18 15.5 33.5t20.5 32.5t17 37t5 47q-37 -5 -81 -15t-89 -20.5t-87.5 -17.5t-76.5 -6q-26 -17 -42.5 -47t-30.5 -60t-29 -53.5t-39 -26.5q-22 2 -39 13q-14 9 -23.5 27t-2.5 50
q2 9 10 22.5t19 30t24.5 34t25.5 33.5l11 56q16 32 36 43.5t43 16.5q36 28 76.5 70t83 89.5t87.5 97t91 93.5t93 79.5t93 54.5q21 9 42.5 5.5t39 -13.5t29.5 -24t13 -26zM1328 630q-30 -15 -62.5 -41t-64 -56.5t-61.5 -63t-55.5 -62t-45 -52.5t-30.5 -34l230 59q14 26 28 63
t25.5 74t21 68t14.5 45z" />
    <glyph glyph-name="b_B" unicode="BB" horiz-adv-x="1368" 
d="M716 765q28 -20 41 -45t12 -51t-15 -51.5t-41 -46.5q-15 -12 -36 -28t-43 -32t-43.5 -31t-38.5 -24q36 -13 57.5 -33.5t38.5 -59.5q13 -31 10.5 -61t-15.5 -57.5t-33.5 -51.5t-44 -44t-46.5 -35t-42 -24q-57 -28 -115 -52t-114.5 -37t-109.5 -12t-98 23l-12 6t-21.5 14.5
t-20 23.5t-8.5 33.5t12.5 44t44.5 55.5l58 140q-4 1 1 21t15.5 44t26 43.5t32.5 18.5q9 8 22 34t26.5 56t25.5 57.5t19 38.5q-13 4 -14.5 6.5t-6.5 7.5q-11 12 -17 30t-4.5 34.5t13 29t35.5 15.5q58 7 121.5 18t124 16.5t113.5 -1t90 -33.5zM638 648q-1 21 -27 28t-64.5 4.5
t-82.5 -13.5t-80 -26q-4 -7 -19 -30t-30 -50.5t-26.5 -52t-10.5 -34.5q45 7 91.5 24.5t90.5 41t84.5 52t73.5 56.5zM450 214l17.5 14t25 24.5t20.5 32t5 35.5t-21.5 35t-59.5 30q-30 -8 -49.5 -16.5t-40.5 -17t-48 -17.5t-72 -18q-24 -30 -36 -52.5t-21 -43.5t-18.5 -44
t-27.5 -55q27 -7 71 0t92 22t92 34.5t71 36.5zM1407 670q-8 -47 -19 -78t-33 -58t-59.5 -56.5t-99.5 -74.5q21 -29 42.5 -57.5t32.5 -58t8 -61t-32 -67.5q-32 -40 -86.5 -70t-118.5 -52.5t-131 -39t-126 -29.5q-18 -4 -37.5 0t-37 14t-30.5 26.5t-18 38.5q-8 33 1.5 63.5
t35.5 67.5q45 65 77 126.5t60 122.5t56.5 122.5t65.5 127.5q-16 32 -6.5 53t34.5 35t60.5 21t71.5 10t68.5 4t51.5 2q50 2 84 -8.5t54 -29.5t27.5 -43.5t3.5 -50.5zM1269 627q8 26 -7.5 38.5t-44.5 14t-65.5 -6.5t-69.5 -24q-27 -38 -55.5 -87t-51.5 -106q42 8 91 27.5
t91.5 44t73.5 51t38 48.5zM1134 241q8 20 3.5 35.5t-15.5 28.5t-25.5 23.5t-26.5 19.5q-17 -4 -39.5 -11t-46 -13.5t-46.5 -12t-43 -6.5l-104 -208q48 5 96 21t94 31q65 21 104.5 45t48.5 47z" />
    <glyph glyph-name="c_C" unicode="CC" horiz-adv-x="1371" 
d="M774 669q-11 -26 -18.5 -56.5t-19 -58.5t-29.5 -50t-50 -31q-24 -7 -35.5 -1t-14.5 19t0 30t9 31q3 7 13 25t18 36.5t8.5 32.5t-16.5 13q-46 -1 -94 -19t-93.5 -45.5t-88 -62.5t-77 -71t-60.5 -70.5t-39 -60.5q-12 -22 -14.5 -43.5t0.5 -40t10 -35t15 -28.5
q18 -27 56 -41.5t83 -18t89 4t72 23.5q16 9 31.5 20.5t31 22t31.5 18.5t34 11q25 4 32.5 -12t4.5 -38.5t-13 -44t-20 -28.5q-68 -50 -137 -75t-133 -29.5t-119 9t-95 39.5q-39 26 -66 61t-39.5 75.5t-10 83.5t23.5 84q38 74 102 148t143 136t165.5 108t168.5 65
q38 9 68.5 -1.5t50.5 -31.5t26.5 -49t-4.5 -54zM1483 656q-11 -31 -26 -57t-32.5 -42t-36.5 -18t-37 14q-14 13 -13 30t6 34t10 31.5t-1 21.5q-16 19 -48 12t-73 -30.5t-86.5 -59t-88.5 -75.5t-79.5 -79t-58.5 -70q-25 -34 -33.5 -77t-0.5 -76q13 -50 43 -73.5t69.5 -28
t84 5t85.5 25.5q19 7 36 15.5t32.5 13t29.5 3.5t26 -13q7 -6 4 -21t-11.5 -31t-20 -30t-21.5 -20q-67 -41 -137.5 -57.5t-134 -10.5t-114.5 35t-78 79q-41 77 -30 167.5t80 174.5q29 35 66.5 73.5t80 77t89 74t92 64t89.5 48t82 25.5q47 7 82 -2t56 -30.5t26 -53t-8 -69.5z
" />
    <glyph glyph-name="d_D" unicode="DD" horiz-adv-x="1395" 
d="M822 625q5 -51 -9 -106.5t-45.5 -111t-81 -109t-117.5 -99.5q-75 -51 -135.5 -93t-120 -71.5t-122.5 -44t-142 -11.5q-23 1 -33.5 26.5t-19.5 63.5q-5 22 10 60.5t39 81.5t50 85.5t44 72.5q27 45 48.5 79t40 63t35 56.5t32.5 60.5q-20 0 -30 4.5t-15 12t-7.5 17
t-8.5 19.5q-23 42 -3.5 65t64.5 33q58 14 118.5 19.5t118 3t108.5 -14.5t90 -33.5t63.5 -53.5t28.5 -75zM679 600q-17 30 -39.5 44.5t-51.5 18.5t-65.5 0t-81.5 -11q-34 -56 -76 -128.5t-83 -146t-78.5 -141t-64.5 -115.5q15 1 49 13.5t77 33t92 48t95 58t85 62t63 61.5
q11 14 29 39.5t33 54.5t22 58.5t-5 50.5zM1417 639q11 -38 12.5 -87t-6.5 -101.5t-24.5 -106t-42 -101.5t-59.5 -87.5t-77 -64.5q-55 -33 -109.5 -58.5t-105 -39.5t-97 -15.5t-86.5 13.5q-41 15 -57.5 34t-15 45t16 60t35.5 80q26 58 60.5 122.5t70.5 129t69 126.5t56 115
q-15 19 -11 39.5t20.5 36.5t43 25t58.5 4q59 -9 100.5 -21t70.5 -31t47.5 -47.5t30.5 -69.5zM1269 333q20 43 31 94t5.5 97.5t-32.5 82t-83 48.5q-34 -40 -59 -78t-47 -78t-45.5 -84.5t-54.5 -97.5q-8 -13 -19 -39t-23 -55t-23.5 -57t-19.5 -45q62 4 120 20.5t106.5 44.5
t86 65t57.5 82z" />
    <glyph glyph-name="e_E" unicode="EE" horiz-adv-x="1362" 
d="M788 733q-2 -22 -18.5 -41t-39.5 -23q-51 -7 -88.5 -9.5t-72.5 -5.5t-72.5 -10t-88.5 -24q-13 -12 -24.5 -31t-22.5 -40t-21.5 -42t-21.5 -37q53 4 84.5 6t53 3.5t39 3.5t41.5 6t61 9.5t97 14.5q30 5 51 -11t28 -37t-3.5 -40.5t-45.5 -22.5q-55 -5 -95.5 -10t-74 -10.5
t-64 -11t-65.5 -10.5t-78 -9t-102 -6q-23 -38 -40 -72t-23 -61.5t1 -47.5t32 -31q29 -12 70 -10t86.5 13.5t90.5 31t80 43.5q19 13 32.5 20.5t23.5 9.5t18.5 -2.5t17.5 -16.5q12 -16 0.5 -40t-36.5 -49.5t-58.5 -50t-65.5 -42.5q-36 -21 -79.5 -34.5t-88 -18.5t-88.5 -1
t-81 17t-64.5 35.5t-41.5 55.5q-9 21 -5.5 52.5t14 67t26.5 71.5t32 67q29 56 71.5 127.5t90.5 152.5q-8 26 -7.5 48.5t8.5 39t22.5 27t33.5 11.5q61 4 100.5 7.5t67.5 6.5t49.5 5t48 3.5t62.5 2.5t93 1q14 0 24 -4.5t16 -12t8.5 -17t1.5 -17.5zM1499 794q14 -6 16 -25.5
t-3.5 -40t-17 -36.5t-26.5 -16q-55 3 -91 5.5t-66 1t-60 -8t-74 -21.5q-12 -16 -30.5 -37t-38 -43.5t-37.5 -44t-30 -38.5q49 3 81 8t61.5 11t63.5 12.5t86 12.5q32 3 54.5 -14t29 -40t-6.5 -44t-51 -26q-63 -9 -108 -16t-87.5 -13.5t-90 -13t-115.5 -13.5
q-8 -15 -25.5 -41.5t-31.5 -55.5t-18.5 -56.5t14.5 -45.5q25 -24 57.5 -25.5t67 7.5t67.5 24.5t59 26.5q15 6 31 10.5t31 4.5t26.5 -6.5t17.5 -23.5q5 -14 2 -28.5t-10.5 -27.5t-18.5 -24t-23 -18q-23 -13 -52.5 -28.5t-61 -29t-62 -22.5t-54.5 -8q-40 1 -77 9t-68 23
t-54.5 39.5t-37.5 58.5q-11 27 -7.5 60t16.5 68t32.5 71t40.5 70t41 64t33 53q14 24 27 43.5t27.5 38t29.5 37t33 40.5q8 10 1.5 18.5t-12.5 25.5q-8 21 3 35.5t33.5 25t53 17.5t62 11t60.5 7t48 5q40 5 77 6.5t68 -0.5t55.5 -7t39.5 -12z" />
    <glyph glyph-name="f_F" unicode="FF" horiz-adv-x="1274" 
d="M797 681q-57 -4 -105.5 -4t-91.5 -2t-84 -8.5t-83 -22.5l-90 -160q40 2 71 7t63 10.5t69.5 10.5t89.5 8q23 1 37.5 -13.5t19.5 -33t0 -37t-22 -24.5q-48 -17 -98.5 -25t-101.5 -13.5l-102 -11t-100 -18.5q-18 -26 -45 -64.5t-51.5 -78t-41.5 -74t-17 -52.5t-8 -34.5
t-22 -27.5t-32 -15t-37 2q-18 6 -25.5 17t-8 25t3 29.5t6.5 30.5q5 21 27 58t46.5 76.5t46 75.5t25.5 57q4 24 3 41t3.5 30.5t21.5 26.5t57 29l70 133l-23 3q-20 14 -28 31.5t-7 36t10.5 35t24.5 28.5q34 0 92.5 8.5t129.5 16t147.5 9.5t146.5 -12q20 -4 29.5 -20.5
t10.5 -34.5t-6 -33t-21 -16zM1415 687q-60 -4 -105.5 -1.5t-83.5 2.5t-74 -6.5t-77 -29.5l-107 -172q40 1 68.5 6.5t57 12t64.5 12.5t91 9q24 1 38 -16t18 -38.5t-2.5 -41.5t-25.5 -24q-53 -11 -102.5 -18.5t-98 -15t-96.5 -15.5t-98 -21q-19 -28 -44 -65.5t-46.5 -75
t-36 -70.5t-14.5 -53q0 -19 -8.5 -36t-23.5 -28.5t-34 -16t-39 2.5q-19 6 -26.5 17.5t-8 26.5t3 31.5t7.5 31.5t15.5 37t27 47.5t33.5 52.5t33 52.5t26 47.5t14 36q2 11 -1 20t-5.5 17.5t-2 17t9.5 18.5q21 23 31.5 33t18 14t15.5 5.5t24 8.5l86 153l-24 3q-21 14 -28 30.5
t-4.5 32.5t13.5 31t26 27q36 0 80.5 10t102.5 17.5t131.5 6t167.5 -25.5q20 -5 30 -21t11 -33t-6.5 -31t-21.5 -15z" />
    <glyph glyph-name="g_G" unicode="GG" horiz-adv-x="1528" 
d="M852 698q-16 -50 -44.5 -77t-82.5 -32q-19 -2 -25 5.5t-5 19.5t5.5 26.5t7.5 26.5t0 19.5t-17 6.5q-59 -5 -119.5 -29t-117 -58.5t-105.5 -76t-86 -83.5q-47 -53 -64 -115.5t11 -133.5q8 -21 26.5 -38.5t43.5 -29t55 -16.5t61 -1q42 5 81 21t71.5 37.5t56.5 46.5t35 48
q5 11 9 19t4.5 15.5t-4.5 14.5t-17 15q-23 14 -45.5 16.5t-45.5 -2t-47.5 -13.5t-51.5 -17q-9 -3 -21 -2t-23.5 4.5t-21.5 10.5t-14 17q-10 24 -4 43t22.5 32.5t41 23.5t51 15.5t52.5 8.5t45 3q63 1 103 -7t63.5 -25t34.5 -43t16 -62q4 -30 -8 -64.5t-31.5 -67.5t-43 -62
t-43.5 -47q-31 -29 -67.5 -48.5t-76.5 -31t-82 -16.5t-85 -5q-27 0 -63.5 7.5t-72.5 22t-65.5 35.5t-43.5 48q-62 121 -33.5 242.5t143.5 227.5q59 55 128.5 103.5t143 83t148 50t144.5 4.5q36 -6 55 -15.5t25.5 -23.5t3.5 -33t-11 -44zM1667 715q-10 -24 -19.5 -50.5
t-21.5 -51.5t-29 -45.5t-42 -31.5q-16 -7 -32 5t-18 29q-2 25 2 38.5t10 23.5t12.5 21t8.5 32q-54 -5 -117.5 -21t-120.5 -46q-23 -13 -55 -36t-66 -54t-66.5 -68t-57 -76t-37 -78.5t-6.5 -76.5q5 -29 20 -51t37 -36t49 -20.5t56 -5.5q23 2 54.5 11.5t63 24.5t59.5 32.5
t43 34.5q11 12 19 24.5t9.5 24.5t-5 23t-25.5 19q-19 9 -45 9t-52.5 -2.5t-51.5 -6t-43 -2t-26 10.5t-2 31q9 30 33 49.5t54.5 30.5t63.5 14.5t60 2.5q20 -1 44 -6t46.5 -14t41 -22.5t27.5 -31.5q27 -51 15 -103t-63 -114q-21 -25 -59.5 -53t-82.5 -52t-88.5 -40.5
t-77.5 -18.5q-44 -3 -87.5 1.5t-81.5 20t-69 42.5t-51 67q-19 39 -18.5 85t15 94t39.5 96t54.5 91t61 79t57.5 60q45 41 104 76.5t125 62.5t134.5 44t132.5 22q14 1 29 -10.5t26 -29t14.5 -38.5t-4.5 -40z" />
    <glyph glyph-name="h_H" unicode="HH" horiz-adv-x="1311" 
d="M889 749q0 -26 -9 -43t-23 -31.5t-30 -28.5t-30 -35q-10 -16 -25 -43.5t-31.5 -59t-33.5 -63t-32 -55.5q-20 -32 -35.5 -52t-29 -38.5t-27 -42t-30.5 -63.5q-12 -28 -19.5 -65t-18 -67t-28.5 -44.5t-52 1.5q-32 15 -42 36t-7.5 43.5t13 46t19.5 44.5q11 26 22.5 43
t23.5 33.5t24.5 35t26.5 46.5q-36 -1 -73 -6t-73 -9.5t-69.5 -7.5t-62.5 0q-18 -19 -34 -48t-31 -61.5t-29 -63.5t-27 -54q-7 -12 -12 -28t-10.5 -30t-13 -24.5t-19.5 -12.5q-33 -6 -52 2.5t-28 25t-9 39t4 44.5q10 27 26.5 55.5t34.5 57t35.5 56.5t30.5 53q-14 8 -17.5 30
t4 44t26 36.5t46.5 7.5l160 274q8 14 21.5 23.5t27.5 15t28 6.5t24 -2q43 -13 50.5 -29.5t-2.5 -34t-27.5 -34.5t-24.5 -30l-102 -180q30 0 64 5.5t70.5 12.5t74 13.5t73.5 8.5q25 34 48.5 83t50.5 95t59 80t73 39q59 9 59 -50zM1517 761q0 -26 -9 -43t-23 -31t-30 -28.5
t-30 -35.5q-10 -16 -27 -46.5t-36.5 -65.5t-39.5 -69.5t-35 -58.5q-20 -32 -35.5 -53.5t-29.5 -42.5t-28 -46.5t-31 -65.5q-12 -28 -19.5 -65t-18 -67t-28.5 -44.5t-52 1.5q-32 15 -42 36t-7.5 43.5t13.5 46t20 44.5q11 26 21 42t21 31t23 32.5t26 45.5q-38 -9 -68 -15.5
t-55.5 -11t-48 -7.5t-45.5 -4q-18 -19 -33.5 -46t-30.5 -56.5t-28.5 -58.5t-26.5 -52q-7 -12 -11.5 -28t-10 -30t-13 -24.5t-19.5 -12.5q-33 -6 -52 2.5t-28 25t-9 39t4 44.5q10 27 25.5 55.5t33 57.5t34 57t29.5 54q-14 8 -13 25t11 35.5t27 34.5t35 22l182 305
q8 14 21.5 24t27.5 15.5t28 6.5t24 -2q43 -13 50.5 -29.5t-2.5 -34t-27.5 -34.5t-24.5 -31l-118 -214q30 0 53.5 6t47.5 14t51.5 15t63.5 9q17 23 34.5 55.5t36.5 68.5t40 72.5t43.5 66t47.5 49.5t52 23q31 4 45 -8t14 -43z" />
    <glyph glyph-name="j_J" unicode="JJ" horiz-adv-x="1350" 
d="M799 688q-5 -18 -16 -48.5t-25 -67.5t-30.5 -77t-32.5 -76.5t-30 -66t-24 -46.5q-13 -22 -36 -58t-49.5 -73.5t-52.5 -70.5t-46 -50q-29 -24 -61.5 -39t-65 -21t-61.5 -3.5t-50 13.5q-111 53 -162 125.5t-53 165.5q0 24 17 40t38 23t39 5t19 -14q4 -36 13 -63t20 -47.5
t23.5 -36.5t22.5 -29q26 -33 68 -42.5t90 18.5q36 21 70 58.5t65.5 84t59.5 100t51 107t41.5 104.5t30.5 93q4 13 5 28t3 29t7 25t17 14q44 14 66 6.5t30.5 -25.5t6 -42t-7.5 -43zM1493 736q-23 -34 -45 -66t-40 -67q-13 -25 -29 -60.5t-34 -77t-37.5 -85t-39 -84.5
t-38.5 -76t-36 -60q-54 -77 -129.5 -120.5t-169.5 -40.5q-44 2 -83 13t-68.5 31t-45.5 50.5t-14 71.5q1 20 5.5 45.5t12.5 50t21 45.5t31 31q21 13 43.5 19.5t38 4.5t21.5 -14t-5 -38q-8 -19 -19.5 -48t-17.5 -57.5t-1 -50.5t30 -27q45 -9 85 0t74 29.5t60 49t42 58.5
q51 95 86 168t62.5 134t53.5 114t60 107q9 15 24.5 20t32 3.5t32.5 -9.5t26.5 -18.5t14.5 -22.5t-4 -23z" />
    <glyph glyph-name="k_K" unicode="KK" horiz-adv-x="1410" 
d="M890 728q-1 -21 -15 -38.5t-28 -32.5q-15 -16 -46.5 -39t-72 -48.5t-84.5 -52.5t-84 -52t-71.5 -46t-46.5 -35q25 -48 40 -79t28.5 -57t30 -53t46.5 -68q21 -29 34.5 -48t15 -32t-11.5 -22.5t-45 -19.5q-21 -7 -42 -0.5t-39 21t-32 33.5t-22 37q-16 37 -32 64.5
t-32.5 54.5t-35 57.5t-38.5 72.5q-4 0 -5 3.5t-1.5 8.5t-1.5 9.5t-7 6.5q-17 -23 -38.5 -61t-42.5 -80t-40.5 -81.5t-32.5 -66.5q-5 -9 -7.5 -20t-5.5 -21t-7.5 -18.5t-13.5 -13.5q-23 -14 -39 -11.5t-26.5 15t-17 30.5t-10.5 34q-3 13 7.5 45.5t28.5 72t40 80t43 68.5
q32 44 63 95t60.5 103.5t58 104t54.5 97.5q8 15 32 20t47.5 -0.5t38.5 -21.5t5 -43q-11 -29 -26 -52t-29 -44t-26 -41.5t-17 -43.5q18 0 50 15t70.5 39t80.5 53t79 56t66.5 49t43.5 32q15 11 34 20.5t36 10t28.5 -13.5t10.5 -52zM1585 662q-34 -20 -76 -45t-86 -51.5
t-88.5 -52.5t-85 -49t-74 -40.5t-56.5 -26.5q14 -24 26.5 -48t27.5 -51.5t33 -61t42 -75.5q7 -13 22.5 -30t25.5 -35.5t6.5 -36t-34.5 -31.5q-15 -6 -28.5 -4.5t-25.5 7.5t-23 15t-20 17q-20 18 -38.5 39t-36.5 46.5t-35.5 56t-36.5 69.5q-12 15 -16.5 29.5t-21.5 25.5
q-19 -22 -36 -59.5t-31 -76.5t-23 -73t-12 -50q-2 -15 -11.5 -31t-22.5 -28.5t-26.5 -18t-24.5 2.5q-36 24 -39.5 57t10.5 75q32 93 69.5 166t77.5 145t82 151.5t82 184.5q6 16 19 22t28 4t30 -10.5t25 -22t13 -30.5t-6 -35l-84 -171q32 10 71 29.5t80.5 44t84.5 51.5
t84.5 52.5t80 47.5t71.5 35q26 11 38 1.5t12 -30t-11 -48t-32 -52.5z" />
    <glyph glyph-name="l_L" unicode="LL" horiz-adv-x="1099" 
d="M457 78q-32 -16 -67 -25.5t-72.5 -17t-76.5 -16.5t-80 -23q-47 -8 -82 4.5t-57 37t-31.5 57.5t-5.5 65q46 73 88.5 151t86.5 156.5t93 156.5t109 150q17 20 37.5 18.5t35.5 -15.5t20.5 -36.5t-7.5 -43.5q-44 -69 -89.5 -138.5t-87.5 -140.5t-78.5 -143.5t-63.5 -146.5
q49 8 90 17t79.5 17t77 14.5t80.5 8.5q22 1 31.5 -13.5t8 -33t-11.5 -36.5t-27 -24zM1027 201q6 -12 3.5 -24t-10.5 -23.5t-19 -22t-21 -19.5q-32 -28 -75 -44.5t-81 -27.5q-18 -5 -44 -14t-54.5 -17.5t-58 -13.5t-54.5 -2q-25 13 -40 36.5t-21.5 52.5t-6 60t4.5 59
q35 55 77.5 127.5t89.5 150t97 155t100 141.5q15 19 36 16.5t37 -17.5t22 -38t-9 -45q-22 -32 -50 -75.5t-59 -93t-62 -102t-59 -102.5t-50.5 -94.5t-36.5 -77.5q27 -6 60 1t67 18.5t67.5 23.5t62.5 17q12 2 25 5t25 4t22 -2t15 -12z" />
    <glyph glyph-name="m_M" unicode="MM" horiz-adv-x="1528" 
d="M991 740q-43 -89 -80.5 -176.5t-77 -176.5t-86.5 -180.5t-110 -187.5q-19 -19 -41 -19.5t-39 10.5t-25 29t2 36q26 39 57 95t60 114.5t52 112t33 87.5q-24 -17 -54 -50t-63 -73t-68 -81.5t-69.5 -73.5t-67.5 -50t-63 -12q-31 33 -39.5 72.5t-5 82.5t12.5 88t12 90
q-25 -31 -57 -77t-63 -98.5t-58.5 -106t-44.5 -98.5q-4 -12 -6.5 -25.5t-6.5 -26.5t-10.5 -23.5t-19.5 -15.5q-19 -8 -37 -10t-32 4t-22 19t-6 35q2 23 15.5 59t34.5 78t46.5 87.5t51.5 88.5t50.5 80t42.5 63q32 45 59.5 85.5t49.5 74t37 57t21 33.5q5 8 19.5 17t33 15
t37.5 7t33.5 -7t21.5 -26.5t1 -52.5q-14 -48 -29.5 -96.5t-28 -96.5t-21.5 -95.5t-10 -92.5q43 30 79.5 68.5t70.5 80.5t67 85.5t67 84.5t71 77.5t79 63.5q7 6 21 9.5t30.5 4t32.5 -3.5t27.5 -11.5t16 -20t-3.5 -30.5zM1789 712q-35 -87 -80 -175t-94 -175t-100 -173
t-98 -169q-10 -18 -24 -18t-22 6q-32 26 -37.5 54.5t11.5 66.5q12 27 33.5 59.5t44.5 65.5t42.5 64t27.5 54q-18 -13 -45 -41t-57.5 -60.5t-60 -63.5t-52.5 -50q-25 -21 -55 -29t-61 -4q-20 2 -30.5 12t-15 23.5t-4 29t3.5 30.5q2 7 4 23.5t6 38.5t9.5 47.5t13.5 49.5
q-33 -37 -66.5 -90.5t-64.5 -106.5t-57.5 -99.5t-45.5 -70.5q-16 -21 -34.5 -16.5t-32 22t-18 41.5t9.5 43q43 72 97.5 159t112.5 178t116 179.5t108 162.5q14 21 33.5 20.5t36.5 -13t27 -32.5t5 -39q-18 -60 -39.5 -114.5t-42 -108t-36.5 -108.5t-23 -116q33 25 67.5 61
t68.5 77t67 85.5t63.5 85.5t57.5 77t49 61q12 14 24 27t26.5 24t32.5 19t43 11q22 2 34 -6.5t17 -22.5t5.5 -29.5t-1.5 -26.5z" />
    <glyph glyph-name="n_N" unicode="NN" horiz-adv-x="1347" 
d="M824 818q26 -25 29 -49.5t-6.5 -50t-26 -52t-28.5 -56.5q-12 -29 -30.5 -70t-42 -88.5t-49.5 -98.5t-52.5 -100t-51.5 -93.5t-47 -79.5q-12 -20 -23.5 -32.5t-25.5 -20t-33.5 -11t-48.5 -6.5q-12 -1 -21.5 7.5t-16.5 21.5t-11 27.5t-6 24.5q-5 34 -10 74.5t-8 92
t-2.5 116.5t6.5 149q-17 -14 -37.5 -47.5t-43 -78t-45 -96t-42.5 -101.5t-36 -94t-26 -75q-3 -10 -12.5 -20t-22 -17.5t-26 -11t-24.5 -0.5q-24 6 -32.5 23t-8 38t8 43t15.5 37q14 26 36 75.5t48.5 110t56 126.5t58.5 125.5t56 107t48 70.5q15 17 27.5 25.5t26 12.5t28.5 5
t35 2q27 2 40.5 -8.5t18 -28t3.5 -39t-4 -41.5q-2 -20 -7.5 -51.5t-11 -69t-9.5 -79.5t-4 -83.5t5 -80t18 -69.5q33 33 69.5 89.5t72.5 125.5t70 144.5t61 147.5q6 15 17 33t24.5 32t27.5 19t26 -6zM1475 808q38 -11 26.5 -53t-73.5 -134q-9 -13 -28.5 -52t-45 -91
t-54 -111.5t-54.5 -113t-46 -94.5t-30 -58q-12 -21 -24 -40t-25.5 -34.5t-30 -26t-38.5 -14.5q-37 5 -55 24t-22 48q-3 24 -3.5 64.5t0 85t0 86.5t-3.5 69q-41 -52 -69 -97.5t-47.5 -85.5t-32.5 -75.5t-24 -67.5q-3 -9 -9.5 -18t-15.5 -15.5t-19.5 -10t-22.5 -0.5
q-29 6 -42 18.5t-15.5 29t4 36t17.5 38.5q8 14 30 54t50.5 93.5t60.5 113t60 112t48 90.5t24 49q12 29 24 54t25.5 45t31 34t40.5 20q49 12 69 -4.5t13 -48.5q-10 -46 -29 -109t-34 -131t-20.5 -135t12.5 -120q33 42 66 106t67 135.5t68.5 143.5t70.5 130q22 34 45.5 53
t60.5 8z" />
    <glyph glyph-name="o_O" unicode="OO" horiz-adv-x="1528" 
d="M927 481q-3 -66 -28.5 -136.5t-65.5 -132t-91 -109t-105 -68.5q-72 -28 -150 -45.5t-152.5 -10.5t-138.5 44t-107 117q-14 26 -22 56t-8 61.5t7.5 63.5t25.5 60q36 57 74.5 111t85 102t104.5 88.5t132 70.5q34 14 70 24.5t72 14t70.5 -2.5t65.5 -27q42 -28 73 -50.5
t51.5 -52t30 -71t6.5 -107.5zM719 274q44 56 66.5 112.5t22.5 105t-22.5 86t-69.5 56.5q-32 13 -68.5 13t-74.5 -10t-76 -29.5t-74 -46.5q-26 -19 -56 -45t-58.5 -56.5t-53.5 -64.5t-41 -69t-20 -69.5t8 -67.5q13 -33 46.5 -52.5t79 -25t99 2t106.5 28t102 54t84 78.5z
M1750 708q37 -25 50.5 -62t10 -81.5t-20 -92t-40 -94t-51 -87.5t-52.5 -72q-69 -85 -147.5 -140.5t-180.5 -78.5q-36 -8 -80 -5t-86.5 16t-78.5 34.5t-56 50.5q-36 54 -45 105.5t1 104t37 106t63 111.5q42 66 101.5 114.5t127 80.5t139 50t139.5 23q26 2 45.5 -4t38 -17.5
t38.5 -27.5t47 -34zM1646 601q-30 38 -74 48.5t-93.5 0t-101 -38.5t-98.5 -66q-24 -20 -51.5 -47.5t-51.5 -59t-43.5 -65.5t-28 -68t-4 -66.5t26.5 -59.5q21 -25 58 -34t80.5 -5t88.5 20t82 41q59 40 106 98.5t76.5 117.5t38 109.5t-10.5 74.5z" />
    <glyph glyph-name="p_P" unicode="PP" horiz-adv-x="1370" 
d="M796 702q22 -67 5.5 -128t-68.5 -134q-21 -30 -65.5 -57t-99.5 -49.5t-115 -41.5t-114 -34t-96 -26t-61 -18q-9 -6 -22.5 -25.5t-25.5 -44.5t-19 -49.5t-3 -41.5q3 -14 -9 -28t-30.5 -24t-38.5 -13t-34 5q-12 8 -18.5 21.5t-7 30t3.5 34t13 33.5q18 32 43 81t53 105
t57 115.5t55.5 113t47.5 97.5t34 69v41.5t5 27.5t17 17.5t35.5 11t60 8.5t90.5 11q35 5 82 4t93 -12t82.5 -35t49.5 -65zM676 626q-8 35 -37 48.5t-65.5 14.5t-75.5 -4.5t-68 -8.5q-29 -37 -46.5 -66t-32.5 -61.5t-32.5 -72.5t-46.5 -98q35 7 76.5 16t83.5 21.5t81.5 28.5
t69.5 37q22 15 41.5 31t32.5 33.5t18.5 37.5t0.5 43zM1447 735q13 -19 19 -53t0.5 -76t-24.5 -88.5t-56 -90.5q-104 -122 -233.5 -163.5t-288.5 -15.5q-10 -17 -23.5 -36.5t-26.5 -41t-23.5 -45t-14.5 -47.5q-5 -32 -21.5 -56t-37.5 -35.5t-43 -7.5t-37 29q-5 8 -4.5 18
t4 20.5t8.5 21t10 20.5q17 36 41 83t51 99t55.5 107t55.5 107t50.5 99.5t40.5 84.5q-23 8 -24 26t10 37.5t30 35t35 17.5q21 3 37 6t36.5 6.5t49.5 7.5t76 7q97 7 158.5 -13t89.5 -63zM1298 518q8 11 16.5 27.5t13.5 35t5.5 37.5t-7.5 34t-26 24t-50 8q-42 -1 -66.5 -3.5
t-39.5 -6t-26 -7t-28 -8.5q-19 -28 -42 -65t-44.5 -75t-39 -74.5t-24.5 -64.5q62 -7 112 -4t92.5 18.5t80 45.5t73.5 78z" />
    <glyph glyph-name="r_R" unicode="RR" horiz-adv-x="1465" 
d="M816 682q10 -45 -3.5 -83.5t-42.5 -72t-69.5 -62t-85 -52.5t-89 -44t-81 -36.5t-62 -30t-31.5 -24.5q-3 -6 4 -24.5t25 -44.5t48 -55.5t73 -58.5q9 -6 23 -11.5t23.5 -14t10.5 -20.5t-14 -32q-7 -9 -22.5 -14t-32.5 -7t-33.5 -1t-25.5 6q-33 16 -55 27.5t-40.5 27.5
t-37 40t-44.5 64q-15 23 -32 49t-26 55q-8 -4 -17.5 -23.5t-20.5 -47t-23 -58.5t-25 -59t-27.5 -48t-30.5 -26q-17 -6 -38 -4t-36.5 11.5t-22.5 26.5t3 41q16 39 40 86.5t52 100t58 108t58.5 110t53 106t41.5 95.5q-1 37 10 58.5t32 32t50.5 13.5t65.5 4t77 2.5t85 8.5
t83.5 2t70.5 -21t52.5 -41.5t28.5 -58.5zM674 614q11 19 3 31t-25.5 19t-40.5 10t-43 3q-51 -1 -96.5 -18t-82.5 -27q-18 -29 -37.5 -59t-38.5 -61t-34.5 -63t-26.5 -65q28 14 66 28.5t80 31t84.5 35t80 39.5t67 45t44.5 51zM1570 632q-4 -60 -36.5 -105.5t-80.5 -80
t-105.5 -60.5t-111.5 -47q-18 -7 -39 -15t-40 -17.5t-35 -20t-24 -23.5q-12 -19 -3 -47.5t26 -75.5q9 -24 31.5 -35.5t45.5 -21.5t39.5 -23.5t13.5 -41.5q-3 -21 -16.5 -31.5t-33 -13.5t-43 0t-46.5 9q-32 8 -62 31t-52.5 55.5t-36 72t-12.5 80.5q0 20 4 38.5t4 41.5
q-15 -10 -31.5 -34.5t-31.5 -52.5t-27.5 -54t-20.5 -41q-12 -21 -18 -41.5t-13.5 -38t-18.5 -30t-33 -16.5q-25 -5 -44 4t-29.5 25t-12.5 37t7 40q11 26 32 65t44.5 80.5t45 81t33.5 65.5q21 47 41.5 83.5t40.5 70.5t40 69.5t40 79.5q17 36 53.5 57.5t89 31.5t118.5 11
t141 -3q81 -5 126.5 -45t40.5 -114zM1387 657q-30 9 -63 7.5t-67.5 -8t-69.5 -15.5t-69 -14q-27 -45 -46 -72t-33.5 -51t-27 -53.5t-28.5 -79.5q16 15 44 26.5t62.5 22t72.5 20.5t74 22q30 10 59.5 26.5t53 36t41 40t24 39t1 32.5t-27.5 21z" />
    <glyph glyph-name="s_S" unicode="SS" horiz-adv-x="1477" 
d="M763 705q0 -22 -7 -40.5t-18.5 -29.5t-24 -13.5t-22.5 6.5q-16 15 -27 30.5t-27 25.5t-40.5 10t-66.5 -16q-24 -9 -51.5 -24t-53 -30t-46.5 -27t-30 -17q31 -11 68.5 -24t77 -30t77.5 -38.5t69 -47.5t51.5 -57.5t24.5 -69.5q4 -31 3.5 -62.5t-11.5 -62.5t-35 -60.5
t-68 -57.5q-56 -35 -115 -51.5t-116 -17.5t-109 11.5t-95 34.5t-73.5 51t-44.5 62t-15 61.5t8 54t27 48t42 42.5q15 13 33 15t31.5 -3t20 -17t-0.5 -28q-6 -15 -11 -21t-9.5 -11.5t-8 -13.5t-6.5 -26q-4 -26 6 -46t29 -34.5t44 -24.5t51 -16.5t51 -8.5t44 -2q53 2 103 18.5
t78 48.5q25 28 28.5 53.5t-7.5 48t-33 42t-48 35.5t-54 29.5t-51 23.5q-31 14 -68.5 20t-71.5 13t-59.5 17.5t-31.5 33.5q-19 66 -3.5 99t62.5 50q33 13 69.5 31.5t71.5 37.5t65 37t51 29q23 12 57.5 20t70.5 8t69 -9t55 -29q9 -8 13 -14.5t6 -15t2 -20.5v-31zM1527 735
q0 -33 -11 -55.5t-27 -32t-34 -4t-33 27.5q-6 9 -24.5 10.5t-45 -3t-58 -14t-62 -23t-57.5 -30t-46 -35.5q28 -17 67.5 -44.5t80 -62.5t75.5 -76t53.5 -85.5t15 -90t-41.5 -90.5q-46 -55 -96.5 -86t-102.5 -44t-105.5 -10.5t-106.5 14.5q-39 9 -73.5 28t-60 46.5t-39.5 64
t-11 80.5q2 18 11 36t23.5 32t33 24.5t37.5 13.5q28 5 39 -2.5t11.5 -20.5t-6 -29t-14.5 -28q-11 -17 -9.5 -30.5t9.5 -24.5t20 -20.5t23 -18.5q24 -19 59.5 -32t76.5 -13t84 16.5t82 57.5q24 26 25 53t-14 54.5t-43.5 53.5t-62.5 49t-70.5 41.5t-68.5 31.5t-50.5 28
t-24.5 34.5t-1.5 44.5t19.5 56q11 24 39.5 46.5t68 43t86.5 38t94.5 31t92.5 23.5t81 14q16 2 32 -3.5t29.5 -17.5t22 -29t8.5 -38z" />
    <glyph glyph-name="t_T" unicode="TT" horiz-adv-x="1298" 
d="M862 724q-13 -16 -23 -25.5t-24 -15t-36.5 -7.5t-60.5 -4q-43 -2 -82 -13.5t-67 -19.5q-19 -58 -58 -130t-81 -150t-80 -157t-57 -150q-6 -24 -23 -40t-38.5 -19.5t-44 8t-38.5 43.5q-7 15 -6.5 29.5t6 29t14.5 29t18 29.5q37 59 68.5 121t61 123t59 118t60.5 106
q-27 6 -55 2.5t-56 -11t-54 -16.5t-47 -12q-24 -4 -50.5 17t-39.5 67q-5 18 2.5 30t24 19.5t40.5 12t54 7.5q64 7 110 11.5t83.5 8t71 6.5t72 7t87.5 10t117 14q13 2 30 -5t30 -18.5t18 -26t-6 -28.5zM1507 799q20 -5 20 -22t-11.5 -36t-29.5 -34t-34 -17q-56 -7 -110 -24
t-92 -38q-35 -52 -73.5 -129.5t-75.5 -161t-71.5 -163.5t-61.5 -137q-11 -22 -27 -38t-32 -23q-19 -9 -34 -1t-25 25.5t-14.5 39.5t-1.5 40q5 33 30 86.5t63 122t84 148.5t92 166q-30 0 -62.5 -5t-62.5 -4.5t-55.5 12t-40.5 45.5q-7 15 -8 32.5t5 31.5t18.5 22t32.5 6
q56 -7 107.5 -1.5t100 15.5t95 23t92 21t91 9.5t91.5 -11.5z" />
    <glyph glyph-name="u_U" unicode="UU" horiz-adv-x="1353" 
d="M840 691q-10 -18 -32 -59t-50 -93t-59 -109.5t-58 -108.5t-47.5 -89.5t-28.5 -52.5q-21 -39 -51 -72t-67.5 -56t-82.5 -33.5t-95 -4.5q-45 5 -82 14t-64.5 26.5t-44.5 46.5t-22 74q-8 68 10 140.5t52 146t78.5 146t89.5 141.5q20 29 44 24t42 -30q6 -8 9 -22t2.5 -29.5
t-4.5 -31t-13 -27.5q-37 -52 -67 -97.5t-51.5 -93t-35 -100t-16.5 -118.5q-1 -27 14.5 -45t40.5 -26t54 -6.5t53 12.5q42 19 75.5 53.5t61.5 79.5t51.5 96.5t45 105t42 105t42.5 96.5q5 10 11 24t12.5 29t14.5 28t17 21q29 26 54 20.5t41.5 -26t21 -49.5t-7.5 -50zM1469 688
q-5 -18 -20 -51.5t-34.5 -74.5t-42 -86t-44.5 -86t-41 -74.5t-32 -51.5q-48 -69 -87 -120.5t-79.5 -86.5t-87 -53t-110.5 -19q-31 -1 -57.5 12t-46.5 34t-33 47t-18 50q-9 45 0 101.5t30 117t52 122.5t66.5 118.5t74 104.5t73.5 81q14 13 29.5 14.5t28.5 -5t21.5 -20.5
t8.5 -32q1 -29 -8 -56t-29 -50q-28 -31 -59.5 -72.5t-60.5 -87.5t-52 -94t-35.5 -91.5t-11 -80.5t21.5 -61q47 -55 132 23.5t194 280.5q6 12 17 33.5t24.5 49t28 57.5t27.5 58.5t23 53t15 40.5q6 18 15.5 33.5t21 25.5t24.5 13.5t26 -1.5q21 -8 31 -22t12.5 -30t-0.5 -33
t-8 -31z" />
    <glyph glyph-name="v_V" unicode="VV" horiz-adv-x="1237" 
d="M801 805q25 -12 30 -26.5t-3.5 -31t-28 -34.5t-43 -38t-48.5 -41.5t-45 -44.5q-29 -33 -71 -83t-87 -105t-87.5 -107.5t-73.5 -91.5q-24 -31 -47 -61.5t-44 -56t-40 -44t-37 -26.5q-33 -14 -59.5 -10t-44.5 19.5t-26.5 39t-5.5 48.5q20 151 70 316.5t119 335.5
q8 21 29.5 18.5t41.5 -17t33 -36t4 -39.5q-32 -65 -52.5 -119.5t-36 -108.5t-28.5 -113t-31 -134q63 51 123.5 122t119.5 147.5t118 151t117 133.5q12 12 28.5 22.5t34.5 16.5t36.5 6.5t34.5 -8.5zM1418 738q-10 -20 -42 -58t-75.5 -87.5t-95 -107t-102.5 -116.5
q-44 -51 -77.5 -98t-67.5 -91.5t-73 -86t-95 -82.5q-8 -6 -23.5 -5.5t-30.5 5t-26.5 12.5t-11.5 17q0 56 11 132t30 163t45 180.5t56 184.5q10 29 25 56.5t41 39.5q14 7 27.5 2t23 -18t13 -31t-2.5 -37q-4 -11 -5.5 -21.5t-7.5 -25.5q-24 -60 -44.5 -125.5t-36 -123
t-23.5 -101.5t-7 -61q23 14 55.5 49t70 81.5t78.5 101t82 106.5t80 98t72 76q13 12 29.5 24t33.5 21t34 12t32 -3t19.5 -16.5t3.5 -22t-6 -23t-9 -20.5z" />
    <glyph glyph-name="w_W" unicode="WW" horiz-adv-x="1528" 
d="M1074 722q-27 -54 -52.5 -111t-52 -115.5t-54.5 -117.5t-61 -118q-22 -40 -49.5 -82.5t-60.5 -80t-73 -65t-89 -38.5q-46 -10 -78.5 1.5t-55 35.5t-36 56.5t-21.5 66.5q-23 -8 -53 -27.5t-62 -42t-65.5 -44t-64 -34t-57 -12t-45.5 22.5q-25 29 -32 63t-2.5 70.5t17 73.5
t25.5 71q13 33 33.5 75.5t45.5 88t53.5 93t58 91t58 80.5t54.5 62q14 14 37 11.5t42.5 -14.5t28.5 -30t-5 -36q-29 -36 -65 -83.5t-72.5 -100.5t-69.5 -107.5t-56.5 -105t-33 -93t1.5 -71.5q47 11 89.5 37.5t79.5 64t69.5 81.5t60 88.5t50 87t39.5 76.5q10 20 33 19
t44 -15.5t34 -38.5t2 -51q-11 -29 -27 -58t-31.5 -58t-29 -58.5t-19.5 -60t-3 -62t21 -64.5q32 14 65 49.5t66 85.5t65 109.5t61 120.5t54.5 119t45.5 104q8 19 16.5 30t19.5 17.5t26 11t37 10.5q20 6 31 -1t16 -20t3.5 -29t-7.5 -28zM2009 691q-8 -20 -23.5 -50.5
t-35 -65.5t-41.5 -72.5t-43 -72t-39 -63.5t-29 -48q-33 -54 -61.5 -97.5t-55 -78.5t-50.5 -64t-47 -53q-21 -22 -54.5 -28.5t-65 2t-55.5 31.5t-27 58l-6 171q-15 -18 -39.5 -45.5t-54.5 -58.5t-63.5 -61.5t-67.5 -54.5t-66.5 -39.5t-60.5 -14.5q-15 0 -27 10.5t-21 26.5
t-15 35.5t-8 38.5q-3 19 11 61t36 95.5t49.5 112.5t53 111t45.5 90.5t27 51.5q15 29 29.5 58t29 54t30 44t31.5 27q11 6 27.5 7t32.5 -4.5t28 -19t12 -37.5q0 -15 -10.5 -33.5t-26 -40.5t-33 -47t-31.5 -53q-11 -22 -27.5 -53.5t-34.5 -67.5t-36 -75.5t-33.5 -77
t-26.5 -71.5t-15 -60q26 8 57 34.5t65.5 65t70.5 87t72 101t70.5 107t65.5 104.5q14 23 35.5 23t38.5 -13.5t25 -36t-4 -45.5q-40 -78 -69 -146.5t-42 -125.5t-9 -100t28 -70q32 28 64 70.5t63.5 93t61.5 105t58 106.5t53.5 97.5t47.5 77.5q11 15 20.5 34.5t20.5 37
t24.5 28.5t31.5 10q22 -1 33 -14.5t14.5 -32t0.5 -39.5t-9 -37z" />
    <glyph glyph-name="x_X" unicode="XX" horiz-adv-x="1475" 
d="M882 808q28 -10 30.5 -25.5t-11.5 -33.5t-39 -36.5t-52 -36.5q-47 -31 -95.5 -74.5t-90.5 -85.5t-72.5 -76t-42.5 -45q9 -33 21.5 -67.5t25 -69.5t22.5 -68.5t15 -65.5q2 -15 2.5 -32.5t-3.5 -34.5t-14 -31.5t-29 -22.5q-15 -7 -28.5 -3t-24.5 13.5t-19 24t-11 28.5
q-8 34 -14 64.5t-14.5 59.5t-20 57.5t-31.5 58.5q-39 -27 -79.5 -61.5t-80 -72.5t-77 -77t-70.5 -76q-20 -23 -49 -29.5t-53 1.5q-12 4 -19.5 15t-8.5 26t6 32.5t22 35.5q31 35 71 75t86 83t97 88.5t104 90.5q-29 63 -59 133t-56 139q-6 17 -0.5 28.5t17.5 18.5t28.5 9.5
t32.5 0.5t29 -8t18 -17q12 -24 28 -54.5t32.5 -60t30.5 -55.5t22 -43q33 26 73 62.5t82 74t82.5 71t74.5 52.5q26 15 56.5 22t55.5 -2zM1237 417q10 -35 25 -76.5t29 -84.5t23.5 -85t7.5 -80q-2 -33 -12.5 -62.5t-39.5 -46.5q-6 -4 -15.5 -1t-14.5 8l-113 325
q-27 -18 -66.5 -49.5t-79 -66.5t-74.5 -67t-53 -50q-10 -10 -18.5 -24t-18.5 -27.5t-23.5 -26t-34.5 -20.5q-14 -5 -23.5 5.5t-13 28.5t-0.5 40t14 40q33 54 73 95t84 79t89.5 78t88.5 91q-9 26 -22.5 59.5t-27.5 67.5t-26 65t-20 51q-3 7 -6.5 14.5t-6 15.5t-2.5 16t5 15
q17 23 32.5 33t29 11t24.5 -6t20 -18q11 -14 26 -39.5t30 -56.5t29 -64.5t23 -65.5q26 23 66 56.5t84 69.5t87.5 69.5t76.5 56.5q9 6 19.5 12t21.5 10.5t21 5.5t18 -3q10 -6 20.5 -13t16 -17.5t4.5 -24t-15 -31.5z" />
    <glyph glyph-name="y_Y" unicode="YY" horiz-adv-x="1186" 
d="M826 750q5 -37 -6 -57.5t-30 -34t-43.5 -26t-48.5 -32.5q-67 -58 -137 -127t-138 -145.5t-132.5 -160.5t-119.5 -173q-4 -6 -11.5 -10.5t-16 -6.5t-16.5 -1.5t-14 4.5q-38 27 -42.5 56t7.5 57q4 10 17.5 27.5t31.5 38t38 42.5t38.5 42.5t33 37.5t20.5 26q-3 6 -13.5 10.5
t-23 10.5t-25 13.5t-21.5 17.5q-43 54 -45 109t24 122q9 23 22 43t26 37.5t25.5 31.5t19.5 26q18 27 44 45.5t50 23.5t40.5 -4t15.5 -37q0 -13 -0.5 -25t-2.5 -22.5t-8.5 -20t-18.5 -18.5q-53 -39 -78 -84.5t-23 -86.5q1 -16 11 -30t23.5 -24.5t28.5 -16t27 -5.5
q51 47 95 95t86.5 94.5t88 90.5t99.5 84q16 12 33 14.5t32 -2.5t25 -17.5t12 -31.5zM1368 723q-49 -48 -106 -101.5t-115.5 -111t-116.5 -118t-110 -122t-95 -124t-72 -123.5q-10 -21 -23 -31.5t-26 -12t-24.5 5.5t-19.5 21q-18 31 -13 60.5t16 56.5q10 22 32.5 53t51 66.5
t58 72t52.5 69.5q-2 9 -10.5 18t-18 19t-19 22.5t-14.5 27.5q-7 22 -11.5 43.5t-3.5 45.5t7 52t19 61q5 12 18 33.5t29.5 42.5t35 37.5t33.5 17.5q24 2 40.5 -3t25.5 -14t10 -20.5t-8 -22.5q-61 -76 -73 -142.5t38 -115.5q43 41 82 77.5t77.5 74t77 78.5t80.5 91
q15 18 38 13.5t41.5 -21t25.5 -38.5t-9 -38z" />
    <glyph glyph-name="z_Z" unicode="ZZ" horiz-adv-x="1411" 
d="M804 753q6 -19 9 -42.5t0 -46.5t-13 -43.5t-29 -34.5q-40 -29 -84 -62t-90 -67t-93 -67.5t-92 -63.5q-9 -6 -28.5 -20t-44 -32t-52 -37.5t-52 -37t-44 -30t-29.5 -17.5q60 -7 107 0.5t89.5 17t86 15t97.5 -4.5q21 -4 42.5 -3.5t45.5 -14.5q23 -15 22 -30t-13 -27.5
t-30 -20.5t-30 -8q-61 0 -119.5 -7.5t-115 -19t-113 -24.5t-114.5 -24q-15 -3 -29.5 -5t-28 0.5t-25 9.5t-20.5 22q-12 21 -16 43.5t-1 44.5t11 43.5t19 40.5q67 48 149 101.5t166.5 110t164.5 114.5t143 114q-22 13 -47.5 14.5t-53.5 -4t-57 -15.5t-58.5 -19.5t-58.5 -16.5
t-57 -6q-22 -3 -33.5 6t-15 25t0 36t10.5 37t16.5 28.5t18.5 11.5q45 3 88.5 12t86.5 19t85 18.5t83 9.5q19 1 42 2t44 -2t37.5 -12.5t22.5 -30.5zM1514 756q17 -32 15.5 -59.5t-14 -50.5t-33.5 -42t-44 -33q-40 -24 -89.5 -59.5t-102.5 -76t-106.5 -82.5t-99.5 -80.5
t-82.5 -69t-56.5 -48.5q57 -7 106.5 2t94 19.5t85.5 15.5t81 -10q36 -13 49.5 -31.5t5 -36t-38.5 -31.5t-81 -19q-57 -6 -99 -10t-83.5 -10.5t-89 -16.5t-113.5 -27q-38 -10 -62.5 12.5t-29.5 76.5q-1 20 4.5 42t16 43.5t25 40t30.5 29.5q50 36 114.5 84.5t132.5 98.5
t132.5 97.5t112.5 81.5l71 59q-42 6 -79 0t-72 -16.5t-68.5 -20t-68.5 -10.5q-23 -1 -40.5 2t-31.5 27q-7 12 -9 27.5t2 31t13.5 29.5t25.5 23q84 20 175 30.5t185 8.5h33.5t32.5 -3t29 -11.5t22 -26.5z" />
    <glyph glyph-name=".notdef" horiz-adv-x="359" 
 />
    <glyph glyph-name=".null" horiz-adv-x="0" 
 />
    <glyph glyph-name="nonmarkingreturn" horiz-adv-x="359" 
 />
    <glyph glyph-name="space" unicode=" " horiz-adv-x="359" 
 />
    <glyph glyph-name="exclam" unicode="!" horiz-adv-x="377" 
d="M523 765q-36 -70 -80 -138.5t-90.5 -135t-92 -132.5t-83.5 -131q-4 -6 -13.5 -9t-20.5 -2t-21.5 5t-16.5 12q-15 21 -11 46t13 48t27 49t38 52.5t39.5 52t32.5 46.5q45 72 92 139t107 124q16 15 34 20t31.5 1t18.5 -16.5t-4 -30.5zM105 35q-8 -16 -18.5 -24t-22 -11
t-22 -3t-18.5 1q-40 5 -49.5 21t-5.5 45q3 21 17 37.5t33.5 26.5t41 12.5t39.5 -5.5q16 -6 21 -18.5t3.5 -26.5t-7.5 -29t-12 -26z" />
    <glyph glyph-name="quotedbl" unicode="&#x22;" horiz-adv-x="358" 
d="M573 759q-12 -22 -25.5 -40t-28 -35.5t-28.5 -35.5t-26 -41t-23 -55.5t-23 -61t-26.5 -46.5t-35.5 -11q-23 8 -29.5 25.5t-4 39t10 45t12.5 41.5q9 34 24 70t35 68t44 58t52 39q10 5 25.5 2t29 -11.5t20 -21.5t-2.5 -29zM389 765q-9 -19 -19.5 -31t-21.5 -25t-21 -30.5
t-16 -46.5q-4 -19 -8.5 -43t-12 -47.5t-19.5 -43t-32 -28.5q-22 -10 -36.5 -4t-21.5 20.5t-7 34t6 35.5q12 32 20 61.5t17 58.5t21 58t31 58q14 21 31.5 38.5t43.5 15.5q22 -1 33.5 -9.5t16 -20.5t3 -25.5t-7.5 -25.5z" />
    <glyph glyph-name="numbersign" unicode="#" horiz-adv-x="579" 
d="M598 503q4 -12 -8.5 -20.5t-34 -14.5t-47 -9.5t-48.5 -5.5q-11 -18 -22 -37t-22 -37q23 0 41 -3q21 -4 32 -13t17 -35q6 -24 -2.5 -39.5t-23.5 -24.5t-33 -12.5t-30 -3.5q-11 0 -29 1.5t-41 3.5q-1 -3 -7 -14t-12.5 -23.5t-11.5 -23t-6 -13.5q-6 -19 -15.5 -44t-20.5 -44
t-23 -27t-25 6q-19 20 -25 36t-4.5 30.5t8.5 29t15 31.5q4 8 7 13t6.5 11.5t8 15t11.5 22.5q-17 1 -33 1.5t-31 -0.5q-15 -40 -31 -77.5t-31 -64t-29.5 -37.5t-28.5 3q-21 22 -29 37t-5.5 30.5t13.5 36t27 53.5q-48 -10 -71 31q-9 16 -2 30.5t22.5 25.5t35.5 18.5t36 8.5
q8 1 18 1.5t21 2.5q8 17 15.5 34t14.5 34q-21 -4 -32.5 -5.5t-18.5 2.5t-12 15.5t-13 34.5q-8 24 5 39.5t35 25t48 14t43 4.5q15 34 36 75.5t43.5 72.5t44 41.5t37.5 -16.5q12 -21 14.5 -35t-3 -30.5t-19 -39.5t-34.5 -62q14 2 33.5 5t42.5 5q12 22 23 40t20 30l18 27
t20.5 26.5t22 17t21.5 -1.5q17 -12 25.5 -21.5t10.5 -18.5t-2 -19.5t-11 -23.5q-5 -9 -9 -19.5t-18 -33.5q23 -2 32.5 -5.5t13.5 -11t6.5 -21t9.5 -35.5zM348 449h-37.5t-32.5 -1q-11 -20 -20.5 -39.5t-19.5 -39.5q36 5 73 6q9 19 18.5 37.5t18.5 36.5z" />
    <glyph glyph-name="dollar" unicode="$" horiz-adv-x="456" 
d="M490 616q-6 -26 -21.5 -43.5t-32 -25.5t-31 -6.5t-19.5 14.5q-1 3 -9 5.5t-22 1t-33.5 -9t-43.5 -25.5q27 -12 60.5 -32.5t55.5 -50.5t24 -69.5t-35 -88.5q-55 -73 -112.5 -105.5t-112.5 -42.5q-19 -33 -38 -67.5t-30 -54.5q-4 -9 -13 -20t-19 -17.5t-20 -6.5t-17 14
q-3 6 -9 14.5t-11.5 20t-6.5 24.5t7 28q5 10 10 16.5t10 13.5t11.5 17t15.5 26q-23 13 -35.5 38t-7.5 63q5 32 24 53.5t39 32t36 8t15 -19.5t-5.5 -27.5t-6.5 -17.5t1 -13t17 -14q13 -7 31.5 -8t40 6t44 22t43.5 40q20 24 14.5 42.5t-25 32t-47.5 22.5t-54 12
q-45 6 -50 32.5t18 74.5q6 12 20.5 28.5t38 35t55 37.5t70.5 35q20 38 38.5 78.5t36.5 77.5q8 17 24.5 18.5t30.5 -9t21.5 -31.5t-1.5 -50q-3 -10 -5.5 -16t-6 -12.5t-8.5 -15t-12 -23.5q29 0 43 -14t5 -48z" />
    <glyph glyph-name="percent" unicode="%" horiz-adv-x="765" 
d="M797 722q-27 -24 -68 -58t-90.5 -76t-105.5 -89.5t-114 -97.5q-28 -24 -72 -65.5t-89.5 -88t-84.5 -92.5t-58 -78q-8 -14 -22 -31t-29 -30.5t-27.5 -21t-18.5 -2.5q-23 24 -16.5 62.5t34.5 78.5q27 40 48.5 66.5t41 46t39 36t42 35t50.5 43.5t64 62q19 19 45.5 44.5
t58 54.5t65.5 59.5t67 60.5q-20 0 -40.5 1t-38.5 6q-18 -33 -41.5 -64t-52.5 -57.5t-62.5 -47t-69.5 -32.5q-15 -5 -33 -7t-35.5 0t-30.5 8.5t-18 18.5q-9 26 -2.5 60.5t15.5 69.5q3 9 13.5 28t24.5 39.5t28 39t23 26.5q21 20 40 34t38.5 24.5t41.5 18.5t50 14
q17 5 38.5 6.5t35.5 -10.5q23 -20 47.5 -31t59.5 -15q41 -4 77.5 5.5t71.5 11.5q14 8 27 13t21 2q9 -4 18.5 -9.5t13 -15t0 -23t-19.5 -33.5zM681 294q3 -23 -8 -55t-30.5 -64.5t-44.5 -61.5t-51 -46q-38 -25 -73 -41t-73 -23q-16 -3 -33.5 -4t-34 1.5t-31 8t-24.5 16.5
q-11 12 -13 30.5t2 39t11.5 40.5t15.5 36q15 30 32 54t38 46t48 42.5t63 44.5q17 11 36.5 20t39 14.5t37 7t30.5 -3.5q18 -7 29 -14.5t17.5 -19t10 -28t6.5 -40.5zM393 712q-6 8 -21 7t-24 -6q-36 -22 -66 -54t-42 -67q-2 -6 -2 -14.5t3 -16t10 -11.5t19 0q26 8 52 23.5
t45 41.5q20 27 30.5 52t-4.5 45zM546 165q13 13 19 32.5t6 38.5t-7 33t-20 15q-9 1 -22 -3t-27.5 -10.5t-28.5 -16.5t-26 -21q-13 -12 -28.5 -30t-26.5 -36.5t-14 -35t9 -25.5q14 -10 33 -10.5t41.5 7.5t46 24t45.5 38z" />
    <glyph glyph-name="ampersand" unicode="&#x26;" horiz-adv-x="544" 
d="M537 427q0 -21 -7 -35.5t-27 -21.5q-19 -6 -41 -10.5t-44.5 -7t-43.5 -3.5t-39 0q-21 -37 -40 -68t-37 -71q-6 -13 -17.5 -24.5t-25 -20t-27 -13t-22.5 -3.5q-22 2 -39 15t-31.5 32.5t-28 42.5t-29.5 46q-9 14 -7.5 32.5t13.5 37.5t34.5 36t54.5 27q15 5 34 8t38.5 5.5
t37.5 4.5t30 5q9 11 17.5 29.5t17.5 39.5t19 42t23 37q9 11 21 11.5t24 -6t21 -19t12 -27.5q3 -16 -8 -34t-25 -50q12 0 19.5 1.5t16 3t21 3t36.5 2.5q7 0 15.5 -5t16 -12t12.5 -15.5t5 -14.5zM156 324l28 -62l35 68z" />
    <glyph glyph-name="quotesingle" unicode="'" horiz-adv-x="280" 
d="M420 723q-14 -15 -28.5 -22.5t-29 -16t-29.5 -21.5t-31 -38q-10 -16 -22.5 -37.5t-27.5 -41t-33.5 -33.5t-40.5 -16q-24 -2 -35.5 8.5t-13 27t5 34.5t18.5 31q22 26 39.5 51t36 49t39.5 47t49 44q20 16 42.5 26t46.5 0q20 -9 28.5 -21t8.5 -24.5t-6.5 -25t-16.5 -21.5z
" />
    <glyph glyph-name="parenleft" unicode="(" horiz-adv-x="326" 
d="M518 828q11 -10 2.5 -24t-25.5 -29.5t-37.5 -31t-32.5 -27.5q-139 -142 -197 -300t-50 -339q0 -11 5.5 -29t8.5 -37t0 -36t-19 -26q-13 -8 -23.5 -7t-20 6.5t-18 14t-16.5 17.5q-22 25 -30 65t-7 85t8 89.5t16 78.5q18 66 43 140.5t62 146t88.5 133.5t123.5 103
q14 8 30.5 14t32.5 7.5t31 -1.5t25 -13z" />
    <glyph glyph-name="parenright" unicode=")" horiz-adv-x="356" 
d="M390 742q17 -72 19 -155t-14 -166t-51 -160t-92 -137q-21 -22 -48.5 -49.5t-59 -52t-66.5 -42t-71 -19.5q-26 -1 -33.5 6t-6.5 24t8 31.5t17.5 26t23 21t22.5 16.5q118 85 178 189t70 233q3 39 0.5 76t-9 73t-15.5 72.5t-19 75.5q-3 11 7.5 26t27.5 17q31 5 50 -1t31 -20
t18.5 -35.5t12.5 -49.5z" />
    <glyph glyph-name="asterisk" unicode="*" horiz-adv-x="486" 
d="M572 740q6 -17 2 -34.5t-14.5 -32.5t-24 -26.5t-27.5 -17.5l-38.5 -16.5t-55.5 -24.5q19 -16 33.5 -37t21 -40.5t2 -34.5t-22.5 -20q-19 -4 -36 -2t-33 8.5t-32.5 15.5t-35.5 19q-20 -38 -34 -68t-22 -42q-6 -8 -15.5 -18t-20 -17.5t-20.5 -11t-16 0.5q-5 3 -12.5 11.5
t-12 20t-5 25.5t8.5 29q5 8 8.5 14.5t7 14t8 16.5t11.5 22q-19 -12 -33.5 -21.5t-27.5 -15t-26.5 -5.5t-30.5 7q-18 8 -21.5 23t2.5 32t19.5 32.5t30.5 24.5q20 9 46 23.5t55 31.5q-14 10 -29.5 21.5t-25.5 26.5t-10 35t16 47q12 20 31 22t39.5 -7.5t39 -27.5t29.5 -39
q16 29 31 58.5t26 51.5q9 17 31.5 24t42.5 3t30 -20t-5 -45q-5 -8 -13 -19.5t-20 -34.5q42 20 70 29q13 3 25.5 5.5t23 2t18 -4.5t11.5 -14z" />
    <glyph glyph-name="plus" unicode="+" horiz-adv-x="518" 
d="M494 401q-5 -23 -27 -32t-42 -13q-35 -7 -60 -10.5t-56 4.5q-12 -18 -18.5 -33.5t-12 -30.5t-11.5 -31t-18 -36q-8 -13 -17.5 -25t-19.5 -19t-19.5 -7t-18.5 11q-8 11 -10 28.5t0 34.5q2 20 8 42l30 66l-60 -4q-33 -6 -56 10t-31.5 39t0 45t38.5 27q14 3 35 1.5
t43.5 -3.5t42.5 -4.5t32 -1.5q10 11 14 32.5t8 46.5t10 49t20 39q10 11 27 8.5t33.5 -13t28.5 -26.5t12 -33q-1 -18 -11.5 -41.5t-27.5 -55.5q11 -2 18 -1.5t15.5 0.5t21 -0.5t33.5 -4.5q6 -1 14.5 -7.5t16 -15.5t12 -18.5t3.5 -16.5z" />
    <glyph glyph-name="comma" unicode="," horiz-adv-x="299" 
d="M147 186q14 -36 6 -72.5t-30 -70t-52 -63t-60 -51.5q-16 -12 -31 -22.5t-30.5 -15t-31.5 -1t-33 20.5q-15 15 -8 29.5t25 30t41 32.5t41 37t27.5 37.5t17 35t15.5 36t22 39.5q6 9 18 13.5t25 4t23.5 -5.5t14.5 -14z" />
    <glyph glyph-name="hyphen" unicode="-" horiz-adv-x="443" 
d="M450 410q-1 -20 -11.5 -31.5t-26.5 -18.5t-36.5 -10t-42.5 -4.5t-43 -4t-39 -7.5t-45 -15t-53 -14t-46.5 4t-25.5 39q-5 34 1.5 53t21.5 28.5t36.5 11.5t45 2t47 0.5t43.5 5.5q14 4 33 9t38.5 8.5t38.5 3.5t33.5 -5.5t23 -18.5t7.5 -36z" />
    <glyph glyph-name="period" unicode="." horiz-adv-x="247" 
d="M97 102q-1 -27 -5.5 -45.5t-27.5 -36.5q-16 -12 -29.5 -15t-25.5 1t-23 13.5t-22 21.5q-10 11 -12 30t4 38.5t20 36.5t36 24q23 8 39.5 4t27 -15t15 -26.5t3.5 -30.5z" />
    <glyph glyph-name="slash" unicode="/" horiz-adv-x="509" 
d="M725 728q-27 -23 -70.5 -61t-96 -84.5t-110.5 -97.5t-116 -101q-28 -24 -68 -63t-81.5 -80t-77.5 -78t-57 -58q-12 -12 -22 -27.5t-22.5 -31t-28 -30.5t-37.5 -26q-15 -8 -24.5 4.5t-11.5 34t2.5 47.5t18.5 46q27 40 51 69t46.5 53.5t45.5 46t49 45t56 51.5t66 65
q20 21 49.5 49t64 59.5t72 64.5t73 64.5t67.5 58.5t56 46q9 8 22.5 12t27 6t25.5 1t19 -4q9 -3 18.5 -8.5t13 -15t0 -23.5t-19.5 -34z" />
    <glyph glyph-name="zero" unicode="0" horiz-adv-x="777" 
d="M778 418q-21 -66 -59 -129t-90.5 -116t-120 -94.5t-148.5 -64.5q-33 -10 -76.5 -14t-86 -0.5t-78.5 16.5t-55 38q-19 26 -29 55.5t-13.5 61t-3.5 65.5v68q0 18 13.5 53t33 72.5t41.5 71.5t38 51q38 39 74 71.5t76.5 59t88.5 47t111 33.5q19 4 42 7.5t47.5 4t49 -4
t45.5 -16.5q42 -24 69 -60.5t39 -81t10 -94t-18 -100.5zM607 331q23 42 39 82t18 77.5t-12.5 72.5t-51.5 65q-16 13 -39 18t-47 4t-46.5 -6.5t-36.5 -13.5q-55 -32 -104 -73.5t-86 -89t-60.5 -99.5t-29.5 -105q-2 -19 6.5 -46t27.5 -49.5t49 -34t72 -0.5q44 12 88.5 30
t84.5 42t73 55.5t55 70.5z" />
    <glyph glyph-name="one" unicode="1" horiz-adv-x="346" 
d="M485 730q-11 -35 -38 -90t-62 -121t-74.5 -137.5t-76 -138t-66.5 -123t-46 -92.5q-8 -18 -21 -32t-27.5 -20.5t-28 -3.5t-21.5 21q-3 6 -5 18t-2 28t3 33t11 32q42 78 103 190t135 249q-7 -4 -15 -10t-17.5 -11.5t-22.5 -8.5t-31 -2q-8 1 -15 11.5t-11.5 24t-5 27.5
t3.5 22q8 15 18 25.5t22 19.5t25.5 18t26.5 21q18 15 32.5 27t27 24t24.5 26t24 33q7 11 21 16t30.5 4.5t33 -5.5t28.5 -15.5t17.5 -25.5t-0.5 -34z" />
    <glyph glyph-name="two" unicode="2" horiz-adv-x="659" 
d="M750 672q0 -60 -28 -103.5t-71.5 -78.5t-96.5 -65.5t-103 -66.5q-11 -8 -34 -23.5t-51.5 -34.5t-59.5 -40t-57 -40.5t-44.5 -35.5t-23.5 -26q57 -1 104 3t88 5.5t76 -3t68 -22.5q29 -16 43 -33.5t9.5 -32.5t-29 -24.5t-71.5 -10.5q-105 -2 -193.5 -12.5t-169.5 -39.5
q-18 -7 -33.5 -7.5t-27 6t-19 22.5t-11.5 42q-3 19 -1.5 40t7 42.5t15 41.5t22.5 36q10 12 37 33t63 47t77.5 54.5t81.5 55.5t75 50t57 37q42 28 77 53.5t54.5 47.5t19 39.5t-28.5 29.5q-52 22 -111 17.5t-122 -28.5q-35 -30 -61 -36t-41.5 3.5t-19.5 31t5 47.5
q14 41 57.5 65.5t98 36.5t110 12.5t92.5 -6.5q36 -7 67.5 -14t54.5 -20.5t36 -35.5t13 -59z" />
    <glyph glyph-name="three" unicode="3" horiz-adv-x="693" 
d="M792 732q-3 -17 -6.5 -33.5t-10.5 -32t-18.5 -30.5t-30.5 -28q-44 -29 -95.5 -62t-91.5 -75q18 -21 44 -47.5t44.5 -59t22.5 -70t-22 -80.5q-19 -32 -51.5 -61.5t-73 -55t-85.5 -46t-90 -35t-86.5 -22t-75.5 -6.5q-19 0 -41 1t-42 5.5t-36.5 15t-24.5 30.5q-6 15 -11 34
t-4 38.5t10 37t31 30.5q20 11 33 6t23.5 -17t21 -26t24.5 -20q18 -8 42.5 -8.5t50.5 4t53.5 13t51.5 18.5q66 26 99.5 54t46.5 51q11 20 4 42t-23 41t-35.5 31.5t-34.5 14.5q-19 2 -35.5 -2.5t-32.5 -12t-33.5 -15.5t-37.5 -14q-11 -3 -18.5 4.5t-11.5 20t-5.5 28t-0.5 28.5
q2 18 13.5 30.5t26.5 21t31 14.5t28 11q44 19 81 36.5t70 36t64.5 41t64.5 52.5q-17 12 -58 13.5t-86 -2.5t-83 -10t-50 -10q-11 -3 -24 -9.5t-26 -9.5t-26.5 -0.5t-26.5 16.5q-23 26 -28.5 47t0.5 36.5t21.5 25.5t33.5 14q24 5 64.5 10.5t82.5 10t77 6.5t49 1q13 -1 39 -2
t56 -3t61 -5.5t56 -11t39.5 -19.5t11.5 -30z" />
    <glyph glyph-name="four" unicode="4" horiz-adv-x="642" 
d="M774 714q-3 -26 -9.5 -40t-16.5 -25.5t-23 -24.5t-29 -37q-18 -26 -34 -54t-37 -62q16 -2 24 -8.5t12 -15t5.5 -18t2.5 -18.5q5 -24 -9.5 -36t-38 -20.5t-51 -17t-48.5 -23.5q-26 -40 -54.5 -86.5t-55.5 -99.5q-16 -31 -26.5 -63.5t-22 -54.5t-27.5 -27t-43 19
q-24 21 -29 42.5t1.5 44t19.5 45.5t25 46q14 28 25 43t21.5 28.5t23 30t29.5 47.5q-35 -1 -73.5 -2.5t-73 -5t-61 -9t-37.5 -15.5q-34 -30 -65 -35t-45 18q-7 11 -5 33t12.5 50t30 59.5t49.5 60.5l193 243q12 15 28.5 28.5t32.5 22.5t29.5 11.5t20.5 -4.5q20 -19 26 -36
t2.5 -32.5t-16.5 -30.5t-32 -32q-17 -15 -38 -36.5t-43.5 -48.5t-45 -59t-43.5 -67q30 6 57.5 7.5t56 2.5t60 4t68.5 13q29 40 54.5 91t50.5 98.5t51 83.5t57 45q16 5 29 -0.5t21 -16.5t12 -26t2 -30z" />
    <glyph glyph-name="five" unicode="5" horiz-adv-x="687" 
d="M745 670q-86 8 -169.5 3t-179.5 -28q-33 -31 -53 -61t-27 -54q102 14 179.5 -3t121 -57.5t49 -101t-36.5 -134.5q-39 -69 -80 -114t-86 -72t-94.5 -38.5t-105.5 -13.5q-41 -2 -84.5 6t-79 27t-59 50t-24.5 76q0 18 3 37.5t11 36.5t21.5 29.5t33.5 16.5q15 3 24.5 3
t14.5 -6t5.5 -19t-3.5 -37q-4 -21 1.5 -33.5t16 -21t24 -13.5t25.5 -11q26 -13 66 -16t85 8t90.5 39.5t82.5 78.5q27 36 16 71t-48.5 59t-97 32t-130.5 -11q-18 -5 -29.5 -12.5t-22 -11.5t-21.5 -2.5t-26 14.5q-9 8 -15 15.5t-8 17t0.5 22.5t9.5 32q11 27 22.5 45t24.5 35
t28 37t32 51q6 12 -2 25t-17 26q0 34 32 54.5t76.5 32t91.5 16t77 5.5q42 2 77 4.5t63.5 3.5t49.5 -2.5t33 -13.5q11 -9 19.5 -29.5t12 -41.5t-0.5 -36.5t-19 -14.5z" />
    <glyph glyph-name="six" unicode="6" horiz-adv-x="648" 
d="M688 733q-8 -25 -14 -49t-15 -46t-22.5 -42t-37.5 -37q-15 -11 -32 -4t-20 23q-4 23 -2.5 33t6 17t9 15.5t4.5 29.5q-53 -20 -106.5 -42.5t-106.5 -65.5q-20 -16 -43 -34.5t-46 -40t-44 -47t-36 -56.5q45 30 82.5 45t68 21t54.5 7.5t40 5.5q20 5 47.5 3t54.5 -9.5t50 -19
t34 -26.5q31 -42 24 -93t-52 -123q-19 -29 -48 -58.5t-63 -55t-70 -45.5t-69 -31q-43 -14 -86 -20.5t-82 -1.5t-72 22.5t-56 50.5q-33 48 -34.5 110t17.5 126.5t52.5 124.5t69.5 104q41 50 91.5 97.5t109.5 88t126.5 71.5t141.5 47q14 3 30 -4t28 -20.5t17.5 -32t-0.5 -38.5
zM481 232q10 14 14 30.5t0.5 31t-15 25.5t-32.5 14q-19 3 -59 -1t-85.5 -16t-90 -34.5t-74.5 -57.5v-18.5t3 -18.5q7 -26 24 -42.5t40 -24.5t51 -7.5t56 9.5q22 7 46 17.5t46.5 24.5t42.5 31t33 37z" />
    <glyph glyph-name="seven" unicode="7" horiz-adv-x="572" 
d="M645 591q-75 -65 -146 -131t-140 -138t-139 -151t-144 -169q-18 -23 -37.5 -19.5t-32 21.5t-14 43.5t16.5 47.5q62 77 123.5 145.5t126 134.5t134.5 133t148 140q-48 4 -87.5 0.5t-79 -10t-81.5 -14.5t-94 -12q-15 -2 -20.5 7.5t-4 24.5t9 33t18 34t23 27.5t24.5 12.5
q36 9 83 14t97.5 9t100.5 7t93 8q46 -3 71.5 -23t29 -49t-15.5 -62.5t-63 -63.5z" />
    <glyph glyph-name="eight" unicode="8" horiz-adv-x="698" 
d="M753 698q-1 -49 -12.5 -87.5t-34 -70t-56 -57.5t-77.5 -49q10 -16 24 -31.5t26.5 -34t21.5 -42.5t9 -59q0 -22 -13.5 -47.5t-35.5 -51.5t-49.5 -50.5t-56 -45.5t-55.5 -36.5t-48 -23.5q-55 -20 -110.5 -29t-106 -5.5t-92.5 21t-69 49.5q-18 22 -27.5 56.5t-8 70.5
t14.5 68.5t39 49.5q23 15 43 31.5t42 33.5t47.5 34t58.5 33q-28 25 -38.5 52.5t-7.5 56.5t18 59.5t38 61.5q21 28 55 56t72.5 51t77.5 39t69 19q36 4 78.5 2.5t79 -14.5t61 -39t23.5 -71zM619 643q5 36 -10 52t-41 17.5t-59 -7.5t-65 -23.5t-59 -31.5t-40 -30
q-16 -16 -25.5 -37t-10 -40.5t8 -34.5t28.5 -18q35 -5 70.5 -4t62.5 18q32 19 56.5 30t41.5 24t27.5 32t14.5 53zM514 258q-2 26 -23 47t-47 38q-15 10 -32.5 11t-36.5 -3t-38 -11.5t-37 -14.5q-13 -5 -35.5 -15t-47.5 -24.5t-49.5 -32.5t-41.5 -37.5t-23.5 -40t4.5 -40.5
q13 -22 41 -30t61 -7t65.5 7.5t54.5 13.5q24 7 56.5 21t62 33t49 41t17.5 44z" />
    <glyph glyph-name="nine" unicode="9" horiz-adv-x="603" 
d="M731 771q15 -12 23 -29t7.5 -35.5t-10.5 -38t-32 -36.5q-17 -13 -47 -48.5t-62.5 -77.5t-63 -84.5t-47.5 -69.5q-31 -48 -51.5 -82t-35 -60.5t-24.5 -48t-19.5 -44t-21 -49.5t-28.5 -65q-6 -13 -20 -23.5t-30.5 -12.5t-32 6t-24.5 33q-3 8 -1.5 23t5 32t8.5 34t10 29
q17 41 27 63.5t20 40t21.5 37t30.5 53.5q-43 -5 -71.5 -11t-50.5 -7.5t-42.5 4.5t-48.5 25q-27 20 -37.5 47t-9 57t11.5 60t24 54q20 36 53 71t75 66.5t91.5 59t102.5 48.5q52 20 99 24.5t85.5 -1t68 -18t47.5 -26.5zM598 676q-34 10 -76 9t-86.5 -13.5t-89 -37.5t-83.5 -63
q-14 -14 -25.5 -34.5t-15 -41t3.5 -38t29 -25.5q27 -10 48 -10t38.5 5t33 11.5t30.5 9.5q17 27 41.5 57t50.5 60t52.5 58.5t48.5 52.5z" />
    <glyph glyph-name="colon" unicode=":" horiz-adv-x="247" 
d="M273 431q-8 -16 -20.5 -25.5t-26.5 -14.5t-26.5 -6.5t-20.5 -0.5q-40 5 -49.5 21.5t-5.5 44.5q3 21 17 38t33.5 26.5t41 12t39.5 -5.5q16 -6 23 -17t8 -23.5t-3 -25.5t-10 -24zM97 102q-1 -27 -5.5 -45.5t-27.5 -36.5q-16 -12 -29.5 -15t-25.5 1t-23 13.5t-22 21.5
q-10 11 -12 30t4 38.5t20 36.5t36 24q23 8 39.5 4t27 -15t15 -26.5t3.5 -30.5z" />
    <glyph glyph-name="semicolon" unicode=";" horiz-adv-x="299" 
d="M283 441q-8 -16 -20.5 -25.5t-26.5 -14.5t-26.5 -6.5t-20.5 -0.5q-40 5 -49.5 21t-5.5 45q2 21 16 37.5t33.5 26.5t41.5 12.5t40 -5.5q16 -6 23 -17t8 -23.5t-3 -25.5t-10 -24zM147 186q14 -36 6 -72.5t-30 -70t-52 -63t-60 -51.5q-16 -12 -31 -22.5t-30.5 -15t-31.5 -1
t-33 20.5q-15 15 -8 29.5t25 30t41 32.5t41 37t27.5 37.5t17 35t15.5 36t22 39.5q6 9 18 13.5t25 4t23.5 -5.5t14.5 -14z" />
    <glyph glyph-name="less" unicode="&#x3c;" horiz-adv-x="386" 
d="M552 822q28 -8 29 -23.5t-15 -35t-43.5 -41t-57.5 -42.5q-51 -36 -98.5 -76.5t-87 -77.5t-68.5 -66t-42 -41q4 -41 18 -89t29 -97.5t27 -97t10 -88.5q-1 -15 -0.5 -32.5t-3 -34.5t-13 -32t-29.5 -25q-16 -8 -29.5 -5.5t-24.5 11.5t-18 22.5t-9 28.5q-5 34 -10.5 81.5
t-14.5 96.5t-22 93t-34 70q-10 12 -20.5 23.5t-18.5 22.5t-11 21t3 20q14 25 30.5 43.5t34.5 33.5t35 28t31 25q35 30 73.5 63.5t78 66t79 62t76.5 52.5q14 9 29 17.5t30.5 14.5t30 8.5t26.5 -0.5z" />
    <glyph glyph-name="equal" unicode="=" horiz-adv-x="489" 
d="M480 501q9 -21 1.5 -32t-25 -16.5t-42 -6.5t-50.5 -0.5t-50.5 0.5t-42.5 -4t-38.5 -11.5t-40 -9t-37 8.5t-30.5 41q-10 26 -4 41t23.5 23.5t42.5 11.5t52.5 3.5t54.5 1.5t47 5q22 4 43 4.5t39 -5t33 -19t24 -36.5zM437 332q8 -27 -0.5 -42.5t-24 -24t-33.5 -11t-30 -2.5
q-19 0 -37.5 3.5t-38.5 5.5t-44 2t-54 -8q-19 -4 -36 -8.5t-32 -5t-28 4t-24 16.5q-19 21 -12.5 38t25 29.5t42.5 19.5t40 8q32 3 62.5 9t59.5 10.5t58 6.5t58 -3q21 -4 31.5 -13.5t17.5 -34.5z" />
    <glyph glyph-name="greater" unicode="&#x3e;" horiz-adv-x="521" 
d="M506 404q-8 -11 -22 -19.5t-29 -17t-30 -18t-26 -22.5q-86 -62 -169 -142.5t-155 -176.5q-20 -26 -51.5 -35t-56.5 -3q-25 7 -24.5 35.5t34.5 66.5q70 78 166.5 169.5t214.5 194.5q-2 61 -15 113.5t-29.5 98t-33.5 85t-27 73.5q-7 25 8.5 40t38.5 20t45.5 0t29.5 -20
q7 -16 16.5 -41t20.5 -54t22.5 -60t21 -59t17 -50t10.5 -34q5 -22 15 -39.5t17 -34t6.5 -33.5t-15.5 -37z" />
    <glyph glyph-name="question" unicode="?" horiz-adv-x="698" 
d="M805 622q4 -37 -11 -69.5t-43 -59t-65.5 -48t-78.5 -38t-82 -27.5t-75 -17q-19 -3 -43 -8t-47.5 -16t-44 -29.5t-32.5 -49.5q-4 -10 -14 -18.5t-22 -12t-24 0t-21 16.5q-6 8 -10.5 23.5t-5 35t5 41.5t19.5 43q19 29 44 40t55 15.5t63.5 8t69.5 15.5q31 10 63.5 23
t62.5 27.5t54 30t37.5 31t13 30.5t-19.5 28q-26 18 -64.5 30t-81 13t-86.5 -11t-81 -42q-6 -5 -11.5 -15t-12.5 -20.5t-15.5 -18.5t-20.5 -9q-17 -1 -31.5 8t-24 23.5t-13.5 30.5t0 29q10 31 40.5 55t73.5 41t93 27.5t98 13t89.5 -2t67.5 -16.5q37 -17 60.5 -29.5t38 -27.5
t21.5 -37t11 -58zM245 50q-8 -16 -20.5 -25.5t-26.5 -14.5t-26.5 -6.5t-20.5 -0.5q-40 5 -49.5 21.5t-5.5 45.5q2 21 16 37.5t33.5 26.5t41.5 12.5t40 -5.5q16 -7 23 -17.5t8 -23.5t-3 -26t-10 -24z" />
    <glyph glyph-name="at" unicode="@" horiz-adv-x="777" 
d="M814 627q-4 -94 -17.5 -159t-36 -114t-55 -88.5t-75.5 -82.5q-14 -15 -35 -27t-41.5 -21t-36.5 -13t-21 -2q-20 10 -30 16t-15 11.5t-9 10.5t-12 14q-33 -8 -71.5 -11.5t-66.5 5.5q-24 9 -42.5 24.5t-28 37t-10 47t9.5 53.5q17 46 47.5 85.5t68.5 73t81.5 61t86.5 48.5
q27 13 54.5 11t47 -13.5t27 -30.5t-5.5 -39q-11 -18 -24.5 -52.5t-27.5 -73.5t-27.5 -78t-24.5 -66q8 -21 31 -6.5t51 55t53.5 102.5t37.5 138q6 37 -8 62t-34.5 40t-42 22t-31.5 7q-52 1 -108 -25t-108.5 -68.5t-98 -96.5t-75.5 -108q-11 -20 -20.5 -49t-15 -58.5t-5 -55
t9.5 -39.5q18 -27 42 -43t48 -22.5t46.5 -6.5t38.5 4q41 12 60.5 5.5t34.5 -34.5q14 -24 4 -39.5t-29 -25.5t-41 -15.5t-33 -7.5q-21 -4 -55 -7.5t-71.5 1t-74.5 20.5t-63 49q-25 32 -32.5 79.5t-1 101t27 110t51.5 106.5q40 63 88 115t102 94t112 74.5t116 56.5
q48 20 99 12.5t92.5 -32t68 -62.5t24.5 -80zM503 485q-12 1 -32 -10t-41.5 -28t-42 -39t-33.5 -45t-15 -44t12 -36q13 -14 35.5 -11t47.5 13q8 22 19 55t22 64t19 54.5t9 26.5z" />
    <glyph glyph-name="A" unicode="A" horiz-adv-x="688" 
d="M765 748q2 -22 -2.5 -48.5t-13 -54.5t-18 -55.5t-17.5 -50.5q-13 -40 -29 -90t-32.5 -102.5t-33.5 -103.5t-32 -94t-27 -74.5t-19 -44.5q-12 -13 -28 -19.5t-31.5 -8.5t-28 1t-16.5 10q-11 25 -11.5 43.5t4.5 35.5q5 18 15.5 33.5t20.5 32.5t17 37t5 47q-37 -5 -81 -15
t-89 -20.5t-87.5 -17.5t-76.5 -6q-26 -17 -42.5 -47t-30.5 -60t-29 -53.5t-39 -26.5q-22 2 -39 13q-14 9 -23.5 27t-2.5 50q2 9 10 22.5t19 30t24.5 34t25.5 33.5l11 56q16 32 36 43.5t43 16.5q36 28 76.5 70t83 89.5t87.5 97t91 93.5t93 79.5t93 54.5q21 9 42.5 5.5
t39 -13.5t29.5 -24t13 -26zM611 630q-30 -15 -62.5 -41t-64 -56.5t-61.5 -63t-55.5 -62t-45 -52.5t-30.5 -34l230 59q14 26 28 63t25.5 74t21 68t14.5 45z" />
    <glyph glyph-name="B" unicode="B" horiz-adv-x="674" 
d="M713 670q-8 -47 -19 -78t-33 -58t-59.5 -56.5t-99.5 -74.5q21 -29 42.5 -57.5t32.5 -58t8 -61t-32 -67.5q-32 -40 -86.5 -70t-118.5 -52.5t-131 -39t-126 -29.5q-18 -4 -37.5 0t-37 14t-30.5 26.5t-18 38.5q-8 33 1.5 63.5t35.5 67.5q45 65 77 126.5t60 122.5t56.5 122.5
t65.5 127.5q-16 32 -6.5 53t34.5 35t60.5 21t71.5 10t68.5 4t51.5 2q50 2 84 -8.5t54 -29.5t27.5 -43.5t3.5 -50.5zM575 627q8 26 -7.5 38.5t-44.5 14t-65.5 -6.5t-69.5 -24q-27 -38 -55.5 -87t-51.5 -106q42 8 91 27.5t91.5 44t73.5 51t38 48.5zM440 241q8 20 3.5 35.5
t-15.5 28.5t-25.5 23.5t-26.5 19.5q-17 -4 -39.5 -11t-46 -13.5t-46.5 -12t-43 -6.5l-104 -208q48 5 96 21t94 31q65 21 104.5 45t48.5 47z" />
    <glyph glyph-name="C" unicode="C" horiz-adv-x="657" 
d="M769 656q-11 -31 -26 -57t-32.5 -42t-36.5 -18t-37 14q-14 13 -13 30t6 34t10 31.5t-1 21.5q-16 19 -48 12t-73 -30.5t-86.5 -59t-88.5 -75.5t-79.5 -79t-58.5 -70q-25 -34 -33.5 -77t-0.5 -76q13 -50 43 -73.5t69.5 -28t84 5t85.5 25.5q19 7 36 15.5t32.5 13t29.5 3.5
t26 -13q7 -6 4 -21t-11.5 -31t-20 -30t-21.5 -20q-67 -41 -137.5 -57.5t-134 -10.5t-114.5 35t-78 79q-41 77 -30 167.5t80 174.5q29 35 66.5 73.5t80 77t89 74t92 64t89.5 48t82 25.5q47 7 82 -2t56 -30.5t26 -53t-8 -69.5z" />
    <glyph glyph-name="D" unicode="D" horiz-adv-x="645" 
d="M667 639q11 -38 12.5 -87t-6.5 -101.5t-24.5 -106t-42 -101.5t-59.5 -87.5t-77 -64.5q-55 -33 -109.5 -58.5t-105 -39.5t-97 -15.5t-86.5 13.5q-41 15 -57.5 34t-15 45t16 60t35.5 80q26 58 60.5 122.5t70.5 129t69 126.5t56 115q-15 19 -11 39.5t20.5 36.5t43 25t58.5 4
q59 -9 100.5 -21t70.5 -31t47.5 -47.5t30.5 -69.5zM519 333q20 43 31 94t5.5 97.5t-32.5 82t-83 48.5q-34 -40 -59 -78t-47 -78t-45.5 -84.5t-54.5 -97.5q-8 -13 -19 -39t-23 -55t-23.5 -57t-19.5 -45q62 4 120 20.5t106.5 44.5t86 65t57.5 82z" />
    <glyph glyph-name="E" unicode="E" horiz-adv-x="639" 
d="M776 794q14 -6 16 -25.5t-3.5 -40t-17 -36.5t-26.5 -16q-55 3 -91 5.5t-66 1t-60 -8t-74 -21.5q-12 -16 -30.5 -37t-38 -43.5t-37.5 -44t-30 -38.5q49 3 81 8t61.5 11t63.5 12.5t86 12.5q32 3 54.5 -14t29 -40t-6.5 -44t-51 -26q-63 -9 -108 -16t-87.5 -13.5t-90 -13
t-115.5 -13.5q-8 -15 -25.5 -41.5t-31.5 -55.5t-18.5 -56.5t14.5 -45.5q25 -24 57.5 -25.5t67 7.5t67.5 24.5t59 26.5q15 6 31 10.5t31 4.5t26.5 -6.5t17.5 -23.5q5 -14 2 -28.5t-10.5 -27.5t-18.5 -24t-23 -18q-23 -13 -52.5 -28.5t-61 -29t-62 -22.5t-54.5 -8q-40 1 -77 9
t-68 23t-54.5 39.5t-37.5 58.5q-11 27 -7.5 60t16.5 68t32.5 71t40.5 70t41 64t33 53q14 24 27 43.5t27.5 38t29.5 37t33 40.5q8 10 1.5 18.5t-12.5 25.5q-8 21 3 35.5t33.5 25t53 17.5t62 11t60.5 7t48 5q40 5 77 6.5t68 -0.5t55.5 -7t39.5 -12z" />
    <glyph glyph-name="F" unicode="F" horiz-adv-x="627" 
d="M768 687q-60 -4 -105.5 -1.5t-83.5 2.5t-74 -6.5t-77 -29.5l-107 -172q40 1 68.5 6.5t57 12t64.5 12.5t91 9q24 1 38 -16t18 -38.5t-2.5 -41.5t-25.5 -24q-53 -11 -102.5 -18.5t-98 -15t-96.5 -15.5t-98 -21q-19 -28 -44 -65.5t-46.5 -75t-36 -70.5t-14.5 -53
q0 -19 -8.5 -36t-23.5 -28.5t-34 -16t-39 2.5q-19 6 -26.5 17.5t-8 26.5t3 31.5t7.5 31.5t15.5 37t27 47.5t33.5 52.5t33 52.5t26 47.5t14 36q2 11 -1 20t-5.5 17.5t-2 17t9.5 18.5q21 23 31.5 33t18 14t15.5 5.5t24 8.5l86 153l-24 3q-21 14 -28 30.5t-4.5 32.5t13.5 31
t26 27q36 0 80.5 10t102.5 17.5t131.5 6t167.5 -25.5q20 -5 30 -21t11 -33t-6.5 -31t-21.5 -15z" />
    <glyph glyph-name="G" unicode="G" horiz-adv-x="758" 
d="M809 715q-10 -24 -19.5 -50.5t-21.5 -51.5t-29 -45.5t-42 -31.5q-16 -7 -32 5t-18 29q-2 25 2 38.5t10 23.5t12.5 21t8.5 32q-54 -5 -117.5 -21t-120.5 -46q-23 -13 -55 -36t-66 -54t-66.5 -68t-57 -76t-37 -78.5t-6.5 -76.5q5 -29 20 -51t37 -36t49 -20.5t56 -5.5
q23 2 54.5 11.5t63 24.5t59.5 32.5t43 34.5q11 12 19 24.5t9.5 24.5t-5 23t-25.5 19q-19 9 -45 9t-52.5 -2.5t-51.5 -6t-43 -2t-26 10.5t-2 31q9 30 33 49.5t54.5 30.5t63.5 14.5t60 2.5q20 -1 44 -6t46.5 -14t41 -22.5t27.5 -31.5q27 -51 15 -103t-63 -114
q-21 -25 -59.5 -53t-82.5 -52t-88.5 -40.5t-77.5 -18.5q-44 -3 -87.5 1.5t-81.5 20t-69 42.5t-51 67q-19 39 -18.5 85t15 94t39.5 96t54.5 91t61 79t57.5 60q45 41 104 76.5t125 62.5t134.5 44t132.5 22q14 1 29 -10.5t26 -29t14.5 -38.5t-4.5 -40z" />
    <glyph glyph-name="H" unicode="H" horiz-adv-x="635" 
d="M841 761q0 -26 -9 -43t-23 -31t-30 -28.5t-30 -35.5q-10 -16 -27 -46.5t-36.5 -65.5t-39.5 -69.5t-35 -58.5q-20 -32 -35.5 -53.5t-29.5 -42.5t-28 -46.5t-31 -65.5q-12 -28 -19.5 -65t-18 -67t-28.5 -44.5t-52 1.5q-32 15 -42 36t-7.5 43.5t13.5 46t20 44.5q11 26 21 42
t21 31t23 32.5t26 45.5q-38 -9 -68 -15.5t-55.5 -11t-48 -7.5t-45.5 -4q-18 -19 -33.5 -46t-30.5 -56.5t-28.5 -58.5t-26.5 -52q-7 -12 -11.5 -28t-10 -30t-13 -24.5t-19.5 -12.5q-33 -6 -52 2.5t-28 25t-9 39t4 44.5q10 27 25.5 55.5t33 57.5t34 57t29.5 54q-14 8 -13 25
t11 35.5t27 34.5t35 22l182 305q8 14 21.5 24t27.5 15.5t28 6.5t24 -2q43 -13 50.5 -29.5t-2.5 -34t-27.5 -34.5t-24.5 -31l-118 -214q30 0 53.5 6t47.5 14t51.5 15t63.5 9q17 23 34.5 55.5t36.5 68.5t40 72.5t43.5 66t47.5 49.5t52 23q31 4 45 -8t14 -43z" />
    <glyph glyph-name="I" unicode="I" horiz-adv-x="581" 
d="M759 762q0 -30 -21 -48.5t-50 -29t-60 -14t-51 -3.5q-11 0 -20.5 -0.5t-18.5 -0.5q-18 -47 -50 -111.5t-69 -134t-76 -139.5t-71 -127q15 1 31 1h36h28.5t27.5 -3t21 -11.5t8 -25.5q0 -39 -23.5 -55.5t-62.5 -20.5q-35 -3 -69 -9t-69 -12t-70.5 -10t-73.5 -4
q-42 0 -72 18.5t-30 57.5q0 38 22.5 50.5t58.5 12.5q23 0 45.5 -3t45.5 -1q26 47 60.5 107.5t72.5 128t77 138.5t73 138q-15 -3 -29.5 -5t-28.5 -2q-18 0 -36 8t-31.5 21t-22 29.5t-8.5 33.5q0 21 20.5 29.5t47.5 10t54 -0.5t39 -1q69 6 139.5 11t136.5 5q11 0 23 -0.5
t22.5 -3.5t17 -8.5t6.5 -15.5z" />
    <glyph glyph-name="J" unicode="J" horiz-adv-x="662" 
d="M805 736q-23 -34 -45 -66t-40 -67q-13 -25 -29 -60.5t-34 -77t-37.5 -85t-39 -84.5t-38.5 -76t-36 -60q-54 -77 -129.5 -120.5t-169.5 -40.5q-44 2 -83 13t-68.5 31t-45.5 50.5t-14 71.5q1 20 5.5 45.5t12.5 50t21 45.5t31 31q21 13 43.5 19.5t38 4.5t21.5 -14t-5 -38
q-8 -19 -19.5 -48t-17.5 -57.5t-1 -50.5t30 -27q45 -9 85 0t74 29.5t60 49t42 58.5q51 95 86 168t62.5 134t53.5 114t60 107q9 15 24.5 20t32 3.5t32.5 -9.5t26.5 -18.5t14.5 -22.5t-4 -23z" />
    <glyph glyph-name="K" unicode="K" horiz-adv-x="649" 
d="M824 662q-34 -20 -76 -45t-86 -51.5t-88.5 -52.5t-85 -49t-74 -40.5t-56.5 -26.5q14 -24 26.5 -48t27.5 -51.5t33 -61t42 -75.5q7 -13 22.5 -30t25.5 -35.5t6.5 -36t-34.5 -31.5q-15 -6 -28.5 -4.5t-25.5 7.5t-23 15t-20 17q-20 18 -38.5 39t-36.5 46.5t-35.5 56
t-36.5 69.5q-12 15 -16.5 29.5t-21.5 25.5q-19 -22 -36 -59.5t-31 -76.5t-23 -73t-12 -50q-2 -15 -11.5 -31t-22.5 -28.5t-26.5 -18t-24.5 2.5q-36 24 -39.5 57t10.5 75q32 93 69.5 166t77.5 145t82 151.5t82 184.5q6 16 19 22t28 4t30 -10.5t25 -22t13 -30.5t-6 -35
l-84 -171q32 10 71 29.5t80.5 44t84.5 51.5t84.5 52.5t80 47.5t71.5 35q26 11 38 1.5t12 -30t-11 -48t-32 -52.5z" />
    <glyph glyph-name="L" unicode="L" horiz-adv-x="542" 
d="M470 201q6 -12 3.5 -24t-10.5 -23.5t-19 -22t-21 -19.5q-32 -28 -75 -44.5t-81 -27.5q-18 -5 -44 -14t-54.5 -17.5t-58 -13.5t-54.5 -2q-25 13 -40 36.5t-21.5 52.5t-6 60t4.5 59q35 55 77.5 127.5t89.5 150t97 155t100 141.5q15 19 36 16.5t37 -17.5t22 -38t-9 -45
q-22 -32 -50 -75.5t-59 -93t-62 -102t-59 -102.5t-50.5 -94.5t-36.5 -77.5q27 -6 60 1t67 18.5t67.5 23.5t62.5 17q12 2 25 5t25 4t22 -2t15 -12z" />
    <glyph glyph-name="M" unicode="M" horiz-adv-x="791" 
d="M935 712q-35 -87 -80 -175t-94 -175t-100 -173t-98 -169q-10 -18 -24 -18t-22 6q-32 26 -37.5 54.5t11.5 66.5q12 27 33.5 59.5t44.5 65.5t42.5 64t27.5 54q-18 -13 -45 -41t-57.5 -60.5t-60 -63.5t-52.5 -50q-25 -21 -55 -29t-61 -4q-20 2 -30.5 12t-15 23.5t-4 29
t3.5 30.5q2 7 4 23.5t6 38.5t9.5 47.5t13.5 49.5q-33 -37 -66.5 -90.5t-64.5 -106.5t-57.5 -99.5t-45.5 -70.5q-16 -21 -34.5 -16.5t-32 22t-18 41.5t9.5 43q43 72 97.5 159t112.5 178t116 179.5t108 162.5q14 21 33.5 20.5t36.5 -13t27 -32.5t5 -39q-18 -60 -39.5 -114.5
t-42 -108t-36.5 -108.5t-23 -116q33 25 67.5 61t68.5 77t67 85.5t63.5 85.5t57.5 77t49 61q12 14 24 27t26.5 24t32.5 19t43 11q22 2 34 -6.5t17 -22.5t5.5 -29.5t-1.5 -26.5z" />
    <glyph glyph-name="N" unicode="N" horiz-adv-x="643" 
d="M771 808q38 -11 26.5 -53t-73.5 -134q-9 -13 -28.5 -52t-45 -91t-54 -111.5t-54.5 -113t-46 -94.5t-30 -58q-12 -21 -24 -40t-25.5 -34.5t-30 -26t-38.5 -14.5q-37 5 -55 24t-22 48q-3 24 -3.5 64.5t0 85t0 86.5t-3.5 69q-41 -52 -69 -97.5t-47.5 -85.5t-32.5 -75.5
t-24 -67.5q-3 -9 -9.5 -18t-15.5 -15.5t-19.5 -10t-22.5 -0.5q-29 6 -42 18.5t-15.5 29t4 36t17.5 38.5q8 14 30 54t50.5 93.5t60.5 113t60 112t48 90.5t24 49q12 29 24 54t25.5 45t31 34t40.5 20q49 12 69 -4.5t13 -48.5q-10 -46 -29 -109t-34 -131t-20.5 -135t12.5 -120
q33 42 66 106t67 135.5t68.5 143.5t70.5 130q22 34 45.5 53t60.5 8z" />
    <glyph glyph-name="O" unicode="O" horiz-adv-x="846" 
d="M836 708q37 -25 50.5 -62t10 -81.5t-20 -92t-40 -94t-51 -87.5t-52.5 -72q-69 -85 -147.5 -140.5t-180.5 -78.5q-36 -8 -80 -5t-86.5 16t-78.5 34.5t-56 50.5q-36 54 -45 105.5t1 104t37 106t63 111.5q42 66 101.5 114.5t127 80.5t139 50t139.5 23q26 2 45.5 -4t38 -17.5
t38.5 -27.5t47 -34zM732 601q-30 38 -74 48.5t-93.5 0t-101 -38.5t-98.5 -66q-24 -20 -51.5 -47.5t-51.5 -59t-43.5 -65.5t-28 -68t-4 -66.5t26.5 -59.5q21 -25 58 -34t80.5 -5t88.5 20t82 41q59 40 106 98.5t76.5 117.5t38 109.5t-10.5 74.5z" />
    <glyph glyph-name="P" unicode="P" horiz-adv-x="673" 
d="M750 735q13 -19 19 -53t0.5 -76t-24.5 -88.5t-56 -90.5q-104 -122 -233.5 -163.5t-288.5 -15.5q-10 -17 -23.5 -36.5t-26.5 -41t-23.5 -45t-14.5 -47.5q-5 -32 -21.5 -56t-37.5 -35.5t-43 -7.5t-37 29q-5 8 -4.5 18t4 20.5t8.5 21t10 20.5q17 36 41 83t51 99t55.5 107
t55.5 107t50.5 99.5t40.5 84.5q-23 8 -24 26t10 37.5t30 35t35 17.5q21 3 37 6t36.5 6.5t49.5 7.5t76 7q97 7 158.5 -13t89.5 -63zM601 518q8 11 16.5 27.5t13.5 35t5.5 37.5t-7.5 34t-26 24t-50 8q-42 -1 -66.5 -3.5t-39.5 -6t-26 -7t-28 -8.5q-19 -28 -42 -65t-44.5 -75
t-39 -74.5t-24.5 -64.5q62 -7 112 -4t92.5 18.5t80 45.5t73.5 78z" />
    <glyph glyph-name="Q" unicode="Q" horiz-adv-x="831" 
d="M831 611q4 -64 -16 -138.5t-58 -146.5t-91 -134.5t-116 -104.5q4 -21 8 -41t8 -36q3 -14 11.5 -29t2.5 -35q-3 -9 -12 -20.5t-21.5 -21t-27 -15.5t-26.5 -4q-29 5 -39.5 23.5t-12.5 42.5q-2 19 -3.5 37.5t-3.5 36.5l-22 -8t-22 -7q-28 -9 -65 -14t-77.5 -2.5t-81.5 14.5
t-78 38q-23 16 -37 43.5t-19.5 60.5t-3.5 70.5t10.5 74.5t23 72t33.5 63q49 72 102 138t120.5 116.5t153.5 80.5t201 29q39 0 67.5 -14.5t48 -39.5t30 -58.5t13.5 -70.5zM692 621q0 9 -8 16t-19 12t-24.5 8.5t-24.5 4.5q-50 4 -104 -13t-105 -49.5t-96.5 -78t-79.5 -97
t-54 -107.5t-19 -110q5 -27 18.5 -41.5t25.5 -19.5q22 -10 53 -11.5t63 2.5t60.5 12t46.5 17q-1 12 -4 27t-5.5 30t-5 29t-2.5 24q0 15 6.5 32t18 30.5t27.5 21t34 4.5q14 -3 24 -14t16.5 -27.5t10 -35t4.5 -36.5q33 36 60.5 80t46.5 92t28.5 98.5t7.5 99.5z" />
    <glyph glyph-name="R" unicode="R" horiz-adv-x="754" 
d="M859 632q-4 -60 -36.5 -105.5t-80.5 -80t-105.5 -60.5t-111.5 -47q-18 -7 -39 -15t-40 -17.5t-35 -20t-24 -23.5q-12 -19 -3 -47.5t26 -75.5q9 -24 31.5 -35.5t45.5 -21.5t39.5 -23.5t13.5 -41.5q-3 -21 -16.5 -31.5t-33 -13.5t-43 0t-46.5 9q-32 8 -62 31t-52.5 55.5
t-36 72t-12.5 80.5q0 20 4 38.5t4 41.5q-15 -10 -31.5 -34.5t-31.5 -52.5t-27.5 -54t-20.5 -41q-12 -21 -18 -41.5t-13.5 -38t-18.5 -30t-33 -16.5q-25 -5 -44 4t-29.5 25t-12.5 37t7 40q11 26 32 65t44.5 80.5t45 81t33.5 65.5q21 47 41.5 83.5t40.5 70.5t40 69.5t40 79.5
q17 36 53.5 57.5t89 31.5t118.5 11t141 -3q81 -5 126.5 -45t40.5 -114zM676 657q-30 9 -63 7.5t-67.5 -8t-69.5 -15.5t-69 -14q-27 -45 -46 -72t-33.5 -51t-27 -53.5t-28.5 -79.5q16 15 44 26.5t62.5 22t72.5 20.5t74 22q30 10 59.5 26.5t53 36t41 40t24 39t1 32.5t-27.5 21
z" />
    <glyph glyph-name="S" unicode="S" horiz-adv-x="720" 
d="M770 735q0 -33 -11 -55.5t-27 -32t-34 -4t-33 27.5q-6 9 -24.5 10.5t-45 -3t-58 -14t-62 -23t-57.5 -30t-46 -35.5q28 -17 67.5 -44.5t80 -62.5t75.5 -76t53.5 -85.5t15 -90t-41.5 -90.5q-46 -55 -96.5 -86t-102.5 -44t-105.5 -10.5t-106.5 14.5q-39 9 -73.5 28t-60 46.5
t-39.5 64t-11 80.5q2 18 11 36t23.5 32t33 24.5t37.5 13.5q28 5 39 -2.5t11.5 -20.5t-6 -29t-14.5 -28q-11 -17 -9.5 -30.5t9.5 -24.5t20 -20.5t23 -18.5q24 -19 59.5 -32t76.5 -13t84 16.5t82 57.5q24 26 25 53t-14 54.5t-43.5 53.5t-62.5 49t-70.5 41.5t-68.5 31.5
t-50.5 28t-24.5 34.5t-1.5 44.5t19.5 56q11 24 39.5 46.5t68 43t86.5 38t94.5 31t92.5 23.5t81 14q16 2 32 -3.5t29.5 -17.5t22 -29t8.5 -38z" />
    <glyph glyph-name="T" unicode="T" horiz-adv-x="621" 
d="M830 799q20 -5 20 -22t-11.5 -36t-29.5 -34t-34 -17q-56 -7 -110 -24t-92 -38q-35 -52 -73.5 -129.5t-75.5 -161t-71.5 -163.5t-61.5 -137q-11 -22 -27 -38t-32 -23q-19 -9 -34 -1t-25 25.5t-14.5 39.5t-1.5 40q5 33 30 86.5t63 122t84 148.5t92 166q-30 0 -62.5 -5
t-62.5 -4.5t-55.5 12t-40.5 45.5q-7 15 -8 32.5t5 31.5t18.5 22t32.5 6q56 -7 107.5 -1.5t100 15.5t95 23t92 21t91 9.5t91.5 -11.5z" />
    <glyph glyph-name="U" unicode="U" horiz-adv-x="660" 
d="M776 688q-5 -18 -20 -51.5t-34.5 -74.5t-42 -86t-44.5 -86t-41 -74.5t-32 -51.5q-48 -69 -87 -120.5t-79.5 -86.5t-87 -53t-110.5 -19q-31 -1 -57.5 12t-46.5 34t-33 47t-18 50q-9 45 0 101.5t30 117t52 122.5t66.5 118.5t74 104.5t73.5 81q14 13 29.5 14.5t28.5 -5
t21.5 -20.5t8.5 -32q1 -29 -8 -56t-29 -50q-28 -31 -59.5 -72.5t-60.5 -87.5t-52 -94t-35.5 -91.5t-11 -80.5t21.5 -61q47 -55 132 23.5t194 280.5q6 12 17 33.5t24.5 49t28 57.5t27.5 58.5t23 53t15 40.5q6 18 15.5 33.5t21 25.5t24.5 13.5t26 -1.5q21 -8 31 -22t12.5 -30
t-0.5 -33t-8 -31z" />
    <glyph glyph-name="V" unicode="V" horiz-adv-x="615" 
d="M796 738q-10 -20 -42 -58t-75.5 -87.5t-95 -107t-102.5 -116.5q-44 -51 -77.5 -98t-67.5 -91.5t-73 -86t-95 -82.5q-8 -6 -23.5 -5.5t-30.5 5t-26.5 12.5t-11.5 17q0 56 11 132t30 163t45 180.5t56 184.5q10 29 25 56.5t41 39.5q14 7 27.5 2t23 -18t13 -31t-2.5 -37
q-4 -11 -5.5 -21.5t-7.5 -25.5q-24 -60 -44.5 -125.5t-36 -123t-23.5 -101.5t-7 -61q23 14 55.5 49t70 81.5t78.5 101t82 106.5t80 98t72 76q13 12 29.5 24t33.5 21t34 12t32 -3t19.5 -16.5t3.5 -22t-6 -23t-9 -20.5z" />
    <glyph glyph-name="W" unicode="W" horiz-adv-x="960" 
d="M1067 691q-8 -20 -23.5 -50.5t-35 -65.5t-41.5 -72.5t-43 -72t-39 -63.5t-29 -48q-33 -54 -61.5 -97.5t-55 -78.5t-50.5 -64t-47 -53q-21 -22 -54.5 -28.5t-65 2t-55.5 31.5t-27 58l-6 171q-15 -18 -39.5 -45.5t-54.5 -58.5t-63.5 -61.5t-67.5 -54.5t-66.5 -39.5
t-60.5 -14.5q-15 0 -27 10.5t-21 26.5t-15 35.5t-8 38.5q-3 19 11 61t36 95.5t49.5 112.5t53 111t45.5 90.5t27 51.5q15 29 29.5 58t29 54t30 44t31.5 27q11 6 27.5 7t32.5 -4.5t28 -19t12 -37.5q0 -15 -10.5 -33.5t-26 -40.5t-33 -47t-31.5 -53q-11 -22 -27.5 -53.5
t-34.5 -67.5t-36 -75.5t-33.5 -77t-26.5 -71.5t-15 -60q26 8 57 34.5t65.5 65t70.5 87t72 101t70.5 107t65.5 104.5q14 23 35.5 23t38.5 -13.5t25 -36t-4 -45.5q-40 -78 -69 -146.5t-42 -125.5t-9 -100t28 -70q32 28 64 70.5t63.5 93t61.5 105t58 106.5t53.5 97.5t47.5 77.5
q11 15 20.5 34.5t20.5 37t24.5 28.5t31.5 10q22 -1 33 -14.5t14.5 -32t0.5 -39.5t-9 -37z" />
    <glyph glyph-name="X" unicode="X" horiz-adv-x="723" 
d="M485 417q10 -35 25 -76.5t29 -84.5t23.5 -85t7.5 -80q-2 -33 -12.5 -62.5t-39.5 -46.5q-6 -4 -15.5 -1t-14.5 8l-113 325q-27 -18 -66.5 -49.5t-79 -66.5t-74.5 -67t-53 -50q-10 -10 -18.5 -24t-18.5 -27.5t-23.5 -26t-34.5 -20.5q-14 -5 -23.5 5.5t-13 28.5t-0.5 40
t14 40q33 54 73 95t84 79t89.5 78t88.5 91q-9 26 -22.5 59.5t-27.5 67.5t-26 65t-20 51q-3 7 -6.5 14.5t-6 15.5t-2.5 16t5 15q17 23 32.5 33t29 11t24.5 -6t20 -18q11 -14 26 -39.5t30 -56.5t29 -64.5t23 -65.5q26 23 66 56.5t84 69.5t87.5 69.5t76.5 56.5q9 6 19.5 12
t21.5 10.5t21 5.5t18 -3q10 -6 20.5 -13t16 -17.5t4.5 -24t-15 -31.5z" />
    <glyph glyph-name="Y" unicode="Y" horiz-adv-x="572" 
d="M754 723q-49 -48 -106 -101.5t-115.5 -111t-116.5 -118t-110 -122t-95 -124t-72 -123.5q-10 -21 -23 -31.5t-26 -12t-24.5 5.5t-19.5 21q-18 31 -13 60.5t16 56.5q10 22 32.5 53t51 66.5t58 72t52.5 69.5q-2 9 -10.5 18t-18 19t-19 22.5t-14.5 27.5q-7 22 -11.5 43.5
t-3.5 45.5t7 52t19 61q5 12 18 33.5t29.5 42.5t35 37.5t33.5 17.5q24 2 40.5 -3t25.5 -14t10 -20.5t-8 -22.5q-61 -76 -73 -142.5t38 -115.5q43 41 82 77.5t77.5 74t77 78.5t80.5 91q15 18 38 13.5t41.5 -21t25.5 -38.5t-9 -38z" />
    <glyph glyph-name="Z" unicode="Z" horiz-adv-x="712" 
d="M815 756q17 -32 15.5 -59.5t-14 -50.5t-33.5 -42t-44 -33q-40 -24 -89.5 -59.5t-102.5 -76t-106.5 -82.5t-99.5 -80.5t-82.5 -69t-56.5 -48.5q57 -7 106.5 2t94 19.5t85.5 15.5t81 -10q36 -13 49.5 -31.5t5 -36t-38.5 -31.5t-81 -19q-57 -6 -99 -10t-83.5 -10.5
t-89 -16.5t-113.5 -27q-38 -10 -62.5 12.5t-29.5 76.5q-1 20 4.5 42t16 43.5t25 40t30.5 29.5q50 36 114.5 84.5t132.5 98.5t132.5 97.5t112.5 81.5l71 59q-42 6 -79 0t-72 -16.5t-68.5 -20t-68.5 -10.5q-23 -1 -40.5 2t-31.5 27q-7 12 -9 27.5t2 31t13.5 29.5t25.5 23
q84 20 175 30.5t185 8.5h33.5t32.5 -3t29 -11.5t22 -26.5z" />
    <glyph glyph-name="bracketleft" unicode="[" horiz-adv-x="446" 
d="M608 713q-17 4 -40 4.5t-46 0t-44 -1.5t-34 0q-14 -36 -36 -86.5t-49 -108t-56.5 -118.5t-58 -118.5t-53.5 -108t-44 -87.5h19h18t23 -1t32 -2q32 -2 54.5 -20.5t30 -39.5t-4.5 -37.5t-51 -16.5q-88 1 -147 -7t-106 -13q-16 -2 -28.5 6.5t-19 22.5t-6 32t10.5 36
q11 19 23 34t24.5 30.5t25.5 35t28 47.5q27 51 54.5 103.5t57 109.5t60 121.5t62.5 139.5q14 33 12 59t-3 43q-2 39 27 55t89 19q42 2 70.5 4t48 1.5t32.5 -4.5t25 -14q10 -9 16.5 -30t7.5 -42t-4.5 -36t-19.5 -12z" />
    <glyph glyph-name="backslash" unicode="\" horiz-adv-x="488" 
d="M426 86q1 -18 0 -37.5t-6.5 -36.5t-16 -30t-28.5 -20q-20 -8 -32.5 7t-19 36.5t-9.5 42t-3 24.5q-7 48 -8.5 114.5t-8.5 154.5q-1 18 -4.5 50.5t-8 72t-9 81.5t-8.5 80t-7.5 68t-4.5 44q-2 14 -5 31.5t11 32.5q23 25 39.5 34.5t28 9t19 -9.5t11.5 -21t8 -39.5t8 -63.5
t8 -77t8 -81t7 -76t5 -61q8 -75 14.5 -157t11.5 -173z" />
    <glyph glyph-name="bracketright" unicode="]" horiz-adv-x="551" 
d="M640 811q-4 -13 -12 -24.5t-17.5 -22.5t-18.5 -21.5t-15 -22.5q-18 -36 -42.5 -88t-51.5 -111.5t-55.5 -123.5t-55.5 -124.5t-52 -112.5t-44 -89q-6 -12 -7 -37t-7 -49t-23 -42t-56 -17q-38 1 -75 7.5t-73 9.5q-30 3 -49 25t-27 59q-5 20 5 27t28 8.5t42 0t48 1.5
q6 0 14 -1t16.5 -2t16.5 -2t12 0l41 82l52 104t58 118t60 123.5t58 120.5t51 109q-12 -1 -22 -0.5t-20.5 2t-22.5 1.5t-26 -3q-26 -6 -41 1t-23 19.5t-10.5 26.5t-4.5 22q-6 23 7 37t36.5 21t55.5 9t64.5 1.5t62 -2t49.5 -1.5q12 0 26.5 -0.5t26.5 -4.5t18.5 -12t2.5 -22z
" />
    <glyph glyph-name="asciicircum" unicode="^" horiz-adv-x="591" 
d="M826 710q-36 -53 -92 -21q-32 20 -62 43.5t-68 58.5q-51 -21 -101.5 -55.5t-99.5 -61.5q-30 -16 -48 -7t-22.5 30t4 46t32.5 40q14 9 40 25.5t54 33t52 30.5t34 19q14 7 26 15.5t25 16.5q28 16 48.5 11t30.5 -24q2 -5 4.5 -11t7.5 -11q26 -28 55.5 -53.5t68.5 -41.5
q25 -10 25 -35.5t-14 -47.5z" />
    <glyph glyph-name="underscore" unicode="_" horiz-adv-x="675" 
d="M671 -72q2 -23 -11 -35.5t-33 -18.5q-11 -3 -32 -5.5t-48 -4t-56 -3t-55.5 -3t-47.5 -3.5t-31 -5q-7 -2 -25 -5.5t-42 -8t-51 -8.5t-51.5 -7.5t-44 -5.5t-29.5 -2q-20 0 -35.5 9.5t-22.5 35.5q-11 42 -2 61.5t31 27.5q10 3 32 5t49.5 2.5t58.5 1.5t59 1.5t51 2.5t34 5
q8 3 27.5 6t44.5 6t53 5.5t53.5 4t46 1.5t30.5 -2q20 -4 32.5 -17t14.5 -41z" />
    <glyph glyph-name="grave" unicode="`" horiz-adv-x="507" 
d="M684 831q14 -1 22 -11t10.5 -23.5t-1.5 -29t-13.5 -27.5t-24.5 -18.5t-35 -2.5q-22 4 -45.5 11.5t-49 15t-53.5 14.5t-60 11q-36 4 -54 21.5t-20.5 39t9 43t35.5 34.5q7 4 17.5 2t22 -6.5t21.5 -9.5t17 -8q21 -9 46 -18t51.5 -16.5t53 -13.5t51.5 -8z" />
    <glyph glyph-name="a" unicode="a" horiz-adv-x="717" 
d="M751 661q-6 -6 -13.5 -24t-15 -42t-15 -52t-13.5 -54t-9.5 -46t-4.5 -30q20 -8 27.5 -19t-3.5 -41q-10 -27 -30 -48t-38 -26q-19 -58 -29.5 -115t-30.5 -108q-6 -15 -12 -28t-15 -21.5t-21.5 -10.5t-29.5 5q-16 6 -29 16.5t-20.5 23.5t-8 28.5t8.5 30.5q20 31 30.5 46
t16.5 29t9.5 34t8.5 61q-34 -8 -81 -18t-94.5 -19t-90 -15.5t-67.5 -6.5q-21 -29 -34 -49.5t-21 -36t-11 -28.5t-3 -28t-8.5 -33t-24 -28.5t-37 -9t-47.5 25.5q-17 16 -14.5 46.5t16.5 68t36.5 77.5t45 76t41.5 63t27 38q31 43 72 92.5t86.5 98.5t94.5 93t96.5 75.5t92 46.5
t80.5 6q50 -20 72 -56t10 -88zM609 664q-36 -21 -84 -54.5t-97.5 -75.5t-95 -89.5t-76.5 -95.5l289 50q11 25 21.5 63.5t19.5 78t15 73.5t8 50z" />
    <glyph glyph-name="b" unicode="b" horiz-adv-x="694" 
d="M716 765q28 -20 41 -45t12 -51t-15 -51.5t-41 -46.5q-15 -12 -36 -28t-43 -32t-43.5 -31t-38.5 -24q36 -13 57.5 -33.5t38.5 -59.5q13 -31 10.5 -61t-15.5 -57.5t-33.5 -51.5t-44 -44t-46.5 -35t-42 -24q-57 -28 -115 -52t-114.5 -37t-109.5 -12t-98 23l-12 6t-21.5 14.5
t-20 23.5t-8.5 33.5t12.5 44t44.5 55.5l58 140q-4 1 1 21t15.5 44t26 43.5t32.5 18.5q9 8 22 34t26.5 56t25.5 57.5t19 38.5q-13 4 -14.5 6.5t-6.5 7.5q-11 12 -17 30t-4.5 34.5t13 29t35.5 15.5q58 7 121.5 18t124 16.5t113.5 -1t90 -33.5zM638 648q-1 21 -27 28t-64.5 4.5
t-82.5 -13.5t-80 -26q-4 -7 -19 -30t-30 -50.5t-26.5 -52t-10.5 -34.5q45 7 91.5 24.5t90.5 41t84.5 52t73.5 56.5zM450 214l17.5 14t25 24.5t20.5 32t5 35.5t-21.5 35t-59.5 30q-30 -8 -49.5 -16.5t-40.5 -17t-48 -17.5t-72 -18q-24 -30 -36 -52.5t-21 -43.5t-18.5 -44
t-27.5 -55q27 -7 71 0t92 22t92 34.5t71 36.5z" />
    <glyph glyph-name="c" unicode="c" horiz-adv-x="714" 
d="M774 669q-11 -26 -18.5 -56.5t-19 -58.5t-29.5 -50t-50 -31q-24 -7 -35.5 -1t-14.5 19t0 30t9 31q3 7 13 25t18 36.5t8.5 32.5t-16.5 13q-46 -1 -94 -19t-93.5 -45.5t-88 -62.5t-77 -71t-60.5 -70.5t-39 -60.5q-12 -22 -14.5 -43.5t0.5 -40t10 -35t15 -28.5
q18 -27 56 -41.5t83 -18t89 4t72 23.5q16 9 31.5 20.5t31 22t31.5 18.5t34 11q25 4 32.5 -12t4.5 -38.5t-13 -44t-20 -28.5q-68 -50 -137 -75t-133 -29.5t-119 9t-95 39.5q-39 26 -66 61t-39.5 75.5t-10 83.5t23.5 84q38 74 102 148t143 136t165.5 108t168.5 65
q38 9 68.5 -1.5t50.5 -31.5t26.5 -49t-4.5 -54z" />
    <glyph glyph-name="d" unicode="d" horiz-adv-x="750" 
d="M822 625q5 -51 -9 -106.5t-45.5 -111t-81 -109t-117.5 -99.5q-75 -51 -135.5 -93t-120 -71.5t-122.5 -44t-142 -11.5q-23 1 -33.5 26.5t-19.5 63.5q-5 22 10 60.5t39 81.5t50 85.5t44 72.5q27 45 48.5 79t40 63t35 56.5t32.5 60.5q-20 0 -30 4.5t-15 12t-7.5 17
t-8.5 19.5q-23 42 -3.5 65t64.5 33q58 14 118.5 19.5t118 3t108.5 -14.5t90 -33.5t63.5 -53.5t28.5 -75zM679 600q-17 30 -39.5 44.5t-51.5 18.5t-65.5 0t-81.5 -11q-34 -56 -76 -128.5t-83 -146t-78.5 -141t-64.5 -115.5q15 1 49 13.5t77 33t92 48t95 58t85 62t63 61.5
q11 14 29 39.5t33 54.5t22 58.5t-5 50.5z" />
    <glyph glyph-name="e" unicode="e" horiz-adv-x="723" 
d="M788 733q-2 -22 -18.5 -41t-39.5 -23q-51 -7 -88.5 -9.5t-72.5 -5.5t-72.5 -10t-88.5 -24q-13 -12 -24.5 -31t-22.5 -40t-21.5 -42t-21.5 -37q53 4 84.5 6t53 3.5t39 3.5t41.5 6t61 9.5t97 14.5q30 5 51 -11t28 -37t-3.5 -40.5t-45.5 -22.5q-55 -5 -95.5 -10t-74 -10.5
t-64 -11t-65.5 -10.5t-78 -9t-102 -6q-23 -38 -40 -72t-23 -61.5t1 -47.5t32 -31q29 -12 70 -10t86.5 13.5t90.5 31t80 43.5q19 13 32.5 20.5t23.5 9.5t18.5 -2.5t17.5 -16.5q12 -16 0.5 -40t-36.5 -49.5t-58.5 -50t-65.5 -42.5q-36 -21 -79.5 -34.5t-88 -18.5t-88.5 -1
t-81 17t-64.5 35.5t-41.5 55.5q-9 21 -5.5 52.5t14 67t26.5 71.5t32 67q29 56 71.5 127.5t90.5 152.5q-8 26 -7.5 48.5t8.5 39t22.5 27t33.5 11.5q61 4 100.5 7.5t67.5 6.5t49.5 5t48 3.5t62.5 2.5t93 1q14 0 24 -4.5t16 -12t8.5 -17t1.5 -17.5z" />
    <glyph glyph-name="f" unicode="f" horiz-adv-x="647" 
d="M797 681q-57 -4 -105.5 -4t-91.5 -2t-84 -8.5t-83 -22.5l-90 -160q40 2 71 7t63 10.5t69.5 10.5t89.5 8q23 1 37.5 -13.5t19.5 -33t0 -37t-22 -24.5q-48 -17 -98.5 -25t-101.5 -13.5l-102 -11t-100 -18.5q-18 -26 -45 -64.5t-51.5 -78t-41.5 -74t-17 -52.5t-8 -34.5
t-22 -27.5t-32 -15t-37 2q-18 6 -25.5 17t-8 25t3 29.5t6.5 30.5q5 21 27 58t46.5 76.5t46 75.5t25.5 57q4 24 3 41t3.5 30.5t21.5 26.5t57 29l70 133l-23 3q-20 14 -28 31.5t-7 36t10.5 35t24.5 28.5q34 0 92.5 8.5t129.5 16t147.5 9.5t146.5 -12q20 -4 29.5 -20.5
t10.5 -34.5t-6 -33t-21 -16z" />
    <glyph glyph-name="g" unicode="g" horiz-adv-x="858" 
d="M852 698q-16 -50 -44.5 -77t-82.5 -32q-19 -2 -25 5.5t-5 19.5t5.5 26.5t7.5 26.5t0 19.5t-17 6.5q-59 -5 -119.5 -29t-117 -58.5t-105.5 -76t-86 -83.5q-47 -53 -64 -115.5t11 -133.5q8 -21 26.5 -38.5t43.5 -29t55 -16.5t61 -1q42 5 81 21t71.5 37.5t56.5 46.5t35 48
q5 11 9 19t4.5 15.5t-4.5 14.5t-17 15q-23 14 -45.5 16.5t-45.5 -2t-47.5 -13.5t-51.5 -17q-9 -3 -21 -2t-23.5 4.5t-21.5 10.5t-14 17q-10 24 -4 43t22.5 32.5t41 23.5t51 15.5t52.5 8.5t45 3q63 1 103 -7t63.5 -25t34.5 -43t16 -62q4 -30 -8 -64.5t-31.5 -67.5t-43 -62
t-43.5 -47q-31 -29 -67.5 -48.5t-76.5 -31t-82 -16.5t-85 -5q-27 0 -63.5 7.5t-72.5 22t-65.5 35.5t-43.5 48q-62 121 -33.5 242.5t143.5 227.5q59 55 128.5 103.5t143 83t148 50t144.5 4.5q36 -6 55 -15.5t25.5 -23.5t3.5 -33t-11 -44z" />
    <glyph glyph-name="h" unicode="h" horiz-adv-x="676" 
d="M889 749q0 -26 -9 -43t-23 -31.5t-30 -28.5t-30 -35q-10 -16 -25 -43.5t-31.5 -59t-33.5 -63t-32 -55.5q-20 -32 -35.5 -52t-29 -38.5t-27 -42t-30.5 -63.5q-12 -28 -19.5 -65t-18 -67t-28.5 -44.5t-52 1.5q-32 15 -42 36t-7.5 43.5t13 46t19.5 44.5q11 26 22.5 43
t23.5 33.5t24.5 35t26.5 46.5q-36 -1 -73 -6t-73 -9.5t-69.5 -7.5t-62.5 0q-18 -19 -34 -48t-31 -61.5t-29 -63.5t-27 -54q-7 -12 -12 -28t-10.5 -30t-13 -24.5t-19.5 -12.5q-33 -6 -52 2.5t-28 25t-9 39t4 44.5q10 27 26.5 55.5t34.5 57t35.5 56.5t30.5 53q-14 8 -17.5 30
t4 44t26 36.5t46.5 7.5l160 274q8 14 21.5 23.5t27.5 15t28 6.5t24 -2q43 -13 50.5 -29.5t-2.5 -34t-27.5 -34.5t-24.5 -30l-102 -180q30 0 64 5.5t70.5 12.5t74 13.5t73.5 8.5q25 34 48.5 83t50.5 95t59 80t73 39q59 9 59 -50z" />
    <glyph glyph-name="i" unicode="i" horiz-adv-x="315" 
d="M446 722q-8 -33 -32.5 -88.5t-58.5 -122.5t-73 -139.5t-75.5 -138.5t-66.5 -120t-47 -85q-4 -7 -14.5 -14t-22.5 -10.5t-24 -4t-20 5.5q-6 5 -14.5 10.5t-15 13t-8.5 17.5t5 23q17 32 43.5 80.5t57.5 107t66 124t69 132t66.5 130.5t58.5 120q7 15 27 20.5t40 1t33 -20
t6 -42.5z" />
    <glyph glyph-name="j" unicode="j" horiz-adv-x="688" 
d="M799 688q-5 -18 -16 -48.5t-25 -67.5t-30.5 -77t-32.5 -76.5t-30 -66t-24 -46.5q-13 -22 -36 -58t-49.5 -73.5t-52.5 -70.5t-46 -50q-29 -24 -61.5 -39t-65 -21t-61.5 -3.5t-50 13.5q-111 53 -162 125.5t-53 165.5q0 24 17 40t38 23t39 5t19 -14q4 -36 13 -63t20 -47.5
t23.5 -36.5t22.5 -29q26 -33 68 -42.5t90 18.5q36 21 70 58.5t65.5 84t59.5 100t51 107t41.5 104.5t30.5 93q4 13 5 28t3 29t7 25t17 14q44 14 66 6.5t30.5 -25.5t6 -42t-7.5 -43z" />
    <glyph glyph-name="k" unicode="k" horiz-adv-x="761" 
d="M890 728q-1 -21 -15 -38.5t-28 -32.5q-15 -16 -46.5 -39t-72 -48.5t-84.5 -52.5t-84 -52t-71.5 -46t-46.5 -35q25 -48 40 -79t28.5 -57t30 -53t46.5 -68q21 -29 34.5 -48t15 -32t-11.5 -22.5t-45 -19.5q-21 -7 -42 -0.5t-39 21t-32 33.5t-22 37q-16 37 -32 64.5
t-32.5 54.5t-35 57.5t-38.5 72.5q-4 0 -5 3.5t-1.5 8.5t-1.5 9.5t-7 6.5q-17 -23 -38.5 -61t-42.5 -80t-40.5 -81.5t-32.5 -66.5q-5 -9 -7.5 -20t-5.5 -21t-7.5 -18.5t-13.5 -13.5q-23 -14 -39 -11.5t-26.5 15t-17 30.5t-10.5 34q-3 13 7.5 45.5t28.5 72t40 80t43 68.5
q32 44 63 95t60.5 103.5t58 104t54.5 97.5q8 15 32 20t47.5 -0.5t38.5 -21.5t5 -43q-11 -29 -26 -52t-29 -44t-26 -41.5t-17 -43.5q18 0 50 15t70.5 39t80.5 53t79 56t66.5 49t43.5 32q15 11 34 20.5t36 10t28.5 -13.5t10.5 -52z" />
    <glyph glyph-name="l" unicode="l" horiz-adv-x="557" 
d="M457 78q-32 -16 -67 -25.5t-72.5 -17t-76.5 -16.5t-80 -23q-47 -8 -82 4.5t-57 37t-31.5 57.5t-5.5 65q46 73 88.5 151t86.5 156.5t93 156.5t109 150q17 20 37.5 18.5t35.5 -15.5t20.5 -36.5t-7.5 -43.5q-44 -69 -89.5 -138.5t-87.5 -140.5t-78.5 -143.5t-63.5 -146.5
q49 8 90 17t79.5 17t77 14.5t80.5 8.5q22 1 31.5 -13.5t8 -33t-11.5 -36.5t-27 -24z" />
    <glyph glyph-name="m" unicode="m" horiz-adv-x="854" 
d="M991 740q-43 -89 -80.5 -176.5t-77 -176.5t-86.5 -180.5t-110 -187.5q-19 -19 -41 -19.5t-39 10.5t-25 29t2 36q26 39 57 95t60 114.5t52 112t33 87.5q-24 -17 -54 -50t-63 -73t-68 -81.5t-69.5 -73.5t-67.5 -50t-63 -12q-31 33 -39.5 72.5t-5 82.5t12.5 88t12 90
q-25 -31 -57 -77t-63 -98.5t-58.5 -106t-44.5 -98.5q-4 -12 -6.5 -25.5t-6.5 -26.5t-10.5 -23.5t-19.5 -15.5q-19 -8 -37 -10t-32 4t-22 19t-6 35q2 23 15.5 59t34.5 78t46.5 87.5t51.5 88.5t50.5 80t42.5 63q32 45 59.5 85.5t49.5 74t37 57t21 33.5q5 8 19.5 17t33 15
t37.5 7t33.5 -7t21.5 -26.5t1 -52.5q-14 -48 -29.5 -96.5t-28 -96.5t-21.5 -95.5t-10 -92.5q43 30 79.5 68.5t70.5 80.5t67 85.5t67 84.5t71 77.5t79 63.5q7 6 21 9.5t30.5 4t32.5 -3.5t27.5 -11.5t16 -20t-3.5 -30.5z" />
    <glyph glyph-name="n" unicode="n" horiz-adv-x="704" 
d="M824 818q26 -25 29 -49.5t-6.5 -50t-26 -52t-28.5 -56.5q-12 -29 -30.5 -70t-42 -88.5t-49.5 -98.5t-52.5 -100t-51.5 -93.5t-47 -79.5q-12 -20 -23.5 -32.5t-25.5 -20t-33.5 -11t-48.5 -6.5q-12 -1 -21.5 7.5t-16.5 21.5t-11 27.5t-6 24.5q-5 34 -10 74.5t-8 92
t-2.5 116.5t6.5 149q-17 -14 -37.5 -47.5t-43 -78t-45 -96t-42.5 -101.5t-36 -94t-26 -75q-3 -10 -12.5 -20t-22 -17.5t-26 -11t-24.5 -0.5q-24 6 -32.5 23t-8 38t8 43t15.5 37q14 26 36 75.5t48.5 110t56 126.5t58.5 125.5t56 107t48 70.5q15 17 27.5 25.5t26 12.5t28.5 5
t35 2q27 2 40.5 -8.5t18 -28t3.5 -39t-4 -41.5q-2 -20 -7.5 -51.5t-11 -69t-9.5 -79.5t-4 -83.5t5 -80t18 -69.5q33 33 69.5 89.5t72.5 125.5t70 144.5t61 147.5q6 15 17 33t24.5 32t27.5 19t26 -6z" />
    <glyph glyph-name="o" unicode="o" horiz-adv-x="914" 
d="M927 481q-3 -66 -28.5 -136.5t-65.5 -132t-91 -109t-105 -68.5q-72 -28 -150 -45.5t-152.5 -10.5t-138.5 44t-107 117q-14 26 -22 56t-8 61.5t7.5 63.5t25.5 60q36 57 74.5 111t85 102t104.5 88.5t132 70.5q34 14 70 24.5t72 14t70.5 -2.5t65.5 -27q42 -28 73 -50.5
t51.5 -52t30 -71t6.5 -107.5zM719 274q44 56 66.5 112.5t22.5 105t-22.5 86t-69.5 56.5q-32 13 -68.5 13t-74.5 -10t-76 -29.5t-74 -46.5q-26 -19 -56 -45t-58.5 -56.5t-53.5 -64.5t-41 -69t-20 -69.5t8 -67.5q13 -33 46.5 -52.5t79 -25t99 2t106.5 28t102 54t84 78.5z" />
    <glyph glyph-name="p" unicode="p" horiz-adv-x="697" 
d="M796 702q22 -67 5.5 -128t-68.5 -134q-21 -30 -65.5 -57t-99.5 -49.5t-115 -41.5t-114 -34t-96 -26t-61 -18q-9 -6 -22.5 -25.5t-25.5 -44.5t-19 -49.5t-3 -41.5q3 -14 -9 -28t-30.5 -24t-38.5 -13t-34 5q-12 8 -18.5 21.5t-7 30t3.5 34t13 33.5q18 32 43 81t53 105
t57 115.5t55.5 113t47.5 97.5t34 69v41.5t5 27.5t17 17.5t35.5 11t60 8.5t90.5 11q35 5 82 4t93 -12t82.5 -35t49.5 -65zM676 626q-8 35 -37 48.5t-65.5 14.5t-75.5 -4.5t-68 -8.5q-29 -37 -46.5 -66t-32.5 -61.5t-32.5 -72.5t-46.5 -98q35 7 76.5 16t83.5 21.5t81.5 28.5
t69.5 37q22 15 41.5 31t32.5 33.5t18.5 37.5t0.5 43z" />
    <glyph glyph-name="q" unicode="q" horiz-adv-x="929" 
d="M906 524q13 -52 0 -117t-44.5 -128t-79 -115t-103.5 -79q-14 -7 -34 -15.5t-34 -11.5q8 -37 11 -73.5t-16 -74.5q-3 -6 -10 -12t-15.5 -10.5t-18 -6t-18.5 1.5q-23 8 -37.5 20.5t-21.5 28t-8.5 33.5t0.5 39q0 5 0.5 9t0.5 9q-58 -8 -110.5 -12.5t-100.5 4t-92 33
t-85 74.5q-29 35 -40.5 71t-11 71t11 68.5t25.5 62.5q28 56 57.5 110.5t69.5 102.5t95 88.5t133 68.5q36 13 78.5 24t85.5 15.5t83.5 -0.5t72.5 -25q44 -27 68.5 -49.5t39.5 -49.5t24.5 -63.5t23.5 -91.5zM705 267q23 25 39 60.5t24.5 74t8.5 78.5t-10 74t-29.5 60t-50.5 37
q-32 12 -72.5 13.5t-83 -5.5t-84 -23.5t-77.5 -40.5q-26 -17 -55 -46.5t-54.5 -65t-44.5 -75.5t-25.5 -79t2.5 -74.5t40 -62.5q26 -22 51.5 -33t53 -15t57.5 -2.5t64 4.5q-6 51 -18 103.5t-30 101.5q-5 14 -3.5 35.5t12 39.5t30.5 26.5t51 -2.5q8 -3 17.5 -7t18 -10
t15.5 -15.5t8 -22.5q0 -4 4 -28.5t9 -57t10 -66.5t8 -57q29 14 58.5 33.5t55.5 47.5z" />
    <glyph glyph-name="r" unicode="r" horiz-adv-x="711" 
d="M816 682q10 -45 -3.5 -83.5t-42.5 -72t-69.5 -62t-85 -52.5t-89 -44t-81 -36.5t-62 -30t-31.5 -24.5q-3 -6 4 -24.5t25 -44.5t48 -55.5t73 -58.5q9 -6 23 -11.5t23.5 -14t10.5 -20.5t-14 -32q-7 -9 -22.5 -14t-32.5 -7t-33.5 -1t-25.5 6q-33 16 -55 27.5t-40.5 27.5
t-37 40t-44.5 64q-15 23 -32 49t-26 55q-8 -4 -17.5 -23.5t-20.5 -47t-23 -58.5t-25 -59t-27.5 -48t-30.5 -26q-17 -6 -38 -4t-36.5 11.5t-22.5 26.5t3 41q16 39 40 86.5t52 100t58 108t58.5 110t53 106t41.5 95.5q-1 37 10 58.5t32 32t50.5 13.5t65.5 4t77 2.5t85 8.5
t83.5 2t70.5 -21t52.5 -41.5t28.5 -58.5zM674 614q11 19 3 31t-25.5 19t-40.5 10t-43 3q-51 -1 -96.5 -18t-82.5 -27q-18 -29 -37.5 -59t-38.5 -61t-34.5 -63t-26.5 -65q28 14 66 28.5t80 31t84.5 35t80 39.5t67 45t44.5 51z" />
    <glyph glyph-name="s" unicode="s" horiz-adv-x="757" 
d="M763 705q0 -22 -7 -40.5t-18.5 -29.5t-24 -13.5t-22.5 6.5q-16 15 -27 30.5t-27 25.5t-40.5 10t-66.5 -16q-24 -9 -51.5 -24t-53 -30t-46.5 -27t-30 -17q31 -11 68.5 -24t77 -30t77.5 -38.5t69 -47.5t51.5 -57.5t24.5 -69.5q4 -31 3.5 -62.5t-11.5 -62.5t-35 -60.5
t-68 -57.5q-56 -35 -115 -51.5t-116 -17.5t-109 11.5t-95 34.5t-73.5 51t-44.5 62t-15 61.5t8 54t27 48t42 42.5q15 13 33 15t31.5 -3t20 -17t-0.5 -28q-6 -15 -11 -21t-9.5 -11.5t-8 -13.5t-6.5 -26q-4 -26 6 -46t29 -34.5t44 -24.5t51 -16.5t51 -8.5t44 -2q53 2 103 18.5
t78 48.5q25 28 28.5 53.5t-7.5 48t-33 42t-48 35.5t-54 29.5t-51 23.5q-31 14 -68.5 20t-71.5 13t-59.5 17.5t-31.5 33.5q-19 66 -3.5 99t62.5 50q33 13 69.5 31.5t71.5 37.5t65 37t51 29q23 12 57.5 20t70.5 8t69 -9t55 -29q9 -8 13 -14.5t6 -15t2 -20.5v-31z" />
    <glyph glyph-name="t" unicode="t" horiz-adv-x="677" 
d="M862 724q-13 -16 -23 -25.5t-24 -15t-36.5 -7.5t-60.5 -4q-43 -2 -82 -13.5t-67 -19.5q-19 -58 -58 -130t-81 -150t-80 -157t-57 -150q-6 -24 -23 -40t-38.5 -19.5t-44 8t-38.5 43.5q-7 15 -6.5 29.5t6 29t14.5 29t18 29.5q37 59 68.5 121t61 123t59 118t60.5 106
q-27 6 -55 2.5t-56 -11t-54 -16.5t-47 -12q-24 -4 -50.5 17t-39.5 67q-5 18 2.5 30t24 19.5t40.5 12t54 7.5q64 7 110 11.5t83.5 8t71 6.5t72 7t87.5 10t117 14q13 2 30 -5t30 -18.5t18 -26t-6 -28.5z" />
    <glyph glyph-name="u" unicode="u" horiz-adv-x="693" 
d="M840 691q-10 -18 -32 -59t-50 -93t-59 -109.5t-58 -108.5t-47.5 -89.5t-28.5 -52.5q-21 -39 -51 -72t-67.5 -56t-82.5 -33.5t-95 -4.5q-45 5 -82 14t-64.5 26.5t-44.5 46.5t-22 74q-8 68 10 140.5t52 146t78.5 146t89.5 141.5q20 29 44 24t42 -30q6 -8 9 -22t2.5 -29.5
t-4.5 -31t-13 -27.5q-37 -52 -67 -97.5t-51.5 -93t-35 -100t-16.5 -118.5q-1 -27 14.5 -45t40.5 -26t54 -6.5t53 12.5q42 19 75.5 53.5t61.5 79.5t51.5 96.5t45 105t42 105t42.5 96.5q5 10 11 24t12.5 29t14.5 28t17 21q29 26 54 20.5t41.5 -26t21 -49.5t-7.5 -50z" />
    <glyph glyph-name="v" unicode="v" horiz-adv-x="622" 
d="M801 805q25 -12 30 -26.5t-3.5 -31t-28 -34.5t-43 -38t-48.5 -41.5t-45 -44.5q-29 -33 -71 -83t-87 -105t-87.5 -107.5t-73.5 -91.5q-24 -31 -47 -61.5t-44 -56t-40 -44t-37 -26.5q-33 -14 -59.5 -10t-44.5 19.5t-26.5 39t-5.5 48.5q20 151 70 316.5t119 335.5
q8 21 29.5 18.5t41.5 -17t33 -36t4 -39.5q-32 -65 -52.5 -119.5t-36 -108.5t-28.5 -113t-31 -134q63 51 123.5 122t119.5 147.5t118 151t117 133.5q12 12 28.5 22.5t34.5 16.5t36.5 6.5t34.5 -8.5z" />
    <glyph glyph-name="w" unicode="w" horiz-adv-x="942" 
d="M1074 722q-27 -54 -52.5 -111t-52 -115.5t-54.5 -117.5t-61 -118q-22 -40 -49.5 -82.5t-60.5 -80t-73 -65t-89 -38.5q-46 -10 -78.5 1.5t-55 35.5t-36 56.5t-21.5 66.5q-23 -8 -53 -27.5t-62 -42t-65.5 -44t-64 -34t-57 -12t-45.5 22.5q-25 29 -32 63t-2.5 70.5t17 73.5
t25.5 71q13 33 33.5 75.5t45.5 88t53.5 93t58 91t58 80.5t54.5 62q14 14 37 11.5t42.5 -14.5t28.5 -30t-5 -36q-29 -36 -65 -83.5t-72.5 -100.5t-69.5 -107.5t-56.5 -105t-33 -93t1.5 -71.5q47 11 89.5 37.5t79.5 64t69.5 81.5t60 88.5t50 87t39.5 76.5q10 20 33 19
t44 -15.5t34 -38.5t2 -51q-11 -29 -27 -58t-31.5 -58t-29 -58.5t-19.5 -60t-3 -62t21 -64.5q32 14 65 49.5t66 85.5t65 109.5t61 120.5t54.5 119t45.5 104q8 19 16.5 30t19.5 17.5t26 11t37 10.5q20 6 31 -1t16 -20t3.5 -29t-7.5 -28z" />
    <glyph glyph-name="x" unicode="x" horiz-adv-x="752" 
d="M882 808q28 -10 30.5 -25.5t-11.5 -33.5t-39 -36.5t-52 -36.5q-47 -31 -95.5 -74.5t-90.5 -85.5t-72.5 -76t-42.5 -45q9 -33 21.5 -67.5t25 -69.5t22.5 -68.5t15 -65.5q2 -15 2.5 -32.5t-3.5 -34.5t-14 -31.5t-29 -22.5q-15 -7 -28.5 -3t-24.5 13.5t-19 24t-11 28.5
q-8 34 -14 64.5t-14.5 59.5t-20 57.5t-31.5 58.5q-39 -27 -79.5 -61.5t-80 -72.5t-77 -77t-70.5 -76q-20 -23 -49 -29.5t-53 1.5q-12 4 -19.5 15t-8.5 26t6 32.5t22 35.5q31 35 71 75t86 83t97 88.5t104 90.5q-29 63 -59 133t-56 139q-6 17 -0.5 28.5t17.5 18.5t28.5 9.5
t32.5 0.5t29 -8t18 -17q12 -24 28 -54.5t32.5 -60t30.5 -55.5t22 -43q33 26 73 62.5t82 74t82.5 71t74.5 52.5q26 15 56.5 22t55.5 -2z" />
    <glyph glyph-name="y" unicode="y" horiz-adv-x="614" 
d="M826 750q5 -37 -6 -57.5t-30 -34t-43.5 -26t-48.5 -32.5q-67 -58 -137 -127t-138 -145.5t-132.5 -160.5t-119.5 -173q-4 -6 -11.5 -10.5t-16 -6.5t-16.5 -1.5t-14 4.5q-38 27 -42.5 56t7.5 57q4 10 17.5 27.5t31.5 38t38 42.5t38.5 42.5t33 37.5t20.5 26q-3 6 -13.5 10.5
t-23 10.5t-25 13.5t-21.5 17.5q-43 54 -45 109t24 122q9 23 22 43t26 37.5t25.5 31.5t19.5 26q18 27 44 45.5t50 23.5t40.5 -4t15.5 -37q0 -13 -0.5 -25t-2.5 -22.5t-8.5 -20t-18.5 -18.5q-53 -39 -78 -84.5t-23 -86.5q1 -16 11 -30t23.5 -24.5t28.5 -16t27 -5.5
q51 47 95 95t86.5 94.5t88 90.5t99.5 84q16 12 33 14.5t32 -2.5t25 -17.5t12 -31.5z" />
    <glyph glyph-name="z" unicode="z" horiz-adv-x="699" 
d="M804 753q6 -19 9 -42.5t0 -46.5t-13 -43.5t-29 -34.5q-40 -29 -84 -62t-90 -67t-93 -67.5t-92 -63.5q-9 -6 -28.5 -20t-44 -32t-52 -37.5t-52 -37t-44 -30t-29.5 -17.5q60 -7 107 0.5t89.5 17t86 15t97.5 -4.5q21 -4 42.5 -3.5t45.5 -14.5q23 -15 22 -30t-13 -27.5
t-30 -20.5t-30 -8q-61 0 -119.5 -7.5t-115 -19t-113 -24.5t-114.5 -24q-15 -3 -29.5 -5t-28 0.5t-25 9.5t-20.5 22q-12 21 -16 43.5t-1 44.5t11 43.5t19 40.5q67 48 149 101.5t166.5 110t164.5 114.5t143 114q-22 13 -47.5 14.5t-53.5 -4t-57 -15.5t-58.5 -19.5t-58.5 -16.5
t-57 -6q-22 -3 -33.5 6t-15 25t0 36t10.5 37t16.5 28.5t18.5 11.5q45 3 88.5 12t86.5 19t85 18.5t83 9.5q19 1 42 2t44 -2t37.5 -12.5t22.5 -30.5z" />
    <glyph glyph-name="braceleft" unicode="{" horiz-adv-x="462" 
d="M467 528q-10 -28 -25.5 -30.5t-31.5 8t-32 28t-28 28.5q-22 20 -40.5 38.5t-29.5 39t-14 44.5t7 54q4 11 16.5 24t27.5 22t29 10t21 -12q10 -18 15 -31.5t8.5 -26t8.5 -26t15 -32.5t22.5 -35t22 -31.5t13 -33t-4.5 -38.5zM444 379q7 -16 -2 -25.5t-27.5 -15t-44 -7.5
t-53 -3.5t-53.5 -2.5t-45 -5t-48.5 -10.5t-59.5 -6.5t-55.5 11.5t-37.5 42.5q-11 30 -2 47t31.5 24t54 7.5t65 -1t65 -2.5t53.5 3q24 4 46.5 9t42.5 2.5t38 -17.5t32 -50zM333 243q21 -6 26.5 -18t-0.5 -26.5t-20.5 -29t-32.5 -24.5q-34 -19 -57 -39t-43.5 -38.5t-44 -35.5
t-60.5 -29q-27 -10 -53.5 -1.5t-39.5 26.5q-21 32 -10 51t39 33q22 11 34 14.5t23.5 8t27 13.5t45.5 30q19 14 40 27.5t42.5 23.5t43 14.5t40.5 -0.5z" />
    <glyph glyph-name="bar" unicode="|" horiz-adv-x="315" 
d="M446 722q-8 -33 -32.5 -88.5t-58.5 -122.5t-73 -139.5t-75.5 -138.5t-66.5 -120t-47 -85q-4 -7 -14.5 -14t-22.5 -10.5t-24 -4t-20 5.5q-6 5 -14.5 10.5t-15 13t-8.5 17.5t5 23q17 32 43.5 80.5t57.5 107t66 124t69 132t66.5 130.5t58.5 120q7 15 27 20.5t40 1t33 -20
t6 -42.5z" />
    <glyph glyph-name="braceright" unicode="}" horiz-adv-x="525" 
d="M528 767q11 -15 11 -30t-6.5 -27.5t-18.5 -23t-26 -16.5q-22 -10 -32.5 -12.5t-20 -5t-24 -9.5t-44.5 -28q-19 -13 -40 -28t-42.5 -26t-42.5 -16.5t-40 -0.5q-21 6 -29.5 18.5t-6.5 27.5t13 29.5t29 24.5q35 19 58.5 36.5t45 34t46 31t61.5 27.5q13 5 29.5 8t32 3
t28.5 -4t19 -13zM506 434q15 -33 7 -50t-30.5 -24.5t-55.5 -7.5t-67.5 2.5t-67 4.5t-54.5 -2q-24 -4 -47 -9.5t-43.5 -3t-38 17.5t-30.5 50q-7 21 1.5 32t27 16.5t44.5 6.5t53 0.5t53.5 0t45.5 3.5q20 4 48.5 10t58 6t55 -11t40.5 -42zM271 70q-3 -10 -10 -21.5t-16.5 -20
t-22 -11.5t-27.5 3q-19 7 -31.5 16.5t-21.5 21.5t-16.5 27.5t-18.5 34.5q-10 19 -20 34t-17 30.5t-9.5 34.5t2.5 46q4 21 17.5 23t30 -6.5t32 -24t22.5 -29.5q20 -36 42.5 -54t40 -31t25.5 -28t-2 -45z" />
    <glyph glyph-name="asciitilde" unicode="~" horiz-adv-x="551" 
d="M833 830q2 -23 -6.5 -41t-23.5 -34t-35 -30t-40 -29q-14 -10 -26 -12.5t-25 -2.5q-20 0 -36.5 6.5t-30.5 16.5t-26.5 20.5t-25.5 19.5q-13 8 -23.5 15t-24.5 7q-6 0 -11.5 -5t-10.5 -12.5t-9.5 -16t-7.5 -14.5q-10 -17 -24.5 -25t-37.5 -8q-6 0 -13 5.5t-12.5 13t-9 16.5
t-3.5 16q0 12 10 24t13 16q12 15 26.5 33t31 34.5t32.5 27.5t31 11q27 0 43.5 -6.5t30 -17t28 -24t36.5 -28.5q20 -12 33.5 -16t24.5 4q10 8 21 19.5t22.5 22.5t23.5 19t24 8q13 0 21 -9.5t10 -23.5z" />
    <glyph glyph-name="uni00A0" unicode="&#xa0;" horiz-adv-x="359" 
 />
    <glyph glyph-name="exclamdown" unicode="&#xa1;" horiz-adv-x="333" 
d="M-28 56q36 71 80 139t90.5 134.5t92 132t83.5 130.5q4 6 13.5 9t20.5 2.5t21.5 -4.5t16.5 -12q15 -21 11 -46t-13 -48t-27 -49t-38 -52.5t-39.5 -52t-32.5 -46.5q-45 -72 -92 -139t-107 -125q-16 -15 -34 -19.5t-31.5 -0.5t-18.5 16.5t4 30.5zM390 786q8 16 18.5 24
t22 11t22 3t18.5 -1q40 -5 49.5 -21.5t5.5 -44.5q-3 -21 -17 -38t-33.5 -26.5t-41 -11.5t-39.5 5q-16 6 -21 18.5t-3.5 26.5t7.5 29t12 26z" />
    <glyph glyph-name="cent" unicode="&#xa2;" horiz-adv-x="680" 
d="M713 544q-10 -20 -24 -36.5t-30.5 -26.5t-33.5 -11.5t-34 8.5q-13 8 -12.5 19t5.5 22t9.5 20.5t-1.5 13.5q-17 14 -60 5q-20 -41 -43 -86.5t-48 -92t-50 -92t-48 -87.5q20 2 39.5 6.5t38.5 9.5q18 5 33.5 10t29.5 8t27 2.5t25 -8.5q6 -4 3 -13.5t-11 -20t-18.5 -19.5
t-19.5 -13q-47 -20 -95.5 -30.5t-96.5 -13.5q-17 -30 -30.5 -54.5t-22.5 -41.5q-4 -7 -15 -14t-23 -10.5t-24 -4t-20 5.5q-6 5 -14.5 10.5t-14.5 13t-8 17.5t5 23q8 14 16.5 30.5t19.5 36.5q-35 9 -62 24.5t-44 37.5q-38 50 -28 107.5t74 111.5q27 23 62 48t75 49.5t83.5 48
t86.5 41.5q21 42 41 82.5t37 76.5q7 15 27 20.5t39.5 1t33 -20t6.5 -42.5q-8 -28 -26 -72q42 4 74 -2t51 -19.5t23.5 -34t-7.5 -44.5zM350 474q-49 -29 -91.5 -60t-66.5 -54q-23 -23 -31.5 -50t-0.5 -49q7 -19 19.5 -31.5t29.5 -20.5q32 59 68 126.5t73 138.5z" />
    <glyph glyph-name="sterling" unicode="&#xa3;" horiz-adv-x="608" 
d="M610 769q2 -30 -2.5 -58t-16 -49.5t-29.5 -33.5t-43 -9q-19 2 -25 16t-7.5 29.5t-3 29.5t-10.5 16q-28 7 -57 -12t-56.5 -54t-54.5 -80.5t-53 -92.5q25 4 55 7.5t54 0t35.5 -18t-0.5 -45.5q-10 -27 -33 -38t-51.5 -14t-60 -2t-60.5 -2q-25 -46 -40 -76.5t-24.5 -53
t-16 -40.5t-14.5 -38q26 -6 57 0t64 17t67 24t65 20l26 6.5t26.5 5.5t22.5 0.5t14 -10.5q5 -11 0 -23t-15.5 -24t-23.5 -23.5t-24 -20.5q-38 -30 -85.5 -49.5t-88.5 -33.5q-20 -7 -43 -14t-47.5 -13t-50.5 -9.5t-51 -2.5q-30 1 -48.5 16.5t-25.5 38.5t-2.5 51.5t20.5 56.5
q22 38 37 64.5t26 46t19.5 34t15.5 28.5q-22 2 -34.5 12.5t-7.5 37.5q5 30 16 47.5t26.5 26t34 10.5t38.5 1q29 53 56 98.5t57.5 86t67 77t85.5 70.5q45 31 84 43t68.5 7t47.5 -26.5t20 -58.5z" />
    <glyph glyph-name="yen" unicode="&#xa5;" horiz-adv-x="620" 
d="M826 750q5 -37 -6 -57.5t-30 -34t-43.5 -26t-48.5 -32.5q-42 -38 -86 -79t-89 -86q32 -3 52.5 -16t18.5 -44q-1 -21 -18 -33.5t-43 -18.5t-59 -8.5t-66 -4.5q-19 -21 -37 -42t-35 -43q5 1 10 1.5t10 1.5q20 4 46 9t53.5 8t53.5 3.5t46.5 -5t32.5 -18.5t10 -36
q-1 -20 -15.5 -31.5t-37 -18.5t-51.5 -9.5t-59 -4.5t-59.5 -4t-53.5 -7q-17 -4 -39 -10t-46 -11q-34 -48 -66 -99q-4 -6 -11.5 -10.5t-16 -6.5t-16.5 -1.5t-14 4.5q-38 27 -42.5 56t7.5 57q2 5 5 10t8 12l-2 6t-2 7q-6 27 -1 44.5t18.5 28t34 15t44.5 5.5q14 17 28 32t25 27
q-25 -6 -50 -9t-46 -0.5t-36 12.5t-20 31q-10 45 8.5 64.5t53.5 25.5q-20 43 -17 87.5t24 98.5q9 23 22 43t26 37.5t25.5 31.5t19.5 26q18 27 44 45.5t50 23.5t40.5 -4t15.5 -37q0 -13 -0.5 -25t-2.5 -22.5t-8.5 -20t-18.5 -18.5q-53 -39 -78 -84.5t-23 -86.5q1 -16 11 -30
t23.5 -24.5t28.5 -16t27 -5.5q51 47 95 95t86.5 94.5t88 90.5t99.5 84q16 12 33 14.5t32 -2.5t25 -17.5t12 -31.5z" />
    <glyph glyph-name="brokenbar" unicode="&#xa6;" horiz-adv-x="638" 
d="M630 723q-15 -15 -29 -22.5t-29 -16t-30 -21.5t-31 -38q-10 -16 -22.5 -37.5t-27.5 -41t-33 -33.5t-40 -16q-24 -2 -35.5 8.5t-13 27t5 34.5t17.5 31q22 26 39.5 51t36 49t39.5 47t49 44q20 16 43 26t46 0q20 -9 28.5 -21t8.5 -24.5t-6.5 -25t-15.5 -21.5zM275 258
q-15 -15 -29 -22.5t-29 -15.5t-30 -21t-31 -39q-10 -16 -22.5 -37t-27.5 -40.5t-33 -34t-40 -16.5q-24 -2 -35.5 8.5t-13 27t5 35t17.5 31.5q22 26 40 51t36 49t39 47t49 44q20 16 43 26t46 -1q20 -9 28.5 -20.5t8.5 -24.5t-6.5 -25t-15.5 -22z" />
    <glyph glyph-name="section" unicode="&#xa7;" horiz-adv-x="752" 
d="M698 774q-1 -30 -15.5 -48.5t-32.5 -27.5t-35.5 -8.5t-25.5 10.5q-9 11 -34.5 14t-61.5 -5.5t-80 -32t-91 -66.5q30 -6 78 -18.5t97.5 -34t92 -51.5t61 -70.5t4.5 -93t-77 -117.5q6 -24 -2 -51t-34 -59q-35 -43 -74.5 -69t-83.5 -41.5t-93.5 -23.5t-104.5 -14
q-41 -5 -78.5 0.5t-67 21t-48.5 42t-22 65.5q-2 16 6.5 36.5t22.5 41t33 38t38 26.5q27 12 34.5 10.5t5 -12t-10.5 -28.5t-11 -39q-3 -18 1.5 -30.5t13 -21t20 -14t23.5 -9.5q27 -9 60 -14.5t69.5 -3t74 16t72.5 41.5q25 20 24 39.5t-19.5 37t-51 32t-71 25.5t-78.5 17.5
t-74 7.5t-53 8.5t-27 22.5t-7 37.5t6 52.5q4 23 28 49.5t54 48.5q-20 27 3 93q8 23 34 47t64 46.5t84 43.5t94 39t93.5 32.5t82.5 23.5q16 4 32.5 1.5t29.5 -10.5t21 -22t7 -32zM514 308q21 36 5.5 65.5t-52 51.5t-86.5 36t-98 20q-13 -10 -25.5 -20.5t-20.5 -19.5
t-10.5 -15.5t3.5 -8.5q25 -6 61 -16t75 -23.5t78 -30.5t70 -39z" />
    <glyph glyph-name="dieresis" unicode="&#xa8;" horiz-adv-x="527" 
d="M735 765q-12 -25 -24 -40.5t-39 -21.5q-18 -4 -31 -0.5t-21.5 13t-13.5 24t-9 30.5q-4 15 3 34t20.5 35t32.5 25.5t40 5.5q23 -4 35 -15.5t16 -26.5t1.5 -32t-10.5 -31zM512 778q0 -18 -6 -31.5t-14.5 -23.5t-18 -15.5t-17.5 -7.5q-38 -10 -58 3.5t-30 40.5
q-7 21 -2 41.5t18.5 36.5t32 25.5t38.5 8.5q18 0 29 -8t17 -19.5t8.5 -25t2.5 -25.5z" />
    <glyph glyph-name="copyright" unicode="&#xa9;" horiz-adv-x="756" 
d="M738 439q-26 -67 -67 -130t-94 -116.5t-118.5 -95t-141.5 -65.5q-31 -10 -73 -13.5t-83.5 1t-75 18t-47.5 38.5q-15 26 -24.5 48t-13 46t0.5 52.5t17 68.5q4 13 15.5 35t27 49t34 56t36.5 55.5t34 48t27 32.5q39 39 73.5 73t72 62t81.5 49.5t102 34.5q17 4 38.5 8
t43.5 4.5t43.5 -4t39.5 -16.5q35 -24 55.5 -61t26.5 -81.5t-2 -95t-28 -101.5zM607 670q-14 14 -35 18.5t-44 2t-45 -10.5t-37 -17q-59 -36 -112 -81t-95.5 -96.5t-72 -107.5t-41.5 -115q-4 -21 2.5 -49.5t28 -51t58.5 -33t92 2.5q91 22 158 74.5t120 140.5q28 46 47.5 89.5
t25.5 84t-5.5 78t-44.5 71.5zM589 548q-15 -43 -38 -66t-43 -26.5t-31.5 10t-2.5 42.5q1 4 2 7t2 7q-8 4 -26 -6.5t-39.5 -29t-43.5 -42.5t-39.5 -48.5t-27 -46.5t-5.5 -36q6 -18 20 -22.5t32.5 -0.5t39 12.5t37.5 15.5q12 5 23.5 11.5t23 10t21.5 2.5t19 -10
q5 -4 1.5 -16.5t-11 -26t-17.5 -26t-19 -17.5q-39 -24 -79.5 -41t-76.5 -22t-65.5 3t-46.5 34q-24 36 -17.5 83.5t47.5 103.5q24 33 54 65.5t64 61t69 51.5t68 36q61 23 92 2t13 -75z" />
    <glyph glyph-name="guillemotleft" unicode="&#xab;" horiz-adv-x="836" 
d="M552 822q28 -8 29 -23.5t-15 -35t-43.5 -41t-57.5 -42.5q-51 -36 -98.5 -76.5t-87 -77.5t-68.5 -66t-42 -41q4 -41 18 -89t29 -97.5t27 -97t10 -88.5q-1 -15 -0.5 -32.5t-3 -34.5t-13 -32t-29.5 -25q-16 -8 -29.5 -5.5t-24.5 11.5t-18 22.5t-9 28.5q-5 34 -10.5 81.5
t-14.5 96.5t-22 93t-34 70q-10 12 -20.5 23.5t-18.5 22.5t-11 21t3 20q14 25 30.5 43.5t34.5 33.5t35 28t31 25q35 30 73.5 63.5t78 66t79 62t76.5 52.5q14 9 29 17.5t30.5 14.5t30 8.5t26.5 -0.5zM827 825q28 -8 29 -23.5t-15 -35t-43.5 -41t-57.5 -42.5
q-51 -36 -98.5 -76.5t-87 -77.5t-68.5 -66t-42 -41q4 -41 18 -89t29 -97.5t27 -97t10 -88.5q-1 -15 -0.5 -32.5t-3 -34.5t-13 -32t-29.5 -25q-16 -8 -29.5 -5.5t-24.5 11.5t-18 22.5t-9 28.5q-5 34 -10.5 81.5t-14.5 96.5t-22 93t-34 70q-10 12 -20.5 23.5t-18.5 22.5
t-11 21t3 20q14 25 30.5 43.5t34.5 33.5t35 28t31 25q35 30 73.5 63.5t78 66t79 62t76.5 52.5q14 9 29 17.5t30.5 14.5t30 8.5t26.5 -0.5z" />
    <glyph glyph-name="logicalnot" unicode="&#xac;" horiz-adv-x="977" 
d="M477 47q-5 9 -2.5 19t9.5 20t16 20t16 19q19 23 46 46t54 47t49.5 48.5t31.5 51.5q-36 5 -86 7.5t-107 3t-118 0t-119 -2.5t-110 -4.5t-91 -5.5q-26 -2 -43 15t-22 38.5t3.5 40.5t32.5 22q81 11 172.5 16t182.5 7t175 2.5t149 2.5q26 -10 53 -25t48.5 -35t35 -44.5
t11.5 -53.5q-10 -23 -29 -45.5t-40.5 -43.5t-42 -39t-34.5 -31q-29 -27 -64 -56t-76 -43q-12 -4 -27 -8.5t-29 -5.5t-26 2.5t-19 14.5z" />
    <glyph glyph-name="registered" unicode="&#xae;" horiz-adv-x="756" 
d="M738 439q-26 -67 -67 -130t-94 -116.5t-118.5 -95t-141.5 -65.5q-31 -10 -73 -13.5t-83.5 1t-75 18t-47.5 38.5q-15 26 -24.5 48t-13 46t0.5 52.5t17 68.5q4 13 15.5 35t27 49t34 56t36.5 55.5t34 48t27 32.5q39 39 73.5 73t72 62t81.5 49.5t102 34.5q17 4 38.5 8
t43.5 4.5t43.5 -4t39.5 -16.5q35 -24 55.5 -61t26.5 -81.5t-2 -95t-28 -101.5zM607 670q-14 14 -37 17.5t-48.5 0t-50 -12t-39.5 -17.5q-59 -36 -110 -80t-90.5 -94.5t-67 -106t-39.5 -114.5q-4 -21 2.5 -49.5t28 -51t58.5 -33t92 2.5q91 22 158 74.5t120 140.5
q28 46 47.5 89.5t25.5 84t-5.5 78t-44.5 71.5zM619 534q-4 -32 -21 -58.5t-40 -47.5t-49 -37.5t-48.5 -28t-38 -19t-17.5 -11.5q10 -18 21.5 -30.5t18.5 -18.5q14 -11 9.5 -30t-18.5 -35.5t-35 -25t-40 0.5q-11 6 -29 31.5t-39 60.5q-10 -26 -18.5 -44t-19.5 -32
q-18 -23 -34.5 -28t-27 2t-14 23t3.5 34q12 32 28.5 64.5t34 66.5t35 69t30.5 71q1 38 25 58t57 29t68 11t57 3q51 4 79 -14.5t22 -63.5zM493 487q8 12 -0.5 16.5t-19.5 5.5q-19 2 -38.5 -2.5t-35.5 -11.5q-14 -24 -27.5 -48t-25.5 -49q21 10 41 17.5t38.5 17t35.5 22.5
t32 32z" />
    <glyph glyph-name="macron" unicode="&#xaf;" horiz-adv-x="422" 
d="M453 825q-1 -20 -11.5 -31.5t-26.5 -18.5t-36.5 -9.5t-42.5 -4.5t-43 -4t-39 -7t-45 -15.5t-53 -14.5t-46.5 4t-25.5 40q-5 34 1.5 53t21.5 28t36 11t44.5 2t47 0.5t43.5 5.5q22 6 52.5 13.5t58.5 7.5t47 -12.5t17 -47.5z" />
    <glyph glyph-name="degree" unicode="&#xb0;" horiz-adv-x="457" 
d="M350 730q15 -21 20.5 -52t3 -63.5t-13.5 -62.5t-29 -48q-26 -27 -59.5 -45t-71.5 -28q-32 -8 -65 -9t-67 18q-18 10 -28 23.5t-14.5 29t-5.5 32t-1 31.5q0 60 18.5 112t69.5 103q23 23 55.5 39.5t65.5 9.5q22 -5 38 -11t29 -16t26 -25t29 -38zM277 596q6 14 2 33
t-14.5 36.5t-25.5 30t-30 12.5q-20 0 -44.5 -17.5t-37.5 -40.5q-7 -12 -14 -30.5t-8.5 -37t4 -34t23.5 -23.5q20 -8 41 -6.5t40.5 11t36 26.5t27.5 40z" />
    <glyph glyph-name="plusminus" unicode="&#xb1;" horiz-adv-x="595" 
d="M494 401q-5 -23 -27 -32t-42 -13q-35 -7 -60 -10.5t-56 4.5q-12 -18 -18.5 -33.5t-12 -30.5t-11.5 -31t-18 -36q-8 -13 -17.5 -25t-19.5 -19t-19.5 -7t-18.5 11q-8 11 -10 28.5t0 34.5q2 20 8 42l30 66l-60 -4q-33 -6 -56 10t-31.5 39t0 45t38.5 27q14 3 35 1.5
t43.5 -3.5t42.5 -4.5t32 -1.5q10 11 14 32.5t8 46.5t10 49t20 39q10 11 27 8.5t33.5 -13t28.5 -26.5t12 -33q-1 -18 -11.5 -41.5t-27.5 -55.5q11 -2 18 -1.5t15.5 0.5t21 -0.5t33.5 -4.5q6 -1 14.5 -7.5t16 -15.5t12 -18.5t3.5 -16.5zM358 85q-1 -20 -11.5 -31.5
t-26.5 -18.5t-36.5 -10t-42.5 -4.5t-43 -4t-39 -7.5t-45 -15t-53 -14t-46.5 4t-25.5 39q-5 34 1.5 53t21.5 28.5t36.5 11.5t45 2t47 0.5t43.5 5.5q14 4 33 9t38.5 8.5t38.5 3.5t33.5 -5.5t23 -18.5t7.5 -36z" />
    <glyph glyph-name="twosuperior" unicode="&#xb2;" horiz-adv-x="399" 
d="M396 732q0 -31 -14 -53.5t-35.5 -40.5t-48 -34.5t-50.5 -34.5q-9 -6 -29.5 -20.5t-43 -30.5t-40.5 -30.5t-22 -22.5q28 0 51.5 2t44 2.5t38 -2t33.5 -11.5q29 -17 26 -34t-50 -19q-52 -1 -95.5 -6t-83.5 -20q-19 -8 -30.5 -1.5t-15.5 33.5q-2 20 3 43t19 40
q8 10 32.5 29.5t55 41t60 42t45.5 32.5q21 14 38.5 27.5t27 24.5t9.5 20.5t-14 15.5q-26 11 -55 9t-61 -15q-17 -15 -30 -18.5t-20.5 1.5t-9.5 16.5t2 24.5q7 21 29 34t49 19t54.5 6.5t45.5 -3.5q18 -3 33.5 -7t27 -11t18 -18.5t6.5 -30.5z" />
    <glyph glyph-name="threesuperior" unicode="&#xb3;" horiz-adv-x="310" 
d="M331 766q-2 -17 -6.5 -33t-19.5 -30q-17 -15 -37 -32t-35 -38q7 -10 17 -24t17 -30.5t8.5 -35.5t-8.5 -41q-11 -25 -33 -46t-47.5 -37t-51.5 -24.5t-46 -7.5q-15 0 -32.5 3t-23.5 24q-5 15 -6 36t16 35q8 6 13 3t9 -9t8 -13t10 -10q14 -8 35.5 -2.5t40.5 15.5
q26 14 38.5 28t17.5 26q4 10 1.5 21t-8.5 21t-13.5 16.5t-13.5 7.5q-14 2 -26 -7.5t-28 -15.5q-4 -1 -7 2.5t-4.5 10t-2 14.5t0.5 15q2 18 15.5 26t22.5 13q17 10 31 18.5t27 18t25 21t25 26.5q-7 6 -22.5 7t-33 -1t-32 -5t-19.5 -5q-9 -4 -19.5 -10t-20.5 8
q-17 27 -10 42.5t21 20.5q9 3 25 5.5l32 5t29.5 3.5t18.5 0q8 -1 25.5 -1.5t35 -3.5t30.5 -10t11 -21z" />
    <glyph glyph-name="acute" unicode="&#xb4;" horiz-adv-x="638" 
d="M775 909q6 -2 14.5 -10.5t15 -20.5t10.5 -25.5t0.5 -27t-16 -24.5t-37.5 -17q-32 -8 -67 -11t-60 -14q-27 -13 -54 -19.5t-47 -14.5q-21 -9 -36.5 4.5t-23 34t-5.5 42t17 28.5q14 7 41 16.5t55.5 18.5t53.5 16.5t35 11.5q23 9 47.5 16.5t56.5 -4.5z" />
    <glyph glyph-name="paragraph" unicode="&#xb6;" horiz-adv-x="762" 
d="M717 676q-13 -26 -34.5 -68t-47 -92.5t-53.5 -106t-53.5 -109t-47.5 -100.5t-36 -81q-7 -16 -14.5 -39t-17.5 -45.5t-24 -42t-34 -28.5q-21 -10 -38.5 -4.5t-28 20.5t-12.5 36t8 41q11 21 26 50.5t28.5 57.5t22 50t5.5 28q-17 2 -34.5 5.5t-34.5 7.5q-22 -43 -43.5 -83.5
t-40.5 -76t-34 -64l-25 -47.5q-4 -8 -14.5 -15.5t-23 -12.5t-24.5 -6.5t-20 3.5q-6 4 -14.5 9t-14.5 12t-8 17t5 24q23 45 60 117.5t82 160.5q-33 14 -60 32t-45 40t-25 47t1 53q10 38 14 63t14 48t31 48t64 62q54 46 122 74.5t133.5 44.5t121 21.5t86.5 6.5q51 2 77.5 -7.5
t33.5 -29.5t-2.5 -50t-30.5 -71zM565 693q-14 0 -29.5 1t-32.5 0q-7 -24 -21 -57.5t-32 -73t-40 -84t-45 -90.5q16 -2 31 -4t29 -4q29 61 51.5 103.5t40 76.5t29.5 64.5t19 67.5zM368 671q-26 -10 -52.5 -26t-52.5 -40q-28 -25 -43.5 -47.5t-21.5 -42t-3.5 -36t9.5 -31.5
q10 -20 40 -33q32 66 64 131t60 125z" />
    <glyph glyph-name="periodcentered" unicode="&#xb7;" horiz-adv-x="219" 
d="M103 393q-1 -26 -5.5 -45t-27.5 -37q-16 -12 -29.5 -15t-26 1t-23.5 13.5t-22 21.5q-10 11 -11.5 30t4.5 39t20 37t36 24q23 7 39.5 3t27 -15t15 -26.5t3.5 -30.5z" />
    <glyph glyph-name="cedilla" unicode="&#xb8;" horiz-adv-x="527" 
d="M378 -22q-8 -29 -22.5 -39.5t-33 -10.5t-39.5 7t-41 13q-15 4 -32 11t-31 17t-21 22.5t-3 28.5q4 15 14 18.5t23 1.5t27 -7.5t27 -8.5t22.5 -0.5t13.5 15.5q3 13 0.5 30.5t-8.5 35.5t-14 35.5t-15 29.5q11 2 29.5 6.5t37 5t34 -6t20.5 -24.5q4 -13 7.5 -37.5t6 -51
t2.5 -51.5t-4 -40z" />
    <glyph glyph-name="onesuperior" unicode="&#xb9;" horiz-adv-x="261" 
d="M324 769q-7 -17 -24.5 -44.5t-40.5 -60.5t-49 -68.5t-50 -68.5t-43.5 -61t-29.5 -46q-5 -9 -13.5 -16t-17.5 -10t-18 -1.5t-14 10.5q-4 5 -5.5 22.5t9.5 32.5q28 39 67.5 94.5t87.5 123.5q-9 -4 -21 -11t-35 -5q-5 0 -9.5 5.5t-7.5 12.5t-3.5 14t2.5 11q10 14 26.5 22
t33.5 19q23 15 38.5 25.5t31.5 29.5q7 8 23 9.5t32 -2.5t26 -13.5t4 -23.5z" />
    <glyph glyph-name="guillemotright" unicode="&#xbb;" horiz-adv-x="797" 
d="M506 404q-8 -11 -22 -19.5t-29 -17t-30 -18t-26 -22.5q-86 -62 -169 -142.5t-155 -176.5q-20 -26 -51.5 -35t-56.5 -3q-25 7 -24.5 35.5t34.5 66.5q70 78 166.5 169.5t214.5 194.5q-2 61 -15 113.5t-29.5 98t-33.5 85t-27 73.5q-7 25 8.5 40t38.5 20t45.5 0t29.5 -20
q7 -16 16.5 -41t20.5 -54t22.5 -60t21 -59t17 -50t10.5 -34q5 -22 15 -39.5t17 -34t6.5 -33.5t-15.5 -37zM763 395q-8 -11 -22 -19.5t-29 -17t-30 -18t-26 -22.5q-86 -62 -169 -142.5t-155 -176.5q-20 -26 -51.5 -35t-56.5 -3q-25 7 -24.5 35.5t34.5 66.5q70 78 166.5 169.5
t214.5 194.5q-2 61 -15 113.5t-29.5 98t-33.5 85t-27 73.5q-7 25 8.5 40t38.5 20t45.5 0t29.5 -20q7 -16 16.5 -41t20.5 -54t22.5 -60t21 -59t17 -50t10.5 -34q5 -22 15 -39.5t17 -34t6.5 -33.5t-15.5 -37z" />
    <glyph glyph-name="onequarter" unicode="&#xbc;" horiz-adv-x="700" 
d="M783 732q-27 -24 -70.5 -62t-96 -84.5t-110.5 -97.5t-116 -101q-28 -24 -68 -63t-81.5 -80t-77.5 -78t-57 -58q-12 -12 -22 -27.5t-22.5 -31t-28 -30.5t-37.5 -26q-15 -8 -24 4.5t-11.5 34t2 47.5t18.5 46q27 39 51 68.5t46.5 54t45.5 46t49 45t56 51.5t66 65
q20 21 49.5 49t64 59.5t72 64.5t73 64.5t67.5 58.5t56 46q9 8 22.5 12t27 6t25.5 1.5t19 -3.5q9 -4 18.5 -9.5t13 -15t0 -23t-19.5 -33.5zM324 769q-7 -17 -24.5 -44.5t-40.5 -60.5t-49 -68.5t-50 -68.5t-43.5 -61t-29.5 -46q-5 -9 -13.5 -16t-17.5 -10t-18 -1.5t-14 10.5
q-4 5 -5.5 22.5t9.5 32.5q28 39 67.5 94.5t87.5 123.5q-9 -4 -21 -11t-35 -5q-5 0 -9.5 5.5t-7.5 12.5t-3.5 14t2.5 11q10 14 26.5 22t33.5 19q23 15 38.5 25.5t31.5 29.5q7 8 23 9.5t32 -2.5t26 -13.5t4 -23.5zM685 408q-1 -16 -4.5 -24t-8 -15t-10.5 -14.5t-14 -22.5
q-9 -15 -16.5 -32t-17.5 -37q15 -3 17 -14l4 -22q2 -14 -5 -21.5t-18.5 -12.5t-24.5 -10t-23 -14q-13 -24 -26.5 -51.5t-26.5 -59.5q-7 -19 -12 -38.5t-10.5 -32.5t-13.5 -16t-21 11q-12 13 -14 26t1 26t9 27l12 28q7 17 12 26t10 17t11 18t15 28q-17 -1 -35.5 -2t-35 -3
t-29.5 -5t-18 -9q-17 -18 -31.5 -21t-21.5 11q-3 6 -2.5 19.5t5.5 30t14.5 35.5t24.5 36l93 145q6 9 13.5 17.5t15 13.5t14.5 6.5t10 -2.5q19 -23 14 -40.5t-24 -37.5q-17 -17 -39 -50.5t-42 -75.5q14 4 27.5 4.5l27 1t28.5 2.5t33 8q14 24 26.5 54.5t24.5 59t24 50t27 26.5
q16 5 24.5 -10t6.5 -34z" />
    <glyph glyph-name="onehalf" unicode="&#xbd;" horiz-adv-x="772" 
d="M783 732q-27 -24 -70.5 -62t-96 -84.5t-110.5 -97.5t-116 -101q-28 -24 -68 -63t-81.5 -80t-77.5 -78t-57 -58q-12 -12 -22 -27.5t-22.5 -31t-28 -30.5t-37.5 -26q-15 -8 -24 4.5t-11.5 34t2 47.5t18.5 46q27 39 51 68.5t46.5 54t45.5 46t49 45t56 51.5t66 65
q20 21 49.5 49t64 59.5t72 64.5t73 64.5t67.5 58.5t56 46q9 8 22.5 12t27 6t25.5 1.5t19 -3.5q9 -4 18.5 -9.5t13 -15t0 -23t-19.5 -33.5zM312 768q-7 -17 -23.5 -45t-38.5 -61t-47 -69.5t-48 -70t-41.5 -62t-28.5 -46.5q-5 -9 -13 -16t-17 -10.5t-17.5 -2t-13.5 10.5
q-4 6 -5 23.5t9 32.5q26 40 64.5 96.5t84.5 125.5q-8 -4 -19.5 -10.5t-34.5 -5.5q-5 0 -9 5.5t-7 12.5t-3.5 14t2.5 11q9 15 24.5 23t32.5 19q23 15 38 25.5t30 29.5q6 8 22 10t31 -2t24.5 -13.5t3.5 -24.5zM684 334q0 -31 -14 -53.5t-35.5 -40.5t-47.5 -34t-51 -35
q-8 -6 -29 -20.5t-43 -30.5t-40.5 -30.5t-21.5 -22.5q28 0 51.5 2t43.5 2.5t37.5 -2t33.5 -11.5q29 -17 26 -34t-49 -18q-53 -2 -96.5 -7t-83.5 -20q-19 -8 -30.5 -1.5t-15.5 33.5q-2 20 3 43.5t19 40.5q8 9 32.5 28.5t55 41.5t60 42.5t45.5 31.5q21 14 38.5 27.5t27 25
t9.5 20.5t-14 15q-26 11 -55 9t-60 -15q-18 -15 -31 -18.5t-20.5 1.5t-9 16.5t2.5 24.5q7 21 28.5 34t48.5 19t54.5 6.5t45.5 -3.5q18 -3 33.5 -7t27 -11t18 -18.5t6.5 -30.5z" />
    <glyph glyph-name="threequarters" unicode="&#xbe;" horiz-adv-x="700" 
d="M783 732q-27 -24 -70.5 -62t-96 -84.5t-110.5 -97.5t-116 -101q-28 -24 -68 -63t-81.5 -80t-77.5 -78t-57 -58q-12 -12 -22 -27.5t-22.5 -31t-28 -30.5t-37.5 -26q-15 -8 -24 4.5t-11.5 34t2 47.5t18.5 46q27 39 51 68.5t46.5 54t45.5 46t49 45t56 51.5t66 65
q20 21 49.5 49t64 59.5t72 64.5t73 64.5t67.5 58.5t56 46q9 8 22.5 12t27 6t25.5 1.5t19 -3.5q9 -4 18.5 -9.5t13 -15t0 -23t-19.5 -33.5zM685 408q-1 -16 -4.5 -24t-8 -15t-10.5 -14.5t-14 -22.5q-9 -15 -16.5 -32t-17.5 -37q15 -3 17 -14l4 -22q2 -14 -5 -21.5
t-18.5 -12.5t-24.5 -10t-23 -14q-13 -24 -26.5 -51.5t-26.5 -59.5q-7 -19 -12 -38.5t-10.5 -32.5t-13.5 -16t-21 11q-12 13 -14 26t1 26t9 27l12 28q7 17 12 26t10 17t11 18t15 28q-17 -1 -35.5 -2t-35 -3t-29.5 -5t-18 -9q-17 -18 -31.5 -21t-21.5 11q-3 6 -2.5 19.5
t5.5 30t14.5 35.5t24.5 36l93 145q6 9 13.5 17.5t15 13.5t14.5 6.5t10 -2.5q19 -23 14 -40.5t-24 -37.5q-17 -17 -39 -50.5t-42 -75.5q14 4 27.5 4.5l27 1t28.5 2.5t33 8q14 24 26.5 54.5t24.5 59t24 50t27 26.5q16 5 24.5 -10t6.5 -34zM293 766q-2 -17 -6.5 -33t-19.5 -30
q-17 -15 -36.5 -32t-35.5 -38q7 -10 17 -24t17.5 -30.5t9 -35.5t-8.5 -41q-12 -25 -34 -46t-47.5 -37t-51.5 -24.5t-46 -7.5q-15 0 -32 3t-23 24q-5 15 -6.5 36t15.5 35q8 6 13 3t9 -9t8 -13t10 -10q14 -8 35.5 -2.5t40.5 15.5q26 14 39 28t18 26q4 10 1.5 21t-8.5 21
t-14 16.5t-14 7.5q-14 2 -25.5 -7.5t-27.5 -15.5q-4 -1 -7 2.5t-5 10t-2.5 14.5t0.5 15q2 18 15.5 26t22.5 13q17 10 31 18.5t27 18t25 21t25 26.5q-6 6 -22 7t-33.5 -1t-32 -5t-19.5 -5q-9 -4 -19 -10t-20 8q-18 27 -11 42.5t21 20.5q9 3 25 5.5l32 5t29.5 3.5t18.5 0
q8 -1 25.5 -1.5t35 -3.5t30.5 -10t11 -21z" />
    <glyph glyph-name="questiondown" unicode="&#xbf;" horiz-adv-x="683" 
d="M-24 172q-4 38 11 70t43 59t65.5 48.5t78.5 38t82 27.5t75 17q20 3 43.5 8t47 16t44 29.5t32.5 48.5q4 10 14 18.5t22 12t24 0.5t21 -16q6 -8 10.5 -23.5t5 -35t-5 -42t-20.5 -43.5q-19 -28 -44 -39.5t-54.5 -16t-63.5 -7.5t-70 -15q-30 -10 -63 -23t-62.5 -27.5
t-53.5 -30t-37.5 -31t-13 -30t19.5 -28.5q26 -18 64.5 -30t81 -13t86.5 11t81 42q6 5 11.5 15t12.5 20.5t15.5 18.5t20.5 9q17 1 31.5 -8t24 -23.5t13.5 -31t0 -29.5q-10 -31 -40.5 -55t-73.5 -41t-93 -27t-98 -12.5t-89.5 2t-67.5 16.5q-37 17 -61 29.5t-38 27.5t-21 36.5
t-11 57.5zM536 744q8 16 20.5 26t26.5 15t26.5 6t20.5 0q40 -5 49.5 -21t5.5 -45q-2 -21 -16 -37.5t-33.5 -26.5t-41.5 -12t-40 5q-16 7 -23 17.5t-7.5 23t3 25.5t9.5 24z" />
    <glyph glyph-name="Agrave" unicode="&#xc0;" horiz-adv-x="672" 
d="M764 613q2 -18 -3 -40t-13.5 -45.5t-18 -46t-17.5 -41.5q-13 -33 -28.5 -74t-32.5 -84t-33.5 -85t-31.5 -77.5t-27 -61.5t-19 -37q-12 -10 -28 -15.5t-31.5 -7t-28 1t-16.5 7.5q-11 21 -11.5 36.5t4.5 28.5q6 15 16.5 28t20.5 27t17 30.5t5 38.5q-37 -4 -81 -12.5
t-89 -17t-87.5 -14.5t-76.5 -5q-26 -13 -42.5 -38t-30.5 -50t-29 -44t-39 -22q-22 2 -39 11q-14 8 -23.5 23t-2.5 41q2 7 10 18t19 24.5t24.5 28t25.5 27.5l11 47q16 26 36 35t43 14q36 23 76 57.5t83 73.5t88 80t91 77.5t92.5 65.5t92.5 45q21 7 42.5 4.5t39 -11t29.5 -20
t13 -21.5zM610 516q-30 -13 -62.5 -34t-64 -46.5t-61 -52.5t-55 -51t-45 -43t-30.5 -28l229 48q14 22 28 52.5t25.5 61.5t21 56.5t14.5 36.5zM684 831q14 -1 22 -11t10.5 -23.5t-1.5 -29t-13.5 -27.5t-24.5 -18.5t-35 -2.5q-22 4 -45.5 11.5t-49 15t-53.5 14.5t-60 11
q-36 4 -54 21.5t-20.5 39t9 43t35.5 34.5q7 4 17.5 2t22 -6.5t21.5 -9.5t17 -8q21 -9 46 -18t51.5 -16.5t53 -13.5t51.5 -8z" />
    <glyph glyph-name="Aacute" unicode="&#xc1;" horiz-adv-x="672" 
d="M770 643q2 -19 -3 -42t-13.5 -47t-18 -47.5t-17.5 -43.5q-13 -35 -29 -78t-33 -88t-34 -89.5t-32 -81.5t-27 -64.5t-19 -38.5q-12 -11 -28 -16.5t-32 -7t-28 1t-16 8.5q-11 21 -12 37.5t4 30.5q6 15 16.5 28.5t20.5 28.5t17 32t5 40q-37 -4 -81.5 -13t-89.5 -17.5
t-88 -15t-77 -5.5q-27 -14 -43.5 -40t-30.5 -52t-29 -46t-39 -23q-23 3 -40 12q-14 8 -23.5 23.5t-2.5 42.5q2 8 10.5 19.5t19.5 25.5t24.5 29t25.5 29l11 49q17 28 36.5 37.5t42.5 14.5q37 24 77.5 60t83.5 77t88.5 84t91.5 81t93 69t93 47q21 7 43 4t40 -11.5t30 -20.5
t13 -23zM614 542q-45 -20 -94.5 -59t-94 -80.5t-79.5 -77.5t-52 -51l231 51q14 23 28 55t25.5 64t21 59t14.5 39zM775 909q6 -2 14.5 -10.5t15 -20.5t10.5 -25.5t0.5 -27t-16 -24.5t-37.5 -17q-32 -8 -67 -11t-60 -14q-27 -13 -54 -19.5t-47 -14.5q-21 -9 -36.5 4.5t-23 34
t-5.5 42t17 28.5q14 7 41 16.5t55.5 18.5t53.5 16.5t35 11.5q23 9 47.5 16.5t56.5 -4.5z" />
    <glyph glyph-name="Acircumflex" unicode="&#xc2;" horiz-adv-x="672" 
d="M764 613q2 -18 -3 -40t-13.5 -45.5t-18 -46t-17.5 -41.5q-13 -33 -28.5 -74t-32.5 -84t-33.5 -85t-31.5 -77.5t-27 -61.5t-19 -37q-12 -10 -28 -15.5t-31.5 -7t-28 1t-16.5 7.5q-11 21 -11.5 36.5t4.5 28.5q6 15 16.5 28t20.5 27t17 30.5t5 38.5q-37 -4 -81 -12.5
t-89 -17t-87.5 -14.5t-76.5 -5q-26 -13 -42.5 -38t-30.5 -50t-29 -44t-39 -22q-22 2 -39 11q-14 8 -23.5 23t-2.5 41q2 7 10 18t19 24.5t24.5 28t25.5 27.5l11 47q16 26 36 35t43 14q36 23 76 57.5t83 73.5t88 80t91 77.5t92.5 65.5t92.5 45q21 7 42.5 4.5t39 -11t29.5 -20
t13 -21.5zM610 516q-30 -13 -62.5 -34t-64 -46.5t-61 -52.5t-55 -51t-45 -43t-30.5 -28l229 48q14 22 28 52.5t25.5 61.5t21 56.5t14.5 36.5zM879 710q-36 -53 -92 -21q-32 20 -62 43.5t-68 58.5q-51 -21 -101.5 -55.5t-99.5 -61.5q-30 -16 -47.5 -7t-22.5 30t3.5 46
t32.5 40q15 9 41 25.5t53.5 33t51.5 30.5t34 19q14 7 26 15.5t25 16.5q28 16 48.5 11t30.5 -24q3 -5 5 -11t7 -11q26 -28 55.5 -53.5t68.5 -41.5q25 -10 25 -35.5t-14 -47.5z" />
    <glyph glyph-name="Atilde" unicode="&#xc3;" horiz-adv-x="672" 
d="M764 613q2 -18 -3 -40t-13.5 -45.5t-18 -46t-17.5 -41.5q-13 -33 -28.5 -74t-32.5 -84t-33.5 -85t-31.5 -77.5t-27 -61.5t-19 -37q-12 -10 -28 -15.5t-31.5 -7t-28 1t-16.5 7.5q-11 21 -11.5 36.5t4.5 28.5q6 15 16.5 28t20.5 27t17 30.5t5 38.5q-37 -4 -81 -12.5
t-89 -17t-87.5 -14.5t-76.5 -5q-26 -13 -42.5 -38t-30.5 -50t-29 -44t-39 -22q-22 2 -39 11q-14 8 -23.5 23t-2.5 41q2 7 10 18t19 24.5t24.5 28t25.5 27.5l11 47q16 26 36 35t43 14q36 23 76 57.5t83 73.5t88 80t91 77.5t92.5 65.5t92.5 45q21 7 42.5 4.5t39 -11t29.5 -20
t13 -21.5zM610 516q-30 -13 -62.5 -34t-64 -46.5t-61 -52.5t-55 -51t-45 -43t-30.5 -28l229 48q14 22 28 52.5t25.5 61.5t21 56.5t14.5 36.5zM936 830q2 -23 -6.5 -41t-23.5 -34t-34.5 -30t-39.5 -29q-14 -10 -26.5 -12.5t-24.5 -2.5q-20 0 -36.5 6.5t-30.5 16.5t-27 20.5
t-26 19.5q-13 8 -23.5 15t-24.5 7q-6 0 -11.5 -5t-10.5 -12.5t-9.5 -16t-7.5 -14.5q-10 -17 -24.5 -25t-37.5 -8q-6 0 -13 5.5t-12 13t-8.5 16.5t-3.5 16q0 12 9.5 24t12.5 16q12 15 27 33t31 34.5t32.5 27.5t30.5 11q27 0 43.5 -6.5t30 -17t28 -24t36.5 -28.5
q20 -12 33.5 -16t24.5 4q10 8 21 19.5t22.5 22.5t23.5 19t24 8q13 0 21 -9.5t10 -23.5z" />
    <glyph glyph-name="Adieresis" unicode="&#xc4;" horiz-adv-x="672" 
d="M764 613q2 -18 -3 -40t-13.5 -45.5t-18 -46t-17.5 -41.5q-13 -33 -28.5 -74t-32.5 -84t-33.5 -85t-31.5 -77.5t-27 -61.5t-19 -37q-12 -10 -28 -15.5t-31.5 -7t-28 1t-16.5 7.5q-11 21 -11.5 36.5t4.5 28.5q6 15 16.5 28t20.5 27t17 30.5t5 38.5q-37 -4 -81 -12.5
t-89 -17t-87.5 -14.5t-76.5 -5q-26 -13 -42.5 -38t-30.5 -50t-29 -44t-39 -22q-22 2 -39 11q-14 8 -23.5 23t-2.5 41q2 7 10 18t19 24.5t24.5 28t25.5 27.5l11 47q16 26 36 35t43 14q36 23 76 57.5t83 73.5t88 80t91 77.5t92.5 65.5t92.5 45q21 7 42.5 4.5t39 -11t29.5 -20
t13 -21.5zM610 516q-30 -13 -62.5 -34t-64 -46.5t-61 -52.5t-55 -51t-45 -43t-30.5 -28l229 48q14 22 28 52.5t25.5 61.5t21 56.5t14.5 36.5zM827 765q-13 -25 -24.5 -40.5t-39.5 -21.5q-18 -4 -30.5 -0.5t-21 13t-14 24t-9.5 30.5q-3 15 3.5 34t20 35t33 25.5t40.5 5.5
q23 -4 35 -15.5t16 -26.5t1 -32t-10 -31zM603 778q0 -18 -6 -31.5t-14.5 -23.5t-18 -15.5t-17.5 -7.5q-38 -10 -58 3.5t-29 40.5q-7 21 -2 41.5t18 36.5t32 25.5t38 8.5q18 0 29 -8t17 -19.5t8.5 -25t2.5 -25.5z" />
    <glyph glyph-name="Aring" unicode="&#xc5;" horiz-adv-x="672" 
d="M764 613q2 -18 -3 -40t-13.5 -45.5t-18 -46t-17.5 -41.5q-13 -33 -28.5 -74t-32.5 -84t-33.5 -85t-31.5 -77.5t-27 -61.5t-19 -37q-12 -10 -28 -15.5t-31.5 -7t-28 1t-16.5 7.5q-11 21 -11.5 36.5t4.5 28.5q6 15 16.5 28t20.5 27t17 30.5t5 38.5q-37 -4 -81 -12.5
t-89 -17t-87.5 -14.5t-76.5 -5q-26 -13 -42.5 -38t-30.5 -50t-29 -44t-39 -22q-22 2 -39 11q-14 8 -23.5 23t-2.5 41q2 7 10 18t19 24.5t24.5 28t25.5 27.5l11 47q16 26 36 35t43 14q36 23 76 57.5t83 73.5t88 80t91 77.5t92.5 65.5t92.5 45q21 7 42.5 4.5t39 -11t29.5 -20
t13 -21.5zM610 516q-30 -13 -62.5 -34t-64 -46.5t-61 -52.5t-55 -51t-45 -43t-30.5 -28l229 48q14 22 28 52.5t25.5 61.5t21 56.5t14.5 36.5zM819 875q17 -13 23 -32t2.5 -38.5t-15 -38t-31.5 -29.5q-57 -32 -142 -44q-34 -5 -70 -5.5t-72 10.5q-20 6 -30.5 14.5t-15.5 18
t-6 19.5t-1 19q0 36 20.5 68t74.5 63q25 14 60 24t71 6q24 -3 41 -7t31.5 -10t28.5 -15t31 -23zM739 793q7 8 3 20t-15.5 22.5t-27.5 18t-32 7.5q-23 0 -49 -10.5t-40 -24.5q-8 -7 -15.5 -18.5t-9.5 -22.5t4.5 -20.5t26.5 -14.5q21 -4 43.5 -3.5t43.5 6.5t39 16t29 24z" />
    <glyph glyph-name="AE" unicode="&#xc6;" horiz-adv-x="1136" 
d="M1245 797q13 -6 15 -25.5t-3.5 -40t-17 -36.5t-26.5 -16q-111 5 -217.5 -4.5t-194.5 -40.5q-12 -16 -21.5 -34t-17.5 -37t-17 -38t-20 -36q49 3 90.5 8.5t82.5 12.5t84.5 14t95.5 13q32 3 54.5 -14t29 -40t-6.5 -44t-51 -26q-63 -9 -107.5 -16t-87 -13.5t-90.5 -13
t-116 -13.5q-5 -10 -15 -25.5t-21 -34t-21 -38t-15 -38t-3 -35t15 -28.5q25 -24 57.5 -25.5t66.5 7.5t67 24.5t59 26.5q15 6 31 10.5t31 4.5t26.5 -6.5t17.5 -23.5q5 -14 2 -28.5t-10.5 -27.5t-18.5 -24t-23 -18q-22 -13 -52 -28.5t-61.5 -29t-62 -22.5t-54.5 -8
q-50 2 -94.5 13t-79.5 36q-1 -3 -2 -5l-2 -4q-12 -13 -28 -19.5t-31.5 -8.5t-28 1t-16.5 10q-11 25 -11.5 43.5t4.5 35.5q6 21 19.5 39.5t24.5 40.5q1 31 14 69v1q-37 -5 -81 -15t-89 -20.5t-87.5 -17.5t-76.5 -6q-26 -17 -42.5 -47t-30.5 -60t-29 -53.5t-39 -26.5
q-22 2 -39 13q-14 9 -23.5 27t-2.5 50q2 9 10 22.5t19 30t24.5 34t25.5 33.5l11 56q16 32 36 43.5t43 16.5q36 28 76.5 70t83 89.5t87.5 97t91 93.5t93 79.5t93 54.5q18 8 37.5 6t36 -9.5t29 -19t18.5 -23.5q20 14 52 22t67 13.5t68.5 8.5t54.5 6q81 11 145.5 6t95.5 -19z
M611 630q-30 -15 -62.5 -41t-64 -56.5t-61.5 -63t-55.5 -62t-45 -52.5t-30.5 -34l230 59q14 26 28 63t25.5 74t21 68t14.5 45z" />
    <glyph glyph-name="Ccedilla" unicode="&#xc7;" horiz-adv-x="720" 
d="M810 681q-10 -26 -25.5 -48t-32.5 -35t-36 -15t-37 12q-14 11 -13 25t6 28t10 26.5t-1 18.5q-16 15 -48 9.5t-72.5 -25t-86 -49.5t-88.5 -63.5t-79 -66t-58 -58.5q-26 -29 -34 -64.5t0 -63.5q13 -42 43 -61.5t69 -23.5t83.5 4.5t85.5 21.5q19 6 36 13t32 11t29 3t26 -11
q7 -6 4 -18t-11.5 -25.5t-20 -25.5t-20.5 -17q-57 -29 -116 -43t-116 -15q3 -17 5 -36.5t2.5 -38.5t0 -35.5t-3.5 -26.5q-8 -30 -22.5 -40.5t-33 -10t-39.5 7.5t-41 12q-15 4 -32 11t-31 17t-21 23t-3 29q4 15 14 18.5t23 1t27 -8t27 -8.5t22.5 -0.5t13.5 16.5q4 16 -1 38
t-14 44q-41 12 -72.5 33t-51.5 51q-41 64 -30 140t80 146q43 44 105 93.5t130 93.5t137 76t126 39q47 6 81.5 -1.5t55 -25t25.5 -44t-8 -58.5z" />
    <glyph glyph-name="Egrave" unicode="&#xc8;" 
d="M784 693q14 -6 16 -22.5t-3.5 -34.5t-17.5 -32t-27 -14q-55 2 -91.5 4t-66.5 1t-60.5 -6.5t-74.5 -18.5q-12 -14 -31 -32.5t-39 -38t-38 -38t-30 -33.5q50 2 82 6.5t62 10t64 11t87 9.5q32 3 54.5 -12t29.5 -34.5t-6 -38t-51 -23.5q-63 -7 -108.5 -13t-88.5 -12
t-91.5 -12t-117.5 -12q-8 -13 -25.5 -36t-32 -48.5t-18.5 -49.5t15 -39q26 -21 58.5 -22.5t67 6.5t67.5 21.5t60 23.5q15 5 31.5 9t31.5 4t26.5 -6t17.5 -21q5 -12 2 -24.5t-10.5 -24t-18.5 -21t-23 -15.5q-23 -11 -53 -25t-61.5 -25.5t-62.5 -19.5t-55 -7q-41 1 -78.5 7.5
t-68.5 20t-55 34.5t-38 51q-11 24 -7.5 52.5t16.5 59.5t33 62.5t41 61t41.5 56t33.5 46.5q14 21 27.5 38t27.5 33t29.5 32t33.5 35q8 9 1 17t-13 22q-8 18 3 31t33.5 22t53.5 14.5t63 9.5t61.5 6.5t48.5 4.5q41 5 78 6t69 -0.5t56.5 -6t39.5 -10.5zM694 858q21 -2 28.5 -22
t2 -42t-24 -38t-48.5 -10q-44 8 -94.5 26t-113.5 26q-36 4 -54 21.5t-20.5 39t9 43t35.5 33.5q7 4 17.5 2t22 -6t21.5 -9t17 -8q42 -18 97 -35t105 -21z" />
    <glyph glyph-name="Eacute" unicode="&#xc9;" 
d="M784 693q14 -6 16 -22.5t-3.5 -34.5t-17.5 -32t-27 -14q-55 2 -91.5 4t-66.5 1t-60.5 -6.5t-74.5 -18.5q-12 -14 -31 -32.5t-39 -38t-38 -38t-30 -33.5q50 2 82 6.5t62 10t64 11t87 9.5q32 3 54.5 -12t29.5 -34.5t-6 -38t-51 -23.5q-63 -7 -108.5 -13t-88.5 -12
t-91.5 -12t-117.5 -12q-8 -13 -25.5 -36t-32 -48.5t-18.5 -49.5t15 -39q26 -21 58.5 -22.5t67 6.5t67.5 21.5t60 23.5q15 5 31.5 9t31.5 4t26.5 -6t17.5 -21q5 -12 2 -24.5t-10.5 -24t-18.5 -21t-23 -15.5q-23 -11 -53 -25t-61.5 -25.5t-62.5 -19.5t-55 -7q-41 1 -78.5 7.5
t-68.5 20t-55 34.5t-38 51q-11 24 -7.5 52.5t16.5 59.5t33 62.5t41 61t41.5 56t33.5 46.5q14 21 27.5 38t27.5 33t29.5 32t33.5 35q8 9 1 17t-13 22q-8 18 3 31t33.5 22t53.5 14.5t63 9.5t61.5 6.5t48.5 4.5q41 5 78 6t69 -0.5t56.5 -6t39.5 -10.5zM775 909q6 -2 14.5 -10.5
t15 -20.5t10.5 -25.5t0.5 -27t-16 -24.5t-37.5 -17q-32 -8 -67 -11t-60 -14q-27 -13 -54 -19.5t-47 -14.5q-21 -9 -36.5 4.5t-23 34t-5.5 42t17 28.5q14 7 41 16.5t55.5 18.5t53.5 16.5t35 11.5q23 9 47.5 16.5t56.5 -4.5z" />
    <glyph glyph-name="Ecircumflex" unicode="&#xca;" 
d="M781 659q14 -5 16 -21t-3.5 -33.5t-17.5 -30.5t-27 -13q-55 2 -91 4t-66 1t-60.5 -6t-74.5 -18q-12 -13 -31 -31t-38.5 -36.5t-37.5 -36.5t-30 -32q49 2 81.5 6.5t62 9.5t63.5 10.5t86 9.5q32 3 54.5 -11t29.5 -33t-6 -36.5t-51 -22.5q-63 -7 -108.5 -12.5t-88 -11
t-90.5 -11t-117 -11.5q-7 -13 -24.5 -35t-32 -46t-19 -47t14.5 -38q26 -19 58.5 -20.5t67 6t67.5 20.5t59 22q15 5 31.5 9t31.5 4t26.5 -6t17.5 -20q5 -11 2 -23t-10.5 -23t-18.5 -20t-23 -15q-23 -11 -53 -24t-61.5 -24t-62 -18.5t-54.5 -6.5q-40 1 -77.5 7.5t-68.5 19
t-55 32.5t-38 49q-11 23 -7.5 50t16.5 56.5t32.5 59t40.5 57.5t41.5 53.5t33.5 44.5q14 20 27.5 36t27.5 31.5t29.5 31l33.5 33.5q8 8 1 15.5t-13 21.5q-8 17 3 29.5t33.5 21t53.5 14t62.5 9t61 6t48.5 4.5q81 8 146.5 4t95.5 -15zM758 742q-16 -22 -37 -27t-47 9
q-29 17 -56.5 37t-61.5 50q-47 -17 -92.5 -47t-90.5 -53q-27 -14 -43 -6t-20.5 26t3.5 39.5t29 34.5q13 8 37 21.5t49 28t47 26.5t31 16q12 6 23 13.5t23 14.5q26 14 45 9.5t27 -20.5q2 -5 4.5 -10t6.5 -9q23 -24 50 -46t63 -36q11 -4 16.5 -12t6 -18t-3 -21t-9.5 -20z" />
    <glyph glyph-name="Edieresis" unicode="&#xcb;" 
d="M784 693q14 -6 16 -22.5t-3.5 -34.5t-17.5 -32t-27 -14q-55 2 -91.5 4t-66.5 1t-60.5 -6.5t-74.5 -18.5q-12 -14 -31 -32.5t-39 -38t-38 -38t-30 -33.5q50 2 82 6.5t62 10t64 11t87 9.5q32 3 54.5 -12t29.5 -34.5t-6 -38t-51 -23.5q-63 -7 -108.5 -13t-88.5 -12
t-91.5 -12t-117.5 -12q-8 -13 -25.5 -36t-32 -48.5t-18.5 -49.5t15 -39q26 -21 58.5 -22.5t67 6.5t67.5 21.5t60 23.5q15 5 31.5 9t31.5 4t26.5 -6t17.5 -21q5 -12 2 -24.5t-10.5 -24t-18.5 -21t-23 -15.5q-23 -11 -53 -25t-61.5 -25.5t-62.5 -19.5t-55 -7q-41 1 -78.5 7.5
t-68.5 20t-55 34.5t-38 51q-11 24 -7.5 52.5t16.5 59.5t33 62.5t41 61t41.5 56t33.5 46.5q14 21 27.5 38t27.5 33t29.5 32t33.5 35q8 9 1 17t-13 22q-8 18 3 31t33.5 22t53.5 14.5t63 9.5t61.5 6.5t48.5 4.5q41 5 78 6t69 -0.5t56.5 -6t39.5 -10.5zM775 804
q-12 -25 -23.5 -40.5t-39.5 -21.5q-18 -4 -31 -0.5t-21.5 13t-13.5 24t-9 30.5q-4 15 3 34t20.5 35t33 25.5t40.5 5.5q23 -4 35 -15.5t15.5 -26.5t1 -32t-10.5 -31zM552 817q0 -18 -6 -31.5t-14.5 -23.5t-18 -15.5t-17.5 -7.5q-38 -10 -58 3.5t-29 41.5q-7 21 -2 41t18 36
t32 25.5t38 8.5q18 0 29 -8t17 -19.5t8.5 -25t2.5 -25.5z" />
    <glyph glyph-name="Igrave" unicode="&#xcc;" horiz-adv-x="634" 
d="M754 626q0 -25 -21 -40.5t-50 -24t-59.5 -11.5t-50.5 -3h-20.5t-17.5 -1q-18 -39 -49.5 -92t-68.5 -111t-76 -115.5t-71 -105.5q16 0 32 0.5t35 0.5h28.5t27.5 -2.5t21 -9.5t8 -21q0 -33 -23.5 -46.5t-62.5 -16.5q-69 -6 -136.5 -17.5t-143.5 -11.5q-42 0 -71.5 15
t-29.5 48q0 31 22.5 41.5t57.5 10.5q23 0 45 -2.5t45 -1.5q26 39 60.5 89.5t72.5 106.5t76.5 114.5t72.5 114.5q-15 -2 -29.5 -4t-28.5 -2q-18 0 -36 6.5t-31.5 17t-22 24.5t-8.5 28q0 18 20.5 24.5t47.5 8t53.5 0t38.5 -0.5q69 5 139 9t136 4q11 0 23 -0.5t22 -2.5t16.5 -7
t6.5 -13zM684 831q14 -1 22 -11t10.5 -23.5t-1.5 -29t-13.5 -27.5t-24.5 -18.5t-35 -2.5q-22 4 -45.5 11.5t-49 15t-53.5 14.5t-60 11q-36 4 -54 21.5t-20.5 39t9 43t35.5 34.5q7 4 17.5 2t22 -6.5t21.5 -9.5t17 -8q21 -9 46 -18t51.5 -16.5t53 -13.5t51.5 -8z" />
    <glyph glyph-name="Iacute" unicode="&#xcd;" horiz-adv-x="634" 
d="M754 626q0 -25 -21 -40.5t-50 -24t-59.5 -11.5t-50.5 -3h-20.5t-17.5 -1q-18 -39 -49.5 -92t-68.5 -111t-76 -115.5t-71 -105.5q16 0 32 0.5t35 0.5h28.5t27.5 -2.5t21 -9.5t8 -21q0 -33 -23.5 -46.5t-62.5 -16.5q-69 -6 -136.5 -17.5t-143.5 -11.5q-42 0 -71.5 15
t-29.5 48q0 31 22.5 41.5t57.5 10.5q23 0 45 -2.5t45 -1.5q26 39 60.5 89.5t72.5 106.5t76.5 114.5t72.5 114.5q-15 -2 -29.5 -4t-28.5 -2q-18 0 -36 6.5t-31.5 17t-22 24.5t-8.5 28q0 18 20.5 24.5t47.5 8t53.5 0t38.5 -0.5q69 5 139 9t136 4q11 0 23 -0.5t22 -2.5t16.5 -7
t6.5 -13zM775 909q6 -2 14.5 -10.5t15 -20.5t10.5 -25.5t0.5 -27t-16 -24.5t-37.5 -17q-32 -8 -67 -11t-60 -14q-27 -13 -54 -19.5t-47 -14.5q-21 -9 -36.5 4.5t-23 34t-5.5 42t17 28.5q14 7 41 16.5t55.5 18.5t53.5 16.5t35 11.5q23 9 47.5 16.5t56.5 -4.5z" />
    <glyph glyph-name="Icircumflex" unicode="&#xce;" horiz-adv-x="634" 
d="M754 626q0 -25 -21 -40.5t-50 -24t-59.5 -11.5t-50.5 -3h-20.5t-17.5 -1q-18 -39 -49.5 -92t-68.5 -111t-76 -115.5t-71 -105.5q16 0 32 0.5t35 0.5h28.5t27.5 -2.5t21 -9.5t8 -21q0 -33 -23.5 -46.5t-62.5 -16.5q-69 -6 -136.5 -17.5t-143.5 -11.5q-42 0 -71.5 15
t-29.5 48q0 31 22.5 41.5t57.5 10.5q23 0 45 -2.5t45 -1.5q26 39 60.5 89.5t72.5 106.5t76.5 114.5t72.5 114.5q-15 -2 -29.5 -4t-28.5 -2q-18 0 -36 6.5t-31.5 17t-22 24.5t-8.5 28q0 18 20.5 24.5t47.5 8t53.5 0t38.5 -0.5q69 5 139 9t136 4q11 0 23 -0.5t22 -2.5t16.5 -7
t6.5 -13zM748 731q-31 -49 -82 -19q-29 17 -56 38.5t-60 53.5q-46 -18 -91.5 -49.5t-89.5 -56.5q-27 -15 -43 -6.5t-20.5 27.5t3.5 42t29 36q13 9 36.5 23.5t48.5 29.5t46.5 27.5t30.5 17.5q12 6 23 14t23 15q25 14 43.5 9.5t26.5 -21.5q3 -5 5 -10t7 -9q23 -26 49.5 -49
t61.5 -38q22 -9 22 -32t-13 -43z" />
    <glyph glyph-name="Idieresis" unicode="&#xcf;" horiz-adv-x="634" 
d="M754 626q0 -25 -21 -40.5t-50 -24t-59.5 -11.5t-50.5 -3h-20.5t-17.5 -1q-18 -39 -49.5 -92t-68.5 -111t-76 -115.5t-71 -105.5q16 0 32 0.5t35 0.5h28.5t27.5 -2.5t21 -9.5t8 -21q0 -33 -23.5 -46.5t-62.5 -16.5q-69 -6 -136.5 -17.5t-143.5 -11.5q-42 0 -71.5 15
t-29.5 48q0 31 22.5 41.5t57.5 10.5q23 0 45 -2.5t45 -1.5q26 39 60.5 89.5t72.5 106.5t76.5 114.5t72.5 114.5q-15 -2 -29.5 -4t-28.5 -2q-18 0 -36 6.5t-31.5 17t-22 24.5t-8.5 28q0 18 20.5 24.5t47.5 8t53.5 0t38.5 -0.5q69 5 139 9t136 4q11 0 23 -0.5t22 -2.5t16.5 -7
t6.5 -13zM735 765q-12 -25 -24 -40.5t-39 -21.5q-18 -4 -31 -0.5t-21.5 13t-13.5 24t-9 30.5q-4 15 3 34t20.5 35t32.5 25.5t40 5.5q23 -4 35 -15.5t16 -26.5t1.5 -32t-10.5 -31zM512 778q0 -18 -6 -31.5t-14.5 -23.5t-18 -15.5t-17.5 -7.5q-38 -10 -58 3.5t-30 40.5
q-7 21 -2 41.5t18.5 36.5t32 25.5t38.5 8.5q18 0 29 -8t17 -19.5t8.5 -25t2.5 -25.5z" />
    <glyph glyph-name="Eth" unicode="&#xd0;" horiz-adv-x="642" 
d="M667 639q11 -38 12.5 -87t-6.5 -101.5t-24.5 -106t-42 -101.5t-59.5 -87.5t-77 -64.5q-55 -33 -109.5 -58.5t-105 -39.5t-97 -15.5t-86.5 13.5q-41 15 -57.5 34t-15 45t16 60t35.5 80q18 42 42 87q-23 -2 -40 7t-22 38q-6 40 4 60t30.5 27.5t47.5 7.5h55q39 72 76 140
t63 126q-15 19 -11 39.5t20.5 36.5t43 25t58.5 4q59 -9 100.5 -21t70.5 -31t47.5 -47.5t30.5 -69.5zM519 333q20 43 31 94t5.5 97.5t-32.5 82t-83 48.5q-41 -49 -69.5 -95t-55.5 -97q17 2 33 0.5t27.5 -7.5t18 -18.5t5.5 -33.5q-1 -24 -15.5 -36.5t-36.5 -18.5t-49 -8
t-53 -5l-11 -19q-8 -13 -19 -39t-23 -55.5t-23.5 -57t-19.5 -44.5q62 4 120 20.5t106.5 44.5t86 65t57.5 82z" />
    <glyph glyph-name="Ntilde" unicode="&#xd1;" horiz-adv-x="618" 
d="M833 830q2 -23 -6.5 -41t-23.5 -34t-35 -30t-40 -29q-14 -10 -26 -12.5t-25 -2.5q-20 0 -36.5 6.5t-30.5 16.5t-26.5 20.5t-25.5 19.5q-13 8 -23.5 15t-24.5 7q-6 0 -11.5 -5t-10.5 -12.5t-9.5 -16t-7.5 -14.5q-10 -17 -24.5 -25t-37.5 -8q-6 0 -13 5.5t-12.5 13t-9 16.5
t-3.5 16q0 12 10 24t13 16q12 15 26.5 33t31 34.5t32.5 27.5t31 11q27 0 43.5 -6.5t30 -17t28 -24t36.5 -28.5q20 -12 33.5 -16t24.5 4q10 8 21 19.5t22.5 22.5t23.5 19t24 8q13 0 21 -9.5t10 -23.5zM774 654q38 -8 26.5 -42.5t-73.5 -109.5q-8 -10 -28 -41.5t-45.5 -74
t-54.5 -90.5t-54.5 -91.5t-46 -77t-30.5 -46.5q-12 -17 -24 -32.5t-25.5 -28t-30 -21t-38.5 -11.5q-38 4 -56 19t-22 39q-3 19 -3.5 52t0 69t0 70.5t-3.5 55.5q-41 -42 -69 -79t-48 -69.5t-33 -61t-24 -54.5q-3 -7 -9.5 -14.5t-15.5 -13t-19.5 -8t-22.5 -0.5q-29 5 -42.5 15
t-15.5 23.5t4.5 29t17.5 31.5q8 11 30 43.5t51 76t61 92t60 91t48 73.5t24 40q12 23 24 43.5t26 36.5t31.5 27.5t40.5 15.5q49 11 69 -3t13 -40q-10 -37 -29 -88t-34 -106.5t-20.5 -109.5t11.5 -97q33 34 66.5 86t67.5 110t69 116.5t71 105.5q21 27 44.5 42t61.5 7z" />
    <glyph glyph-name="Ograve" unicode="&#xd2;" horiz-adv-x="828" 
d="M839 590q37 -21 50.5 -52t10 -68t-20 -77t-40.5 -78.5t-51.5 -73t-52.5 -60.5q-69 -72 -148 -118t-181 -66q-36 -7 -80 -4.5t-87 13.5t-79 29t-56 43q-36 45 -45 88.5t1.5 87t37 88.5t63.5 93q42 56 101 96t126.5 67t140 42t140.5 19q26 2 45.5 -3t38 -14.5t39 -23
t47.5 -28.5zM734 501q-30 32 -74 40.5t-93.5 -0.5t-101.5 -32t-99 -55q-25 -17 -52 -40t-51.5 -49.5t-43.5 -55.5t-28 -57.5t-4.5 -55t26.5 -49.5q21 -21 58.5 -28.5t81 -4t88.5 17t82 34.5q39 22 74 52t62.5 62.5t47.5 66t30 63.5t10 54t-13 37zM780 828q14 -1 22 -11
t10.5 -23.5t-1.5 -29t-13.5 -27.5t-24.5 -18.5t-35 -2.5q-22 4 -45.5 11.5t-49 15t-53.5 14.5t-60 11q-36 4 -54 21.5t-20.5 39t9 43t35.5 33.5q7 4 17.5 2t22 -6t21.5 -9t17 -8q21 -9 46 -18t51.5 -16.5t53 -13.5t51.5 -8z" />
    <glyph glyph-name="Oacute" unicode="&#xd3;" horiz-adv-x="828" 
d="M839 603q37 -21 50.5 -53t10.5 -69.5t-20 -78.5t-40.5 -80.5t-51 -75t-52.5 -61.5q-69 -73 -148 -120t-182 -67q-35 -7 -79.5 -4.5t-87.5 13.5t-79 29.5t-56 43.5q-36 46 -45 90t1.5 88.5t37 91t63.5 95.5q42 57 101.5 98t127 69t139.5 43t140 19q26 2 46 -3t38.5 -15
t38.5 -23.5t47 -29.5zM734 512q-30 32 -73.5 41t-93.5 0t-101.5 -32.5t-98.5 -56.5q-25 -17 -52 -40.5t-51.5 -50.5t-44 -56.5t-28 -58.5t-4.5 -56.5t26 -50.5q21 -22 58.5 -29.5t81.5 -4t89 17.5t82 35q59 34 106.5 84t77 100.5t37.5 93.5t-11 64zM890 909q6 -2 14.5 -10.5
t15 -20.5t10.5 -25.5t0.5 -27t-16 -24.5t-37.5 -17q-32 -8 -67 -11t-60 -14q-27 -13 -54 -19.5t-47 -14.5q-21 -9 -36.5 4.5t-23 34t-5.5 42t17 28.5q14 7 41 16.5t56 18.5t54 16.5t35 11.5q23 9 47 16.5t56 -4.5z" />
    <glyph glyph-name="Ocircumflex" unicode="&#xd4;" horiz-adv-x="828" 
d="M835 574q36 -20 49.5 -50.5t10.5 -66.5t-20 -75t-40.5 -76.5t-50.5 -71.5t-52 -59q-69 -69 -147.5 -114t-180.5 -64q-35 -7 -79 -4.5t-87 13t-79 28t-56 41.5q-35 44 -44.5 86t1 84.5t37.5 86.5t63 91q42 54 101 93.5t126.5 66t139 41t139.5 18.5q26 2 45.5 -3
t37.5 -14.5t38.5 -22.5t47.5 -28zM731 487q-30 31 -74 39t-93.5 0t-101 -30.5t-97.5 -53.5q-37 -25 -78 -62.5t-69 -79t-33.5 -83t27.5 -74.5q21 -21 58 -28t80.5 -3.5t88.5 16.5t82 33q59 33 106 80.5t76.5 95.5t38 89.5t-10.5 60.5zM925 710q-17 -26 -40 -32t-52 11
q-32 20 -62 43.5t-68 58.5q-51 -21 -101.5 -55.5t-99.5 -61.5q-30 -16 -47.5 -7t-22.5 30t3.5 46t32.5 40q15 9 41 25.5t53.5 33t51.5 30.5t34 19q14 7 26 15.5t25 16.5q28 16 48.5 11t30.5 -24q3 -5 5.5 -11t6.5 -11q26 -28 55.5 -53.5t68.5 -41.5q25 -10 25 -35.5
t-14 -47.5z" />
    <glyph glyph-name="Otilde" unicode="&#xd5;" horiz-adv-x="828" 
d="M835 574q36 -20 49.5 -50.5t10.5 -66.5t-20 -75t-40.5 -76.5t-50.5 -71.5t-52 -59q-69 -69 -147.5 -114t-180.5 -64q-35 -7 -79 -4.5t-87 13t-79 28t-56 41.5q-35 44 -44.5 86t1 84.5t37.5 86.5t63 91q42 54 101 93.5t126.5 66t139 41t139.5 18.5q26 2 45.5 -3
t37.5 -14.5t38.5 -22.5t47.5 -28zM731 487q-30 31 -74 39t-93.5 0t-101 -30.5t-97.5 -53.5q-37 -25 -78 -62.5t-69 -79t-33.5 -83t27.5 -74.5q21 -21 58 -28t80.5 -3.5t88.5 16.5t82 33q59 33 106 80.5t76.5 95.5t38 89.5t-10.5 60.5zM850 765q-13 -25 -24.5 -40.5
t-38.5 -21.5q-19 -4 -31.5 -0.5t-21 13t-13.5 24t-9 30.5q-4 15 3 34t20.5 35t32.5 25.5t40 5.5q23 -4 35 -15.5t16 -26.5t1 -32t-10 -31zM626 778q0 -18 -6 -31.5t-14.5 -23.5t-18 -15.5t-16.5 -7.5q-38 -10 -58 3.5t-30 40.5q-7 21 -2 41.5t18.5 36.5t32 25.5t38.5 8.5
q18 0 29 -8t17 -19.5t8 -25t2 -25.5z" />
    <glyph glyph-name="Odieresis" unicode="&#xd6;" horiz-adv-x="828" 
d="M835 574q36 -20 49.5 -50.5t10.5 -66.5t-20 -75t-40.5 -76.5t-50.5 -71.5t-52 -59q-69 -69 -147.5 -114t-180.5 -64q-35 -7 -79 -4.5t-87 13t-79 28t-56 41.5q-35 44 -44.5 86t1 84.5t37.5 86.5t63 91q42 54 101 93.5t126.5 66t139 41t139.5 18.5q26 2 45.5 -3
t37.5 -14.5t38.5 -22.5t47.5 -28zM731 487q-30 31 -74 39t-93.5 0t-101 -30.5t-97.5 -53.5q-37 -25 -78 -62.5t-69 -79t-33.5 -83t27.5 -74.5q21 -21 58 -28t80.5 -3.5t88.5 16.5t82 33q59 33 106 80.5t76.5 95.5t38 89.5t-10.5 60.5zM850 765q-13 -25 -24.5 -40.5
t-38.5 -21.5q-19 -4 -31.5 -0.5t-21 13t-13.5 24t-9 30.5q-4 15 3 34t20.5 35t32.5 25.5t40 5.5q23 -4 35 -15.5t16 -26.5t1 -32t-10 -31zM626 778q0 -18 -6 -31.5t-14.5 -23.5t-18 -15.5t-16.5 -7.5q-38 -10 -58 3.5t-30 40.5q-7 21 -2 41.5t18.5 36.5t32 25.5t38.5 8.5
q18 0 29 -8t17 -19.5t8 -25t2 -25.5z" />
    <glyph glyph-name="multiply" unicode="&#xd7;" horiz-adv-x="581" 
d="M391 404q8 -27 19.5 -59t22.5 -65.5t18.5 -66t6.5 -61.5q-2 -25 -10 -47.5t-31 -36.5q-5 -3 -12 -1t-11 7l-88 251q-21 -14 -51.5 -38.5t-61.5 -51.5t-57.5 -51.5t-40.5 -38.5q-8 -8 -14.5 -19t-14.5 -21.5t-18.5 -19.5t-27.5 -15q-11 -4 -18 4t-10 21.5t-0.5 30.5
t11.5 31q25 41 56 73t65 61.5t69.5 60t69.5 69.5q-7 20 -17.5 46t-21.5 52.5t-20.5 50.5t-15.5 39q-4 11 -9.5 23t1.5 23q13 18 25 26t22.5 8.5t19.5 -4.5t16 -14q9 -11 20 -30.5t23 -43t23 -50t18 -50.5q20 17 51 43t65 53.5t68 53.5t59 44q14 10 32 18t30 1q8 -4 16 -9.5
t12.5 -13.5t3.5 -18.5t-11 -24.5z" />
    <glyph glyph-name="Oslash" unicode="&#xd8;" horiz-adv-x="828" 
d="M910 760q-27 -22 -66 -57q33 -26 44.5 -63.5t7.5 -81.5t-21 -91t-40.5 -92t-50.5 -85.5t-51 -70.5q-69 -85 -147.5 -140.5t-180.5 -78.5q-28 -6 -61.5 -5.5t-68 7t-67 19t-58.5 30.5q-17 -22 -36.5 -44.5t-51.5 -39.5q-16 -8 -26 5t-12.5 36.5t2.5 51.5t20 49q8 11 15 21
t14 19q-19 46 -20.5 91.5t11.5 91t37.5 93t56.5 98.5q42 66 101.5 114.5t127 80.5t139 50t139.5 23q20 2 36 -1.5t31 -10.5q17 15 32.5 27.5t29.5 23.5q10 8 24.5 12.5t29 6.5t27.5 1.5t21 -3.5q10 -4 19.5 -10t13.5 -15.5t0 -24.5t-21 -37zM730 603q-57 -50 -119 -104.5
t-124 -108.5q-22 -19 -52.5 -47.5t-63.5 -60.5t-66 -65t-61 -62q26 -13 61 -15.5t73 4.5t75.5 21.5t68.5 35.5q59 40 106.5 98.5t76.5 118t37.5 109.5t-10.5 74zM588 653q-54 -6 -112.5 -35.5t-110.5 -72.5q-27 -22 -57 -53t-56 -67t-44.5 -74t-22.5 -75q21 20 42.5 39
t45.5 41t51.5 48t59.5 59q17 17 39.5 38.5t49 46.5t56 51.5t59.5 53.5z" />
    <glyph glyph-name="Ugrave" unicode="&#xd9;" horiz-adv-x="624" 
d="M771 562q-6 -15 -20.5 -42.5t-34 -61t-42 -70.5t-44.5 -70.5t-41 -60.5t-31 -42q-48 -56 -86.5 -98.5t-78.5 -71t-86.5 -43.5t-109.5 -16q-31 -1 -57.5 10t-46.5 28.5t-32.5 38.5t-17.5 41q-9 37 0 83t30 95.5t51.5 100t66 96.5t73.5 85.5t73 66.5q14 11 29.5 12.5
t28 -4.5t21 -17t8.5 -26q1 -23 -8 -45.5t-29 -41.5q-28 -25 -59 -59t-59.5 -72t-52 -77t-35.5 -74.5t-10.5 -65.5t21.5 -50q47 -46 130.5 18t192.5 230q9 15 28.5 47t40.5 68t40 70.5t26 53.5q12 31 35.5 48.5t49.5 9.5q21 -6 31 -17.5t12.5 -24.5t-0.5 -27t-7 -25zM684 831
q14 -1 22 -11t10.5 -23.5t-1.5 -29t-13.5 -27.5t-24.5 -18.5t-35 -2.5q-22 4 -45.5 11.5t-49 15t-53.5 14.5t-60 11q-36 4 -54 21.5t-20.5 39t9 43t35.5 34.5q7 4 17.5 2t22 -6.5t21.5 -9.5t17 -8q21 -9 46 -18t51.5 -16.5t53 -13.5t51.5 -8z" />
    <glyph glyph-name="Uacute" unicode="&#xda;" horiz-adv-x="624" 
d="M782 584q-6 -15 -20.5 -43.5t-34.5 -63.5t-43 -73.5t-45 -73t-41 -63t-32 -43.5q-49 -59 -88 -103t-79.5 -73.5t-87.5 -45t-111 -16.5q-31 -1 -58 10.5t-47 29.5t-33 39.5t-18 42.5q-9 39 0 87t30 99.5t52 104t67 100.5t74.5 88.5t74.5 68.5q14 11 29.5 12.5t28.5 -4.5
t21.5 -17.5t8.5 -26.5q1 -25 -7.5 -48t-29.5 -43q-29 -26 -60.5 -61.5t-60.5 -74.5t-52.5 -79.5t-36 -77.5t-11.5 -68t22 -52q48 -47 134 19.5t195 238.5q9 15 29 48t41 71t40 73.5t27 55.5q12 32 36 50.5t50 10.5q22 -7 32 -18.5t12.5 -25.5t-0.5 -28.5t-8 -26.5zM775 909
q6 -2 14.5 -10.5t15 -20.5t10.5 -25.5t0.5 -27t-16 -24.5t-37.5 -17q-32 -8 -67 -11t-60 -14q-27 -13 -54 -19.5t-47 -14.5q-21 -9 -36.5 4.5t-23 34t-5.5 42t17 28.5q14 7 41 16.5t55.5 18.5t53.5 16.5t35 11.5q23 9 47.5 16.5t56.5 -4.5z" />
    <glyph glyph-name="Ucircumflex" unicode="&#xdb;" horiz-adv-x="624" 
d="M771 562q-6 -15 -20.5 -42.5t-34 -61t-42 -70.5t-44.5 -70.5t-41 -60.5t-31 -42q-48 -56 -86.5 -98.5t-78.5 -71t-86.5 -43.5t-109.5 -16q-31 -1 -57.5 10t-46.5 28.5t-32.5 38.5t-17.5 41q-9 37 0 83t30 95.5t51.5 100t66 96.5t73.5 85.5t73 66.5q14 11 29.5 12.5
t28 -4.5t21 -17t8.5 -26q1 -23 -8 -45.5t-29 -41.5q-28 -25 -59 -59t-59.5 -72t-52 -77t-35.5 -74.5t-10.5 -65.5t21.5 -50q47 -46 130.5 18t192.5 230q9 15 28.5 47t40.5 68t40 70.5t26 53.5q12 31 35.5 48.5t49.5 9.5q21 -6 31 -17.5t12.5 -24.5t-0.5 -27t-7 -25zM796 744
q-14 -22 -34 -27t-44 9q-28 17 -53.5 37t-57.5 49q-45 -17 -88 -46.5t-85 -52.5q-25 -14 -40.5 -6t-19.5 26t3.5 39t27.5 34q12 8 34.5 21.5t46 27.5t44 26t29.5 16q11 6 22 14t22 14q23 13 41 9t26 -20q3 -5 5 -9.5t6 -9.5q22 -23 47 -45t59 -36q21 -8 21 -29.5t-12 -40.5z
" />
    <glyph glyph-name="Udieresis" unicode="&#xdc;" horiz-adv-x="624" 
d="M771 562q-6 -15 -20.5 -42.5t-34 -61t-42 -70.5t-44.5 -70.5t-41 -60.5t-31 -42q-48 -56 -86.5 -98.5t-78.5 -71t-86.5 -43.5t-109.5 -16q-31 -1 -57.5 10t-46.5 28.5t-32.5 38.5t-17.5 41q-9 37 0 83t30 95.5t51.5 100t66 96.5t73.5 85.5t73 66.5q14 11 29.5 12.5
t28 -4.5t21 -17t8.5 -26q1 -23 -8 -45.5t-29 -41.5q-28 -25 -59 -59t-59.5 -72t-52 -77t-35.5 -74.5t-10.5 -65.5t21.5 -50q47 -46 130.5 18t192.5 230q9 15 28.5 47t40.5 68t40 70.5t26 53.5q12 31 35.5 48.5t49.5 9.5q21 -6 31 -17.5t12.5 -24.5t-0.5 -27t-7 -25zM735 765
q-12 -25 -24 -40.5t-39 -21.5q-18 -4 -31 -0.5t-21.5 13t-13.5 24t-9 30.5q-4 15 3 34t20.5 35t32.5 25.5t40 5.5q23 -4 35 -15.5t16 -26.5t1.5 -32t-10.5 -31zM512 778q0 -18 -6 -31.5t-14.5 -23.5t-18 -15.5t-17.5 -7.5q-38 -10 -58 3.5t-30 40.5q-7 21 -2 41.5t18.5 36.5
t32 25.5t38.5 8.5q18 0 29 -8t17 -19.5t8.5 -25t2.5 -25.5z" />
    <glyph glyph-name="Yacute" unicode="&#xdd;" horiz-adv-x="605" 
d="M779 625q-77 -63 -169 -136t-181 -151.5t-165 -160t-121 -161.5q-10 -18 -23.5 -27t-27 -10t-25.5 5t-20 18q-18 26 -13.5 52.5t17.5 49.5q10 19 33 46t52 57.5t59.5 62.5t54.5 60q-2 8 -10.5 15.5t-18.5 16.5t-20 19.5t-15 23.5q-15 38 -15 78t27 98q5 11 18.5 29.5
t30.5 37t36 32.5t35 15q24 2 41.5 -2.5t26.5 -12.5t10 -18.5t-8 -19.5q-63 -66 -76 -123.5t40 -99.5q44 35 84.5 66.5t80 64t79.5 68.5t83 79q16 16 39.5 12t42.5 -18.5t27 -33.5t-9 -32zM775 909q6 -2 14.5 -10.5t15 -20.5t10.5 -25.5t0.5 -27t-16 -24.5t-37.5 -17
q-32 -8 -67 -11t-60 -14q-27 -13 -54 -19.5t-47 -14.5q-21 -9 -36.5 4.5t-23 34t-5.5 42t17 28.5q14 7 41 16.5t55.5 18.5t53.5 16.5t35 11.5q23 9 47.5 16.5t56.5 -4.5z" />
    <glyph glyph-name="Thorn" unicode="&#xde;" horiz-adv-x="695" 
d="M734 587q2 -67 -35 -124.5t-122 -114.5q-49 -33 -113.5 -61.5t-128.5 -54t-118.5 -46.5t-82.5 -39q-19 -17 -29 -34t0 -46q4 -12 -7.5 -29t-30.5 -31.5t-40 -23.5t-35 -5q-13 4 -19 15.5t-6 27t5 34t14 36.5q17 36 39.5 85.5t47 106t49.5 115t48 112.5t41.5 100t30.5 75
q13 32 25.5 59t29 45t39 24t54.5 -4q20 -6 25.5 -18t1.5 -29t-14.5 -37t-23.5 -42q33 6 72.5 8.5t79 1.5t76 -7.5t65 -19t45.5 -32t17 -47.5zM591 519q2 23 -13 36t-40 17.5t-57 3t-64 -7t-61.5 -13t-49.5 -14.5q-28 -43 -44 -76t-27 -61t-19.5 -53t-21.5 -53q24 10 45 17.5
t44.5 15.5t52 17.5t66.5 23.5q27 10 59.5 25.5t61 35t48 41.5t20.5 45z" />
    <glyph glyph-name="germandbls" unicode="&#xdf;" horiz-adv-x="637" 
d="M584 706q-1 -14 -2.5 -38.5t-15.5 -57.5t-47.5 -73t-98.5 -86q24 -20 49 -39.5t40 -43t15 -54.5t-26 -74q-29 -49 -85 -91t-122.5 -72t-135.5 -45t-125 -9q-6 -16 -17.5 -41t-27 -46t-33.5 -33t-37 -4q-25 11 -28 34t5.5 50t22.5 55t24 50q34 78 58.5 136.5t45 113
t40 111.5t43.5 131q17 51 50 88t75 63t90 42t93 25q21 4 48 1.5t50.5 -13t39 -30t12.5 -50.5zM441 630q6 27 -16.5 38t-54.5 7.5t-65 -20t-48 -45.5q-12 -22 -19.5 -39t-14 -34.5t-12.5 -39t-14 -51.5q42 13 83.5 34.5t75.5 47t57 52.5t28 50zM374 269q11 20 4.5 34t-21 24
t-32.5 15.5t-32 9.5q-19 -3 -39.5 -11t-40.5 -18.5t-40.5 -21t-40.5 -18.5l-50 -153q22 2 39.5 3.5t34 5t34.5 10t42 18.5q66 32 98 55t44 47z" />
    <glyph glyph-name="agrave" unicode="&#xe0;" 
d="M738 561q-9 -7 -21 -37t-22.5 -64.5t-18 -66.5t-7.5 -44q19 -7 26.5 -16.5t-3.5 -35.5q-10 -23 -30 -40.5t-37 -22.5q-19 -50 -29 -99t-30 -93q-6 -13 -12 -24.5t-14.5 -18.5t-20.5 -9t-29 4q-15 5 -28 14t-20.5 20.5t-8 25t8.5 26.5q19 26 29.5 39t16.5 25t9.5 29.5
t8.5 52.5q-34 -7 -80.5 -15.5t-93 -16.5t-88 -13.5t-65.5 -5.5q-21 -25 -34 -42.5t-21 -31t-11 -24.5t-3 -24q0 -12 -8.5 -27.5t-23.5 -25t-36 -8.5t-47 22q-17 14 -14.5 40t16.5 58.5t36 67t44.5 65t41 54t26.5 32.5q31 37 71 80t85 84.5t93 79.5t94.5 65t90 40t79.5 5
q49 -17 70 -48t10 -76zM599 564q-36 -18 -83 -47t-95.5 -65t-93 -77t-75.5 -82l284 44q11 21 21.5 54t19 66.5t14.5 63t8 43.5zM684 831q14 -1 22 -11t10.5 -23.5t-1.5 -29t-13.5 -27.5t-24.5 -18.5t-35 -2.5q-22 4 -45.5 11.5t-49 15t-53.5 14.5t-60 11q-36 4 -54 21.5
t-20.5 39t9 43t35.5 34.5q7 4 17.5 2t22 -6.5t21.5 -9.5t17 -8q21 -9 46 -18t51.5 -16.5t53 -13.5t51.5 -8z" />
    <glyph glyph-name="aacute" unicode="&#xe1;" 
d="M731 563q-6 -5 -13 -20.5t-14.5 -36.5t-15 -45t-13 -46t-9 -40t-4.5 -26q19 -7 26.5 -16t-3.5 -35q-10 -23 -29.5 -41t-36.5 -23q-18 -50 -28.5 -99t-29.5 -93q-6 -13 -12 -24.5t-15 -18.5t-20.5 -9t-28.5 4q-15 6 -28 15t-20.5 20t-7.5 24.5t9 26.5q18 27 28.5 40
t16.5 25t9.5 29t8.5 52q-34 -7 -79.5 -15.5t-92 -16t-87.5 -13t-65 -6.5q-20 -25 -33 -42.5t-20.5 -30.5t-10.5 -24.5t-3 -24.5q0 -12 -8.5 -27.5t-23.5 -25t-36 -8.5t-46 22q-17 14 -14.5 40t16.5 58.5t35.5 67.5t43.5 65.5t40.5 54t26.5 32.5q30 37 69.5 80t84 84.5
t92 79.5t94 65t89.5 40.5t78 5.5q49 -18 70 -48.5t10 -75.5zM593 565q-35 -18 -81.5 -47t-94.5 -65t-92.5 -77t-74.5 -82l281 44q11 21 21 54t18.5 67t14.5 63.5t8 42.5zM775 909q6 -2 14.5 -10.5t15 -20.5t10.5 -25.5t0.5 -27t-16 -24.5t-37.5 -17q-32 -8 -67 -11t-60 -14
q-27 -13 -54 -19.5t-47 -14.5q-21 -9 -36.5 4.5t-23 34t-5.5 42t17 28.5q14 7 41 16.5t55.5 18.5t53.5 16.5t35 11.5q23 9 47.5 16.5t56.5 -4.5z" />
    <glyph glyph-name="acircumflex" unicode="&#xe2;" 
d="M738 561q-9 -7 -21 -37t-22.5 -64.5t-18 -66.5t-7.5 -44q19 -7 26.5 -16.5t-3.5 -35.5q-10 -23 -30 -40.5t-37 -22.5q-19 -50 -29 -99t-30 -93q-6 -13 -12 -24.5t-14.5 -18.5t-20.5 -9t-29 4q-15 5 -28 14t-20.5 20.5t-8 25t8.5 26.5q19 26 29.5 39t16.5 25t9.5 29.5
t8.5 52.5q-34 -7 -80.5 -15.5t-93 -16.5t-88 -13.5t-65.5 -5.5q-21 -25 -34 -42.5t-21 -31t-11 -24.5t-3 -24q0 -12 -8.5 -27.5t-23.5 -25t-36 -8.5t-47 22q-17 14 -14.5 40t16.5 58.5t36 67t44.5 65t41 54t26.5 32.5q31 37 71 80t85 84.5t93 79.5t94.5 65t90 40t79.5 5
q49 -17 70 -48t10 -76zM599 564q-36 -18 -83 -47t-95.5 -65t-93 -77t-75.5 -82l284 44q11 21 21.5 54t19 66.5t14.5 63t8 43.5zM826 710q-36 -53 -92 -21q-32 20 -62 43.5t-68 58.5q-51 -21 -101.5 -55.5t-99.5 -61.5q-30 -16 -48 -7t-22.5 30t4 46t32.5 40q14 9 40 25.5
t54 33t52 30.5t34 19q14 7 26 15.5t25 16.5q28 16 48.5 11t30.5 -24q2 -5 4.5 -11t7.5 -11q26 -28 55.5 -53.5t68.5 -41.5q25 -10 25 -35.5t-14 -47.5z" />
    <glyph glyph-name="atilde" unicode="&#xe3;" 
d="M738 561q-9 -7 -21 -37t-22.5 -64.5t-18 -66.5t-7.5 -44q19 -7 26.5 -16.5t-3.5 -35.5q-10 -23 -30 -40.5t-37 -22.5q-19 -50 -29 -99t-30 -93q-6 -13 -12 -24.5t-14.5 -18.5t-20.5 -9t-29 4q-15 5 -28 14t-20.5 20.5t-8 25t8.5 26.5q19 26 29.5 39t16.5 25t9.5 29.5
t8.5 52.5q-34 -7 -80.5 -15.5t-93 -16.5t-88 -13.5t-65.5 -5.5q-21 -25 -34 -42.5t-21 -31t-11 -24.5t-3 -24q0 -12 -8.5 -27.5t-23.5 -25t-36 -8.5t-47 22q-17 14 -14.5 40t16.5 58.5t36 67t44.5 65t41 54t26.5 32.5q31 37 71 80t85 84.5t93 79.5t94.5 65t90 40t79.5 5
q49 -17 70 -48t10 -76zM599 564q-36 -18 -83 -47t-95.5 -65t-93 -77t-75.5 -82l284 44q11 21 21.5 54t19 66.5t14.5 63t8 43.5zM877 861q2 -23 -6 -41t-23 -34t-35 -30t-40 -29q-14 -10 -26 -12.5t-25 -2.5q-20 0 -36.5 6.5t-30.5 16.5t-26.5 20.5t-25.5 19.5q-13 8 -24 15
t-25 7q-5 0 -10.5 -5t-10.5 -12.5t-9.5 -16t-8.5 -14.5q-9 -17 -23.5 -25t-37.5 -8q-6 0 -13 5.5t-12.5 13t-9 16.5t-3.5 16q0 11 10 23.5t13 16.5q12 15 26.5 33t31 34.5t32.5 27.5t31 11q26 0 42.5 -6.5t30 -17t28 -24t37.5 -28.5q20 -12 33.5 -16t24.5 4q9 8 20 19.5
t23 22.5t24 19t24 8t20.5 -9.5t9.5 -23.5z" />
    <glyph glyph-name="adieresis" unicode="&#xe4;" 
d="M738 561q-9 -7 -21 -37t-22.5 -64.5t-18 -66.5t-7.5 -44q19 -7 26.5 -16.5t-3.5 -35.5q-10 -23 -30 -40.5t-37 -22.5q-19 -50 -29 -99t-30 -93q-6 -13 -12 -24.5t-14.5 -18.5t-20.5 -9t-29 4q-15 5 -28 14t-20.5 20.5t-8 25t8.5 26.5q19 26 29.5 39t16.5 25t9.5 29.5
t8.5 52.5q-34 -7 -80.5 -15.5t-93 -16.5t-88 -13.5t-65.5 -5.5q-21 -25 -34 -42.5t-21 -31t-11 -24.5t-3 -24q0 -12 -8.5 -27.5t-23.5 -25t-36 -8.5t-47 22q-17 14 -14.5 40t16.5 58.5t36 67t44.5 65t41 54t26.5 32.5q31 37 71 80t85 84.5t93 79.5t94.5 65t90 40t79.5 5
q49 -17 70 -48t10 -76zM599 564q-36 -18 -83 -47t-95.5 -65t-93 -77t-75.5 -82l284 44q11 21 21.5 54t19 66.5t14.5 63t8 43.5zM790 765q-12 -25 -24 -40.5t-39 -21.5q-18 -4 -31 -0.5t-21.5 13t-13.5 24t-9 30.5q-4 15 3 34t20.5 35t32.5 25.5t40 5.5q23 -4 35 -15.5
t16 -26.5t1.5 -32t-10.5 -31zM567 778q0 -18 -6 -31.5t-14.5 -23.5t-18 -15.5t-17.5 -7.5q-38 -10 -58 3.5t-30 40.5q-7 21 -2 41.5t18.5 36.5t32 25.5t38.5 8.5q18 0 29 -8t17 -19.5t8.5 -25t2.5 -25.5z" />
    <glyph glyph-name="aring" unicode="&#xe5;" 
d="M738 561q-9 -7 -21 -37t-22.5 -64.5t-18 -66.5t-7.5 -44q19 -7 26.5 -16.5t-3.5 -35.5q-10 -23 -30 -40.5t-37 -22.5q-19 -50 -29 -99t-30 -93q-6 -13 -12 -24.5t-14.5 -18.5t-20.5 -9t-29 4q-15 5 -28 14t-20.5 20.5t-8 25t8.5 26.5q19 26 29.5 39t16.5 25t9.5 29.5
t8.5 52.5q-34 -7 -80.5 -15.5t-93 -16.5t-88 -13.5t-65.5 -5.5q-21 -25 -34 -42.5t-21 -31t-11 -24.5t-3 -24q0 -12 -8.5 -27.5t-23.5 -25t-36 -8.5t-47 22q-17 14 -14.5 40t16.5 58.5t36 67t44.5 65t41 54t26.5 32.5q31 37 71 80t85 84.5t93 79.5t94.5 65t90 40t79.5 5
q49 -17 70 -48t10 -76zM599 564q-36 -18 -83 -47t-95.5 -65t-93 -77t-75.5 -82l284 44q11 21 21.5 54t19 66.5t14.5 63t8 43.5zM801 888q17 -11 23 -28t2.5 -34.5t-15 -33.5t-31.5 -26q-29 -14 -64.5 -24t-76.5 -15q-35 -5 -70.5 -5.5t-71.5 10.5q-20 6 -30.5 13t-15.5 15.5
t-6 17t-1 16.5q0 32 20 60.5t74 55.5q25 13 60.5 22t70.5 5q24 -3 41 -6t31.5 -8.5t28.5 -14t31 -20.5zM722 816q7 7 2.5 17.5t-16 20t-27.5 16t-32 6.5q-23 0 -49 -9t-40 -22q-7 -7 -14.5 -17t-9.5 -19.5t4.5 -18t25.5 -12.5q21 -4 43.5 -3.5t43.5 6t39 14.5t30 21z" />
    <glyph glyph-name="ae" unicode="&#xe6;" horiz-adv-x="1155" 
d="M1189 733q-2 -23 -17 -42t-36 -22q-47 -7 -92 -10l-90 -6t-90 -10t-92 -24q-12 -12 -17 -31t-8.5 -40.5t-7.5 -43t-14 -37.5q34 3 57.5 4.5t41 3t30.5 3t25 2.5q26 3 81 10t143 21q27 5 46 -11t25.5 -37.5t-3 -41t-41.5 -22.5q-49 -5 -86 -10t-67 -10.5t-58 -11
t-59 -10.5t-69.5 -8.5t-91.5 -6.5q-8 -18 -19 -30q-17 -33 -28.5 -62t-15 -53t3.5 -41.5t28 -27.5q26 -12 63.5 -10t79 14t82 31.5t72.5 43.5q17 13 29.5 21t21.5 9.5t16.5 -3t15.5 -16.5q11 -16 0.5 -40t-33 -49.5t-53 -50.5t-59.5 -44q-38 -24 -84.5 -38t-93.5 -16.5
t-90.5 6.5t-76.5 32q-10 -14 -23.5 -20t-36.5 3q-16 6 -29 16.5t-20.5 23.5t-8 28.5t8.5 30.5q20 31 30.5 46t16.5 29t9.5 34t8.5 61q-34 -8 -81 -18t-94.5 -19t-90 -15.5t-67.5 -6.5q-21 -29 -34 -49.5t-21 -36t-11 -28.5t-3 -28t-8.5 -33t-24 -28.5t-37 -9t-47.5 25.5
q-17 16 -14.5 46.5t16.5 68t36.5 77.5t45 76t41.5 63t27 38q31 43 72 92.5t86.5 98.5t94.5 93t96.5 75.5t92 46.5t80.5 6q49 -20 70 -54q11 6 22 6q56 5 91.5 8.5t60.5 6.5t45 5t43.5 3.5t56.5 2.5t85 1q13 0 22 -5t14.5 -12.5t8 -16.5t1.5 -17zM609 664q-36 -21 -84 -54.5
t-97.5 -75.5t-95 -89.5t-76.5 -95.5l289 50q11 25 21.5 63.5t19.5 78t15 73.5t8 50z" />
    <glyph glyph-name="ccedilla" unicode="&#xe7;" horiz-adv-x="720" 
d="M804 694q-10 -22 -18 -47.5t-18.5 -48.5t-28 -41.5t-47.5 -26.5q-22 -6 -32.5 -0.5t-13.5 16t-0.5 24.5t7.5 26q3 6 13 21t17.5 30t8 26.5t-16.5 11.5q-66 -2 -133.5 -32.5t-126.5 -73.5t-103.5 -89t-63.5 -78q-11 -19 -13.5 -36.5t0 -33.5t9.5 -29t14 -24
q17 -22 53.5 -34.5t79 -15t83.5 3.5t68 20q15 8 30 17t29.5 18t30 16t31.5 9q24 3 31 -10t4 -32t-12.5 -37t-18.5 -24q-78 -51 -157 -70.5t-148 -16.5q2 -17 4 -35.5t2.5 -36t0 -32.5t-3.5 -25q-8 -30 -22.5 -40.5t-33 -10t-39.5 7.5t-41 12q-15 4 -32.5 11t-31 17t-21 23
t-3.5 29q4 15 14 18.5t23 1t27.5 -8t27 -8.5t22.5 -0.5t13 15.5q5 16 0 38t-13 44q-28 10 -46 21q-37 21 -63 50.5t-38 63t-9 69t22 69.5q36 62 97 123.5t135.5 113.5t156.5 90t159 54q36 7 65 -1.5t48 -26.5t25.5 -41t-3.5 -44z" />
    <glyph glyph-name="egrave" unicode="&#xe8;" horiz-adv-x="765" 
d="M782 638q-2 -20 -18 -36.5t-39 -19.5q-51 -6 -88.5 -8.5t-72 -5.5t-71.5 -9t-88 -20q-12 -10 -23.5 -26.5t-22.5 -35t-21.5 -36.5t-21.5 -32q52 3 83.5 5t52.5 3.5t38.5 3t41.5 4.5t60.5 8t96.5 13q29 4 50.5 -10t28 -32t-4 -35t-44.5 -19q-54 -4 -94.5 -8.5t-74 -9.5
t-64 -10t-65 -9t-77 -7.5t-100.5 -5.5q-23 -33 -40 -62.5t-23 -53.5t1 -41.5t32 -26.5q28 -10 69 -8.5t86 11.5t89.5 27t79.5 38q19 11 32 18t23 8.5t18.5 -2.5t17.5 -15q12 -14 0.5 -34.5t-36 -42.5t-58 -43.5t-65.5 -37.5q-54 -27 -121.5 -39.5t-131.5 -7.5t-115 28
t-71 66q-9 19 -5.5 46t14 58t26 62t31.5 58q29 48 71 110.5t90 132.5q-8 23 -7.5 42.5t8.5 34t22.5 23.5t33.5 10q61 4 100 7t66.5 5.5t49 4.5t47.5 3t62 2t92 1q29 0 40.5 -15t9.5 -29zM684 831q14 -1 22 -11t10.5 -23.5t-1.5 -29t-13.5 -27.5t-24.5 -18.5t-35 -2.5
q-22 4 -45.5 11.5t-49 15t-53.5 14.5t-60 11q-36 4 -54 21.5t-20.5 39t9 43t35.5 34.5q7 4 17.5 2t22 -6.5t21.5 -9.5t17 -8q21 -9 46 -18t51.5 -16.5t53 -13.5t51.5 -8z" />
    <glyph glyph-name="eacute" unicode="&#xe9;" horiz-adv-x="765" 
d="M782 638q-2 -20 -18 -36.5t-39 -19.5q-51 -6 -88.5 -8.5t-72 -5.5t-71.5 -9t-88 -20q-12 -10 -23.5 -26.5t-22.5 -35t-21.5 -36.5t-21.5 -32q52 3 83.5 5t52.5 3.5t38.5 3t41.5 4.5t60.5 8t96.5 13q29 4 50.5 -10t28 -32t-4 -35t-44.5 -19q-54 -4 -94.5 -8.5t-74 -9.5
t-64 -10t-65 -9t-77 -7.5t-100.5 -5.5q-23 -33 -40 -62.5t-23 -53.5t1 -41.5t32 -26.5q28 -10 69 -8.5t86 11.5t89.5 27t79.5 38q19 11 32 18t23 8.5t18.5 -2.5t17.5 -15q12 -14 0.5 -34.5t-36 -42.5t-58 -43.5t-65.5 -37.5q-54 -27 -121.5 -39.5t-131.5 -7.5t-115 28
t-71 66q-9 19 -5.5 46t14 58t26 62t31.5 58q29 48 71 110.5t90 132.5q-8 23 -7.5 42.5t8.5 34t22.5 23.5t33.5 10q61 4 100 7t66.5 5.5t49 4.5t47.5 3t62 2t92 1q29 0 40.5 -15t9.5 -29zM775 909q6 -2 14.5 -10.5t15 -20.5t10.5 -25.5t0.5 -27t-16 -24.5t-37.5 -17
q-32 -8 -67 -11t-60 -14q-27 -13 -54 -19.5t-47 -14.5q-21 -9 -36.5 4.5t-23 34t-5.5 42t17 28.5q14 7 41 16.5t55.5 18.5t53.5 16.5t35 11.5q23 9 47.5 16.5t56.5 -4.5z" />
    <glyph glyph-name="ecircumflex" unicode="&#xea;" horiz-adv-x="765" 
d="M782 638q-2 -20 -18 -36.5t-39 -19.5q-51 -6 -88.5 -8.5t-72 -5.5t-71.5 -9t-88 -20q-12 -10 -23.5 -26.5t-22.5 -35t-21.5 -36.5t-21.5 -32q52 3 83.5 5t52.5 3.5t38.5 3t41.5 4.5t60.5 8t96.5 13q29 4 50.5 -10t28 -32t-4 -35t-44.5 -19q-54 -4 -94.5 -8.5t-74 -9.5
t-64 -10t-65 -9t-77 -7.5t-100.5 -5.5q-23 -33 -40 -62.5t-23 -53.5t1 -41.5t32 -26.5q28 -10 69 -8.5t86 11.5t89.5 27t79.5 38q19 11 32 18t23 8.5t18.5 -2.5t17.5 -15q12 -14 0.5 -34.5t-36 -42.5t-58 -43.5t-65.5 -37.5q-54 -27 -121.5 -39.5t-131.5 -7.5t-115 28
t-71 66q-9 19 -5.5 46t14 58t26 62t31.5 58q29 48 71 110.5t90 132.5q-8 23 -7.5 42.5t8.5 34t22.5 23.5t33.5 10q61 4 100 7t66.5 5.5t49 4.5t47.5 3t62 2t92 1q29 0 40.5 -15t9.5 -29zM856 753q-36 -53 -92 -21q-32 20 -62 43.5t-68 58.5q-25 -10 -50.5 -24.5t-51 -30.5
t-50.5 -32t-49 -30q-30 -16 -48 -7t-22.5 30t4 46.5t32.5 40.5q14 9 40 25t54 32.5t52 30.5t34 19q14 7 26 16t25 17q28 15 48.5 10t30.5 -24q2 -5 4.5 -10.5t7.5 -10.5q26 -28 55.5 -53.5t68.5 -42.5q25 -10 25 -35t-14 -48z" />
    <glyph glyph-name="edieresis" unicode="&#xeb;" horiz-adv-x="765" 
d="M782 638q-2 -20 -18 -36.5t-39 -19.5q-51 -6 -88.5 -8.5t-72 -5.5t-71.5 -9t-88 -20q-12 -10 -23.5 -26.5t-22.5 -35t-21.5 -36.5t-21.5 -32q52 3 83.5 5t52.5 3.5t38.5 3t41.5 4.5t60.5 8t96.5 13q29 4 50.5 -10t28 -32t-4 -35t-44.5 -19q-54 -4 -94.5 -8.5t-74 -9.5
t-64 -10t-65 -9t-77 -7.5t-100.5 -5.5q-23 -33 -40 -62.5t-23 -53.5t1 -41.5t32 -26.5q28 -10 69 -8.5t86 11.5t89.5 27t79.5 38q19 11 32 18t23 8.5t18.5 -2.5t17.5 -15q12 -14 0.5 -34.5t-36 -42.5t-58 -43.5t-65.5 -37.5q-54 -27 -121.5 -39.5t-131.5 -7.5t-115 28
t-71 66q-9 19 -5.5 46t14 58t26 62t31.5 58q29 48 71 110.5t90 132.5q-8 23 -7.5 42.5t8.5 34t22.5 23.5t33.5 10q61 4 100 7t66.5 5.5t49 4.5t47.5 3t62 2t92 1q29 0 40.5 -15t9.5 -29zM815 781q-13 -24 -24.5 -39.5t-38.5 -22.5q-18 -4 -31 0t-21.5 13.5t-13.5 24t-9 30.5
q-4 15 3 34t20.5 34.5t32.5 25t40 6.5q23 -4 35 -16t16 -27t1.5 -32t-10.5 -31zM592 794q0 -18 -6 -31.5t-14.5 -23t-18 -15.5t-17.5 -8q-38 -9 -58 4t-30 41q-7 21 -2 41t18.5 36t32 26t38.5 9q18 -1 29 -8.5t17 -19t8.5 -25.5t2.5 -26z" />
    <glyph glyph-name="igrave" unicode="&#xec;" horiz-adv-x="277" 
d="M449 627q-8 -28 -33 -76.5t-59 -106t-73 -120.5t-76 -120.5t-67.5 -104t-47.5 -73.5q-4 -6 -14.5 -12t-23 -9.5t-24.5 -3.5t-20 5q-6 4 -14.5 8.5t-14.5 11.5t-8 15.5t5 20.5q17 28 43.5 69.5t58 92.5t66.5 107.5t69.5 114t67 113t58.5 103.5q7 13 27 18t40 1t33.5 -17
t6.5 -37zM476 826q9 -1 13.5 -10.5t6 -22.5t-1 -27.5t-8 -26t-14.5 -17.5t-21 -2q-26 8 -56.5 24.5t-68.5 24.5q-21 4 -32 20t-12.5 36.5t5.5 41t21 32.5q5 3 11 1.5t13 -5.5t13 -8.5l10 -7.5q25 -17 58 -33t63 -20z" />
    <glyph glyph-name="iacute" unicode="&#xed;" horiz-adv-x="277" 
d="M449 627q-8 -28 -33 -76.5t-59 -106t-73 -120.5t-76 -120.5t-67.5 -104t-47.5 -73.5q-4 -6 -14.5 -12t-23 -9.5t-24.5 -3.5t-20 5q-6 4 -14.5 8.5t-14.5 11.5t-8 15.5t5 20.5q17 28 43.5 69.5t58 92.5t66.5 107.5t69.5 114t67 113t58.5 103.5q7 13 27 18t40 1t33.5 -17
t6.5 -37zM525 886q6 -3 15.5 -18.5t12.5 -34t-4 -36.5t-33 -27q-11 -4 -23 -6l-24 -4t-22.5 -5t-19.5 -8q-19 -12 -38 -18t-33 -14q-15 -8 -25.5 4.5t-16 31.5t-3.5 39t12 27q10 6 28.5 15t39 17t37.5 15.5t24 10.5q8 4 16.5 8.5t17.5 7t18.5 2t20.5 -6.5z" />
    <glyph glyph-name="icircumflex" unicode="&#xee;" horiz-adv-x="277" 
d="M449 627q-8 -28 -33 -76.5t-59 -106t-73 -120.5t-76 -120.5t-67.5 -104t-47.5 -73.5q-4 -6 -14.5 -12t-23 -9.5t-24.5 -3.5t-20 5q-6 4 -14.5 8.5t-14.5 11.5t-8 15.5t5 20.5q17 28 43.5 69.5t58 92.5t66.5 107.5t69.5 114t67 113t58.5 103.5q7 13 27 18t40 1t33.5 -17
t6.5 -37zM555 712q-11 -23 -25.5 -28.5t-31.5 9.5q-20 17 -39 38.5t-42 52.5q-32 -18 -63.5 -49t-61.5 -55q-19 -15 -30 -6.5t-14 27t2.5 41.5t19.5 36q9 8 25.5 22.5t34 29t32 27t20.5 16.5q9 7 16.5 15t15.5 15q17 14 30 9.5t19 -21.5q2 -5 3.5 -10t4.5 -10q16 -25 34 -48
t43 -37q15 -9 15 -31.5t-8 -42.5z" />
    <glyph glyph-name="idieresis" unicode="&#xef;" horiz-adv-x="277" 
d="M449 627q-8 -28 -33 -76.5t-59 -106t-73 -120.5t-76 -120.5t-67.5 -104t-47.5 -73.5q-4 -6 -14.5 -12t-23 -9.5t-24.5 -3.5t-20 5q-6 4 -14.5 8.5t-14.5 11.5t-8 15.5t5 20.5q17 28 43.5 69.5t58 92.5t66.5 107.5t69.5 114t67 113t58.5 103.5q7 13 27 18t40 1t33.5 -17
t6.5 -37zM544 779q-8 -23 -16 -37.5t-27 -20.5q-25 -7 -36 12.5t-16 50.5q-3 14 2 31.5t14.5 32t22.5 23.5t27 5q16 -3 24.5 -14t11 -25t0.5 -29.5t-7 -28.5zM390 791q0 -33 -13.5 -51t-24.5 -22q-26 -8 -39.5 4t-20.5 38q-5 19 -1.5 38t12.5 34t22 24t26 8q12 -1 20 -8
t12 -18t5.5 -23.5t1.5 -23.5z" />
    <glyph glyph-name="eth" unicode="&#xf0;" horiz-adv-x="750" 
d="M822 625q5 -51 -9 -106.5t-45.5 -111t-81 -109t-117.5 -99.5q-75 -51 -135.5 -93t-120 -71.5t-122.5 -44t-142 -11.5q-23 1 -33.5 26.5t-19.5 63.5q-4 18 5 46t25 60.5t36.5 67.5t39.5 66q-17 2 -28.5 12t-15.5 33q-6 39 3 58.5t28.5 27.5t45.5 8.5t53 0.5q16 26 30.5 48
t27.5 43t25 42.5t24 45.5q-20 0 -30 4.5t-15 12t-7.5 17t-8.5 19.5q-23 42 -3.5 65t64.5 33q58 14 118.5 19.5t118 3t108.5 -14.5t90 -33.5t63.5 -53.5t28.5 -75zM679 600q-17 30 -39.5 44.5t-51.5 18.5t-65.5 0t-81.5 -11q-23 -38 -49.5 -83t-54.5 -95q18 2 34.5 1t29 -7
t19.5 -18.5t6 -33.5q-1 -25 -16.5 -38t-39 -19t-51.5 -7.5t-54 -4.5q-37 -66 -69.5 -124.5t-56.5 -101.5q15 1 49 13.5t77 33t92 48t95 58t85 62t63 61.5q11 14 29 39.5t33 54.5t22 58.5t-5 50.5z" />
    <glyph glyph-name="ntilde" unicode="&#xf1;" horiz-adv-x="693" 
d="M832 664q26 -20 29 -40t-7 -41t-26.5 -43t-28.5 -46t-31 -57.5t-42 -72t-49.5 -80.5t-53 -82.5t-52 -77t-47.5 -64.5q-13 -16 -24.5 -26.5t-25.5 -16.5t-34 -9t-49 -5q-12 -1 -21.5 6t-16.5 17.5t-11 22.5t-6 20q-5 28 -10.5 61t-8.5 75.5t-2.5 95.5t7.5 122
q-17 -11 -38 -38.5t-43.5 -64t-45 -78.5t-43 -83t-36.5 -77.5t-26 -61.5q-3 -8 -13 -16.5t-22.5 -14.5t-26 -9t-24.5 -1q-24 5 -33 19t-8 31.5t8.5 35t15.5 30.5q14 22 36 62.5t48.5 90t56.5 103.5t59.5 102.5t56.5 87.5t48 58q15 13 28 20t26.5 10.5t29 4.5t35.5 2
q27 2 40.5 -7t18 -23.5t3.5 -32t-4 -33.5q-4 -25 -13 -69t-14.5 -95t-3 -102t21.5 -89q33 27 69.5 73t73 102.5t71 119t62.5 121.5q6 12 17 27t24.5 26t28 15t26.5 -5zM833 830q2 -23 -6.5 -41t-23.5 -34t-35 -30t-40 -29q-14 -10 -26 -12.5t-25 -2.5q-20 0 -36.5 6.5
t-30.5 16.5t-26.5 20.5t-25.5 19.5q-13 8 -23.5 15t-24.5 7q-6 0 -11.5 -5t-10.5 -12.5t-9.5 -16t-7.5 -14.5q-10 -17 -24.5 -25t-37.5 -8q-6 0 -13 5.5t-12.5 13t-9 16.5t-3.5 16q0 12 10 24t13 16q12 15 26.5 33t31 34.5t32.5 27.5t31 11q27 0 43.5 -6.5t30 -17t28 -24
t36.5 -28.5q20 -12 33.5 -16t24.5 4q10 8 21 19.5t22.5 22.5t23.5 19t24 8q13 0 21 -9.5t10 -23.5z" />
    <glyph glyph-name="ograve" unicode="&#xf2;" horiz-adv-x="862" 
d="M909 412q-3 -57 -28 -117.5t-64.5 -113.5t-89 -94.5t-102.5 -59.5q-70 -25 -147 -39.5t-149.5 -8.5t-135.5 38t-105 101q-14 22 -22 48t-8 53.5t7.5 55t25.5 51.5q35 49 72.5 96t83 88.5t102 76.5t129.5 60q33 12 68.5 21.5t71 12.5t69.5 -2.5t64 -23.5q41 -24 71.5 -44
t51 -45t29.5 -61t6 -93zM705 234q43 48 65 96.5t22 90.5t-22 74.5t-68 48.5q-31 11 -67 11.5t-73 -8.5t-74.5 -25.5t-72.5 -39.5q-38 -25 -83.5 -62.5t-81.5 -81t-53 -89.5t1 -88q13 -29 45.5 -45.5t77.5 -21.5t97.5 1.5t104.5 24t99.5 46.5t82.5 68zM773 831q14 -1 22 -11
t10 -23.5t-2 -29t-13.5 -27.5t-24.5 -18.5t-35 -2.5q-22 4 -45 11.5t-48.5 15t-54 14.5t-60.5 11q-35 4 -53 21.5t-20.5 39t9 43t35.5 34.5q7 4 17.5 2t22 -6.5t21.5 -9.5t17 -8q21 -9 46 -18t51 -16.5t53 -13.5t52 -8z" />
    <glyph glyph-name="oacute" unicode="&#xf3;" horiz-adv-x="862" 
d="M909 412q-3 -57 -28 -117.5t-64.5 -113.5t-89 -94.5t-102.5 -59.5q-70 -25 -147 -39.5t-149.5 -8.5t-135.5 38t-105 101q-14 22 -22 48t-8 53.5t7.5 55t25.5 51.5q35 49 72.5 96t83 88.5t102 76.5t129.5 60q33 12 68.5 21.5t71 12.5t69.5 -2.5t64 -23.5q41 -24 71.5 -44
t51 -45t29.5 -61t6 -93zM705 234q43 48 65 96.5t22 90.5t-22 74.5t-68 48.5q-31 11 -67 11.5t-73 -8.5t-74.5 -25.5t-72.5 -39.5q-38 -25 -83.5 -62.5t-81.5 -81t-53 -89.5t1 -88q13 -29 45.5 -45.5t77.5 -21.5t97.5 1.5t104.5 24t99.5 46.5t82.5 68zM914 909
q6 -2 14.5 -10.5t15 -20.5t10.5 -25.5t0.5 -27t-16 -24.5t-37.5 -17q-32 -8 -67 -11t-60 -14q-27 -13 -54 -19.5t-47 -14.5q-21 -9 -36.5 4.5t-23 34t-5.5 42t17 28.5q14 7 41 16.5t55.5 18.5t53.5 16.5t35 11.5q24 9 48 16.5t56 -4.5z" />
    <glyph glyph-name="ocircumflex" unicode="&#xf4;" horiz-adv-x="862" 
d="M909 412q-3 -57 -28 -117.5t-64.5 -113.5t-89 -94.5t-102.5 -59.5q-70 -25 -147 -39.5t-149.5 -8.5t-135.5 38t-105 101q-14 22 -22 48t-8 53.5t7.5 55t25.5 51.5q35 49 72.5 96t83 88.5t102 76.5t129.5 60q33 12 68.5 21.5t71 12.5t69.5 -2.5t64 -23.5q41 -24 71.5 -44
t51 -45t29.5 -61t6 -93zM705 234q43 48 65 96.5t22 90.5t-22 74.5t-68 48.5q-31 11 -67 11.5t-73 -8.5t-74.5 -25.5t-72.5 -39.5q-38 -25 -83.5 -62.5t-81.5 -81t-53 -89.5t1 -88q13 -29 45.5 -45.5t77.5 -21.5t97.5 1.5t104.5 24t99.5 46.5t82.5 68zM938 720
q-17 -26 -40 -32t-52 11q-32 20 -62 43.5t-67 58.5q-25 -10 -51 -24.5t-51.5 -30.5t-50.5 -32t-49 -30q-30 -16 -47.5 -7t-22.5 30t4 46t32 40q15 9 41 25.5t53.5 33t51.5 30.5t34 19q14 7 26 16t26 16q27 16 48 11t30 -24q3 -5 5.5 -10.5t6.5 -10.5q26 -28 55.5 -54
t69.5 -42q24 -10 24 -35.5t-14 -47.5z" />
    <glyph glyph-name="otilde" unicode="&#xf5;" horiz-adv-x="862" 
d="M909 412q-3 -57 -28 -117.5t-64.5 -113.5t-89 -94.5t-102.5 -59.5q-70 -25 -147 -39.5t-149.5 -8.5t-135.5 38t-105 101q-14 22 -22 48t-8 53.5t7.5 55t25.5 51.5q35 49 72.5 96t83 88.5t102 76.5t129.5 60q33 12 68.5 21.5t71 12.5t69.5 -2.5t64 -23.5q41 -24 71.5 -44
t51 -45t29.5 -61t6 -93zM705 234q43 48 65 96.5t22 90.5t-22 74.5t-68 48.5q-31 11 -67 11.5t-73 -8.5t-74.5 -25.5t-72.5 -39.5q-38 -25 -83.5 -62.5t-81.5 -81t-53 -89.5t1 -88q13 -29 45.5 -45.5t77.5 -21.5t97.5 1.5t104.5 24t99.5 46.5t82.5 68zM942 847
q2 -23 -6.5 -41t-23.5 -34t-35 -30t-40 -29q-14 -10 -26 -12.5t-25 -2.5q-20 0 -36 6.5t-30 16.5t-27 20.5t-26 19.5q-13 8 -23.5 15t-24.5 7q-6 0 -11.5 -5t-10.5 -12.5t-9.5 -16t-7.5 -14.5q-10 -17 -24.5 -25t-37.5 -8q-6 0 -13 5.5t-12.5 13.5t-9 16.5t-3.5 15.5
q0 12 10 24t13 16q12 15 26.5 33t31 34.5t32.5 27.5t31 11q27 0 43.5 -6.5t30 -17t28 -24t36.5 -28.5q20 -12 33.5 -16t24.5 4q10 8 21 19.5t22.5 22.5t23.5 19t24 8q13 0 21 -9.5t10 -23.5z" />
    <glyph glyph-name="odieresis" unicode="&#xf6;" horiz-adv-x="862" 
d="M909 412q-3 -57 -28 -117.5t-64.5 -113.5t-89 -94.5t-102.5 -59.5q-70 -25 -147 -39.5t-149.5 -8.5t-135.5 38t-105 101q-14 22 -22 48t-8 53.5t7.5 55t25.5 51.5q35 49 72.5 96t83 88.5t102 76.5t129.5 60q33 12 68.5 21.5t71 12.5t69.5 -2.5t64 -23.5q41 -24 71.5 -44
t51 -45t29.5 -61t6 -93zM705 234q43 48 65 96.5t22 90.5t-22 74.5t-68 48.5q-31 11 -67 11.5t-73 -8.5t-74.5 -25.5t-72.5 -39.5q-38 -25 -83.5 -62.5t-81.5 -81t-53 -89.5t1 -88q13 -29 45.5 -45.5t77.5 -21.5t97.5 1.5t104.5 24t99.5 46.5t82.5 68zM895 775
q-12 -25 -24 -40.5t-39 -21.5q-18 -4 -31 -0.5t-21.5 13t-13.5 24t-9 30.5q-4 15 3 34t20.5 35t32.5 25.5t40 5.5q23 -4 35 -15.5t16 -26.5t1.5 -32t-10.5 -31zM672 788q0 -18 -6 -31.5t-14.5 -23.5t-18 -15.5t-17.5 -7.5q-38 -10 -58 3.5t-30 41.5q-7 21 -1.5 41t18.5 36
t32 26t38 9q18 -1 29 -8.5t17 -19t8.5 -25.5t2.5 -26z" />
    <glyph glyph-name="divide" unicode="&#xf7;" horiz-adv-x="479" 
d="M423 588q-9 -18 -22 -31.5t-27 -23t-27 -14.5t-21 -6q-21 -3 -34 -0.5t-19 9t-7 17.5t1 25q3 22 17.5 42t35.5 35t44 23t42 6q17 -2 24 -10.5t7.5 -20.5t-4 -25.5t-10.5 -25.5zM462 384q7 -20 -17 -28t-62 -10.5t-80 -3t-71 -6.5q-20 -3 -45 -9.5t-48.5 -7t-43 9
t-27.5 37.5q-10 34 -3 52.5t25.5 27t45 9t55.5 -1.5t57 -4t50 2q24 4 48.5 4t47 -7.5t40.5 -22.5t28 -41zM229 206q-1 -26 -6 -46t-29 -44q-17 -16 -31.5 -22.5t-27.5 -5.5t-24.5 7t-23.5 15q-10 8 -12 26.5t4.5 40t21 42t37.5 32.5q24 14 41.5 14t29 -8t16.5 -22t4 -29z
" />
    <glyph glyph-name="oslash" unicode="&#xf8;" horiz-adv-x="828" 
d="M986 759q-20 -16 -47 -38t-59 -48q26 -31 38 -74.5t9 -117.5q-3 -66 -28.5 -136.5t-65.5 -132t-91 -109t-105 -68.5q-59 -24 -123 -40t-127 -17.5t-121 15t-106 57.5q-20 -25 -42.5 -51t-60.5 -45q-18 -8 -29 5t-14 37t3 52t22 50q11 16 21.5 29.5t21.5 26.5
q-23 51 -23 112t33 115q36 57 74.5 111t85 102t104.5 88.5t132 70.5q34 14 70 24.5t72 14t70.5 -2.5t65.5 -27l3 -3q26 21 49.5 39t42.5 32q11 8 27 12.5t32 6.5t30 1.5t23 -3.5q11 -4 21.5 -10t15 -16t0 -25t-23.5 -37zM777 589q-60 -48 -125 -101t-130 -104
q-25 -21 -59.5 -51t-72 -64t-74.5 -68.5t-68 -63.5q40 -24 102 -27t129.5 14.5t131.5 55t108 94.5q35 44 56.5 89t29 86t0.5 77t-28 63zM629 647q-51 -4 -104 -26.5t-102 -59.5q-31 -23 -67.5 -55.5t-69.5 -70.5t-57.5 -80t-32.5 -84q22 20 45 39t49 41t55.5 48t63.5 58
q18 17 42.5 38.5t53 46.5t60 51.5t64.5 53.5z" />
    <glyph glyph-name="ugrave" unicode="&#xf9;" horiz-adv-x="692" 
d="M844 572q-10 -15 -32 -49t-50.5 -77.5t-59.5 -91t-58 -89.5t-47.5 -74t-28.5 -44q-21 -33 -51 -60.5t-68 -46t-83 -27.5t-96 -4q-45 5 -82 12t-64.5 22t-45 39t-22.5 61q-8 57 10 117t52 121t79 121t90 117q20 25 44.5 20.5t41.5 -24.5q6 -7 9 -18.5t3 -24.5t-4 -26
t-13 -23q-37 -43 -67 -81t-52 -77.5t-35.5 -83t-16.5 -97.5q-1 -23 15 -38t40.5 -22t54 -5.5t53.5 10.5q42 16 75.5 45t61.5 66t52 80t45.5 87t42.5 87t43 80q5 8 10.5 20t12.5 24.5t14.5 23.5t16.5 17q29 21 54.5 17t42 -21.5t21 -41t-7.5 -41.5zM684 831q14 -1 22 -11
t10.5 -23.5t-1.5 -29t-13.5 -27.5t-24.5 -18.5t-35 -2.5q-22 4 -45.5 11.5t-49 15t-53.5 14.5t-60 11q-36 4 -54 21.5t-20.5 39t9 43t35.5 34.5q7 4 17.5 2t22 -6.5t21.5 -9.5t17 -8q21 -9 46 -18t51.5 -16.5t53 -13.5t51.5 -8z" />
    <glyph glyph-name="uacute" unicode="&#xfa;" horiz-adv-x="692" 
d="M854 592q-10 -16 -32.5 -51t-51 -80t-60 -94t-59 -93t-48.5 -77t-29 -45q-21 -34 -51.5 -62t-69 -47.5t-84 -28.5t-96.5 -4q-45 5 -83 12.5t-66 22.5t-45.5 39.5t-22.5 63.5q-8 59 10.5 121t53 125t80 125.5t91.5 120.5q10 13 21.5 17.5t23 3t22 -8t19.5 -16.5
q6 -7 9.5 -19t3 -25.5t-4.5 -27t-13 -23.5q-37 -45 -67.5 -84t-53 -79.5t-36 -86t-16.5 -101.5q-1 -24 15 -39t41 -22t54.5 -6t54.5 11q63 25 109 78t82.5 119t67.5 135.5t65 127.5q5 9 10.5 21t12.5 24.5t15 24t17 18.5q30 22 55.5 17.5t42 -22.5t21 -42.5t-7.5 -42.5z
M775 909q6 -2 14.5 -10.5t15 -20.5t10.5 -25.5t0.5 -27t-16 -24.5t-37.5 -17q-32 -8 -67 -11t-60 -14q-27 -13 -54 -19.5t-47 -14.5q-21 -9 -36.5 4.5t-23 34t-5.5 42t17 28.5q14 7 41 16.5t55.5 18.5t53.5 16.5t35 11.5q23 9 47.5 16.5t56.5 -4.5z" />
    <glyph glyph-name="ucircumflex" unicode="&#xfb;" horiz-adv-x="692" 
d="M854 544q-10 -14 -32.5 -46.5t-51 -74t-60 -86.5t-59 -85.5t-48.5 -71t-29 -41.5q-21 -31 -51.5 -57t-69 -44t-84 -26t-96.5 -4q-45 4 -83 11t-66 21t-45.5 37t-22.5 58q-8 54 10.5 111.5t53 115.5t80 115.5t91.5 111.5q20 23 44.5 19t41.5 -23q13 -14 12.5 -41
t-17.5 -46q-37 -41 -67.5 -77.5t-53 -74t-36 -79t-16.5 -93.5q-1 -22 15 -36t41 -20.5t54.5 -5.5t54.5 10q63 23 109 72t82.5 110t67.5 125t65 117q10 16 23 42t32 39q30 20 55.5 16t42 -20.5t21 -39t-7.5 -39.5zM826 730q-36 -53 -92 -21q-32 20 -62 43.5t-68 58.5
q-25 -10 -50.5 -24.5t-51 -30.5t-50.5 -32t-49 -30q-30 -16 -48 -7t-22.5 30t4 46t32.5 40q14 9 40 25.5t54 33t52 30.5t34 19q14 7 26 16t25 16q28 16 48.5 11t30.5 -24q2 -5 4.5 -10.5t7.5 -10.5q26 -28 55.5 -54t68.5 -42q25 -10 25 -35.5t-14 -47.5z" />
    <glyph glyph-name="udieresis" unicode="&#xfc;" horiz-adv-x="692" 
d="M854 558q-10 -14 -32.5 -47.5t-51 -75.5t-60 -89t-59 -88t-48.5 -72t-29 -43q-21 -32 -51.5 -58.5t-69 -45t-84 -27t-96.5 -3.5q-45 4 -83 11.5t-66 21.5t-45.5 37.5t-22.5 59.5q-8 56 10.5 114.5t53 118t80 118.5t91.5 114q20 24 44.5 20t41.5 -24q13 -14 12.5 -42
t-17.5 -48q-37 -42 -67.5 -79t-53 -75.5t-36 -81t-16.5 -95.5q-1 -22 15 -36.5t41 -21.5t54.5 -5.5t54.5 10.5q63 23 109 73.5t82.5 112.5t67.5 128t65 120q5 8 10.5 19.5t12.5 23.5t15 23t17 17q30 21 55.5 16.5t42 -21t21 -40t-7.5 -40.5zM779 765q-13 -25 -24.5 -40.5
t-38.5 -21.5q-19 -4 -31.5 -0.5t-21 13t-13.5 24t-9 30.5q-4 15 3 34t20.5 35t32.5 25.5t40 5.5q23 -4 35 -15.5t16 -26.5t1 -32t-10 -31zM555 778q0 -18 -6 -31.5t-14.5 -23.5t-18 -15.5t-16.5 -7.5q-38 -10 -58 3.5t-30 40.5q-7 21 -2 41.5t18.5 36.5t32 25.5t38.5 8.5
q18 0 29 -8t17 -19.5t8 -25t2 -25.5z" />
    <glyph glyph-name="yacute" unicode="&#xfd;" horiz-adv-x="617" 
d="M811 653q4 -33 -6.5 -51t-29.5 -30t-43 -22.5t-47 -28.5q-66 -51 -134.5 -111t-135.5 -127.5t-130 -140.5t-117 -151q-4 -5 -11 -9t-15.5 -5.5t-16.5 -1t-14 3.5q-37 23 -41.5 48.5t7.5 50.5q6 14 31 40t53.5 54.5t55 54.5t35.5 38q-3 5 -13 9t-22.5 9.5t-25 12
t-20.5 15.5q-42 47 -44.5 94.5t23.5 106.5q9 20 21.5 38t26 33t25.5 28t19 23q18 24 43.5 39.5t49 20t39.5 -3.5t15 -32q-1 -12 -1 -22.5t-2.5 -19.5t-8.5 -17.5t-18 -16.5q-51 -34 -76 -74t-23 -75q1 -14 10.5 -26.5t23 -21.5t28 -13.5t26.5 -4.5q50 41 93 83t85 82.5
t86.5 79t97.5 73.5q16 11 33 13.5t31 -2t24.5 -15.5t12.5 -28zM775 909q6 -2 14.5 -10.5t15 -20.5t10.5 -25.5t0.5 -27t-16 -24.5t-37.5 -17q-32 -8 -67 -11t-60 -14q-27 -13 -54 -19.5t-47 -14.5q-21 -9 -36.5 4.5t-23 34t-5.5 42t17 28.5q14 7 41 16.5t55.5 18.5
t53.5 16.5t35 11.5q23 9 47.5 16.5t56.5 -4.5z" />
    <glyph glyph-name="thorn" unicode="&#xfe;" horiz-adv-x="695" 
d="M734 587q2 -67 -35 -124.5t-122 -114.5q-49 -33 -113.5 -61.5t-128.5 -54t-118.5 -46.5t-82.5 -39q-19 -17 -29 -34t0 -46q4 -12 -7.5 -29t-30.5 -31.5t-40 -23.5t-35 -5q-13 4 -19 15.5t-6 27t5 34t14 36.5q17 36 39.5 85.5t47 106t49.5 115t48 112.5t41.5 100t30.5 75
q13 32 25.5 59t29 45t39 24t54.5 -4q20 -6 25.5 -18t1.5 -29t-14.5 -37t-23.5 -42q33 6 72.5 8.5t79 1.5t76 -7.5t65 -19t45.5 -32t17 -47.5zM591 519q2 23 -13 36t-40 17.5t-57 3t-64 -7t-61.5 -13t-49.5 -14.5q-28 -43 -44 -76t-27 -61t-19.5 -53t-21.5 -53q24 10 45 17.5
t44.5 15.5t52 17.5t66.5 23.5q27 10 59.5 25.5t61 35t48 41.5t20.5 45z" />
    <glyph glyph-name="ydieresis" unicode="&#xff;" horiz-adv-x="617" 
d="M809 605q4 -30 -6.5 -46.5t-29 -28t-42.5 -21t-47 -26.5q-66 -48 -134.5 -104t-135 -118.5t-129.5 -130.5t-117 -140q-4 -5 -11 -9t-15.5 -5.5t-16.5 -1t-14 3.5q-37 22 -41.5 45.5t7.5 46.5q6 13 31 37.5t53.5 51t55 50.5t35.5 35q-3 5 -13 9t-22.5 8.5t-25 10.5
t-20.5 15q-42 44 -44.5 88.5t23.5 99.5q9 19 21.5 35t25.5 30.5t25 26t19 21.5q18 22 43.5 36.5t49 19t39.5 -3t15 -30.5q0 -11 -0.5 -20.5t-2.5 -18t-8 -16t-18 -15.5q-52 -32 -77 -69t-22 -70q1 -13 10.5 -24.5t23 -20t28 -13t26.5 -4.5q50 39 93 78t85 76.5t86 73.5
t97 69q16 9 33 11.5t31 -2t24 -14.5t12 -26zM735 765q-12 -25 -24 -40.5t-39 -21.5q-18 -4 -31 -0.5t-21.5 13t-13.5 24t-9 30.5q-4 15 3 34t20.5 35t32.5 25.5t40 5.5q23 -4 35 -15.5t16 -26.5t1.5 -32t-10.5 -31zM512 778q0 -18 -6 -31.5t-14.5 -23.5t-18 -15.5
t-17.5 -7.5q-38 -10 -58 3.5t-30 40.5q-7 21 -2 41.5t18.5 36.5t32 25.5t38.5 8.5q18 0 29 -8t17 -19.5t8.5 -25t2.5 -25.5z" />
    <glyph glyph-name="dotlessi" unicode="&#x131;" horiz-adv-x="277" 
d="M446 722q-8 -33 -32.5 -88.5t-58.5 -122.5t-73 -139.5t-75.5 -138.5t-66.5 -120t-47 -85q-4 -7 -14.5 -14t-22.5 -10.5t-24 -4t-20 5.5q-6 5 -14.5 10.5t-15 13t-8.5 17.5t5 23q17 32 43.5 80.5t57.5 107t66 124t69 132t66.5 130.5t58.5 120q7 15 27 20.5t40 1t33 -20
t6 -42.5z" />
    <glyph glyph-name="Lslash" unicode="&#x141;" horiz-adv-x="554" 
d="M470 201q6 -12 3.5 -24t-10.5 -23.5t-19 -22t-21 -19.5q-32 -28 -75 -44.5t-81 -27.5q-18 -5 -44 -14t-54.5 -17.5t-58 -13.5t-54.5 -2q-25 13 -40 36.5t-21.5 52.5t-6 60t4.5 59q16 25 33 53t35 59q-15 2 -26 12t-14 32q-6 38 2.5 57.5t26.5 28t43 9t51 0.5
q51 85 105 168.5t108 154.5q15 19 36 16.5t37 -17.5t22 -38t-9 -45q-27 -39 -62.5 -94.5t-73.5 -118.5q17 2 32.5 0t26.5 -8.5t17.5 -19t5.5 -32.5q-1 -24 -16 -36.5t-37.5 -18.5t-50 -8t-53.5 -5q-35 -59 -62.5 -112.5t-43.5 -91.5q27 -6 60 1t67 18.5t67.5 23.5t62.5 17
q12 2 25 5t25 4t22 -2t15 -12z" />
    <glyph glyph-name="lslash" unicode="&#x142;" horiz-adv-x="610" 
d="M457 78q-32 -16 -67 -25.5t-72.5 -17t-76.5 -16.5t-80 -23q-47 -8 -82 4.5t-57 37t-31.5 57.5t-5.5 65q23 35 44 72t42 75q-16 2 -27.5 11.5t-15.5 32.5q-6 37 2.5 56.5t26 28.5t42 9.5t49.5 0.5q48 85 99 167.5t115 160.5q17 20 37.5 18.5t35.5 -15.5t20.5 -36.5
t-7.5 -43.5q-36 -56 -72.5 -112.5t-72.5 -113.5q19 3 36 2t30 -7t20.5 -18.5t6.5 -34.5q-1 -25 -17.5 -38t-41 -18.5t-53.5 -7.5t-55 -5q-29 -54 -54.5 -107.5t-45.5 -108.5q49 8 90 17t79.5 17t77 14.5t80.5 8.5q22 1 31.5 -13.5t8 -33t-11.5 -36.5t-27 -24z" />
    <glyph glyph-name="OE" unicode="&#x152;" horiz-adv-x="1263" 
d="M1376 794q13 -6 15.5 -25.5t-3 -40t-17.5 -36.5t-27 -16q-55 3 -90.5 5.5t-65.5 1t-60 -8t-74 -21.5q-12 -16 -31 -37t-38.5 -43.5t-37.5 -44t-29 -38.5q49 3 81 8t61 11t63 12.5t86 12.5q32 3 54.5 -14t29 -40t-6 -44t-50.5 -26q-63 -9 -108 -16t-87.5 -13.5t-90.5 -13
t-116 -13.5q-5 -10 -15 -25.5t-20.5 -34t-20.5 -38t-15 -38t-3 -35t14 -28.5q25 -24 57.5 -25.5t66.5 7.5t67 24.5t59 26.5q15 6 31 10.5t31 4.5t27 -6.5t18 -23.5q5 -14 2 -28.5t-10.5 -27.5t-19 -24t-23.5 -18q-22 -13 -52 -28.5t-61 -29t-61.5 -22.5t-54.5 -8
q-38 1 -73.5 8t-65.5 21t-54 35.5t-39 52.5q-48 -38 -100.5 -64t-113.5 -40q-36 -8 -80 -5t-86.5 16t-78.5 34.5t-56 50.5q-36 54 -45 105.5t1 104t37 106t63 111.5q42 66 101.5 114.5t127 80.5t139 50t139.5 23q26 2 45.5 -4t38 -17.5t38.5 -27.5t47 -34q30 -20 46 -52l5 6
q4 5 3.5 9.5t-3 9.5t-6 11t-6.5 14q-8 21 3 35.5t33.5 25t53 17.5t62 11t60.5 7t48 5q40 5 77 6.5t68.5 -0.5t56 -7t39.5 -12zM732 601q-30 38 -74 48.5t-93.5 0t-101 -38.5t-98.5 -66q-24 -20 -51.5 -47.5t-51.5 -59t-43.5 -65.5t-28 -68t-4 -66.5t26.5 -59.5
q21 -25 58 -34t80.5 -5t88.5 20t82 41q59 40 106 98.5t76.5 117.5t38 109.5t-10.5 74.5z" />
    <glyph glyph-name="oe" unicode="&#x153;" horiz-adv-x="1528" 
d="M1456 733q-2 -22 -18.5 -41t-39.5 -23q-52 -7 -89.5 -9.5t-72 -5.5t-72 -10t-88.5 -24q-13 -12 -24.5 -31t-22.5 -40t-21.5 -42t-21.5 -37q38 3 64 4.5t45.5 3t33.5 3t27 2.5q15 2 31 4t39 5.5t55.5 8.5t80.5 12q30 5 51 -11t28 -37t-3.5 -40.5t-45.5 -22.5
q-55 -5 -95.5 -10t-74.5 -10.5t-64.5 -11t-65.5 -10.5t-77.5 -9t-101.5 -6q-23 -38 -40 -72t-23.5 -61.5t1 -47.5t32.5 -31q29 -12 70 -10t86.5 13.5t90.5 31t80 43.5q19 13 32.5 20.5t23.5 9.5t18.5 -2.5t17.5 -16.5q12 -16 0.5 -40t-36.5 -49.5t-58.5 -50t-65.5 -42.5
q-52 -30 -116.5 -44t-126.5 -10.5t-113.5 25.5t-77.5 64q-17 -13 -35 -23t-36 -17q-72 -28 -150 -45.5t-152.5 -10.5t-138.5 44t-107 117q-14 26 -22 56t-8 61.5t7.5 63.5t25.5 60q36 57 74.5 111t85 102t104.5 88.5t132 70.5q34 14 70 24.5t72 14t70.5 -2.5t65.5 -27
q29 -19 52.5 -35.5t42.5 -33.5t32.5 -37t21.5 -46l13 22q-8 26 -7.5 48.5t8.5 39t22.5 27t33.5 11.5q62 4 101 7.5t67 6.5t49.5 5t47.5 3.5t62.5 2.5t93.5 1q14 0 24 -4.5t16 -12t8.5 -17t1.5 -17.5zM789 396q17 39 20 76t-6.5 68.5t-31 55.5t-55.5 38q-32 13 -68.5 13
t-74.5 -10t-76 -29.5t-74 -46.5q-26 -19 -56 -45t-58.5 -56.5t-53.5 -64.5t-41 -69t-20 -69.5t8 -67.5q13 -33 46.5 -52.5t79 -25t99 2t106.5 28t102 54t84 78.5q22 28 39 59t31 63z" />
    <glyph glyph-name="Scaron" unicode="&#x160;" horiz-adv-x="752" 
d="M777 567q0 -26 -11 -43.5t-27.5 -25t-34.5 -3.5t-33 21q-6 7 -25 8.5t-46 -2t-58.5 -11t-62.5 -18t-58.5 -23.5t-46.5 -27q28 -13 68.5 -34.5t81 -49t76.5 -59t54.5 -66t14.5 -70t-42 -70.5q-47 -42 -98 -66t-104 -34t-107 -8t-108 11q-39 7 -74.5 21.5t-61 36t-39.5 50
t-11 62.5q2 14 11 27.5t24 25t33.5 19t38.5 10.5q28 3 39 -2.5t11.5 -15.5t-6.5 -22.5t-15 -21.5q-11 -13 -9.5 -23.5t10 -19.5t20.5 -16.5t23 -14.5q24 -15 60 -25t77.5 -10t85.5 13.5t84 44.5q25 20 25.5 41t-15 42.5t-44 41.5t-63 38t-71.5 32.5t-70 24.5
q-64 20 -75.5 49t17.5 78q11 18 40 35.5t69 33.5t88 29.5t96 24t94 18t82 10.5q16 2 32.5 -2.5t30 -13.5t22 -22t8.5 -29zM345 891q17 26 40 32t52 -11q32 -19 62 -42.5t68 -58.5q26 10 51 24.5t50.5 30.5t50.5 32t49 29q30 17 47.5 7.5t22.5 -30.5t-3.5 -46t-32.5 -40
q-15 -9 -41 -25t-53.5 -32.5t-51.5 -30.5t-34 -19q-14 -8 -26 -16.5t-25 -16.5q-28 -16 -48.5 -11t-30.5 24q-3 6 -5 11.5t-7 10.5q-26 28 -55.5 53.5t-68.5 41.5q-25 11 -25 36t14 47z" />
    <glyph glyph-name="scaron" unicode="&#x161;" horiz-adv-x="851" 
d="M761 554q0 -18 -7 -32t-18.5 -23t-24 -11t-22.5 5q-16 12 -27 24.5t-26.5 20t-40 7.5t-66.5 -13q-24 -7 -51.5 -18.5t-53 -23.5t-46.5 -21.5t-30 -13.5q30 -8 68 -18.5t77.5 -24t77 -30.5t68.5 -37.5t51.5 -45t24.5 -54.5q4 -25 3 -50t-12 -49t-35 -47.5t-67 -45.5
q-84 -42 -172.5 -51t-166 5t-134.5 45.5t-78 70.5q-14 26 -15 48.5t8 43t27 38t42 33.5q15 10 32.5 12t31 -2.5t20 -14t0.5 -21.5q-6 -11 -11 -16l-9.5 -9.5t-8 -11t-6.5 -20.5q-6 -30 17.5 -50.5t60 -32.5t77.5 -17t69 -4q26 0 52 3.5t50 10.5t44.5 16.5t33.5 22.5
q25 22 28.5 42.5t-7 38t-32.5 33t-48.5 28t-54 23t-50.5 18.5q-31 11 -68.5 16t-71 10t-59 13.5t-31.5 26.5q-19 53 -3.5 78.5t61.5 39.5q33 10 69.5 24.5t71.5 30t65 29t51 22.5q23 10 57 16.5t70 6.5t69 -7t55 -24q8 -6 12.5 -11t6.5 -11.5t2 -16v-24.5zM342 891
q17 26 40 32t51 -11q32 -19 62 -42.5t68 -58.5q26 10 51.5 24.5t50.5 30.5l50 32t49 29q30 17 48 7.5t22.5 -30.5t-4 -46t-32.5 -40q-14 -9 -40 -25t-54 -32.5t-52 -30.5t-34 -19q-14 -8 -25.5 -16.5t-25.5 -16.5q-27 -16 -48 -11t-31 24q-2 6 -4.5 11.5t-7.5 10.5
q-26 28 -55 53.5t-69 41.5q-24 11 -24 36t14 47z" />
    <glyph glyph-name="Ydieresis" unicode="&#x178;" horiz-adv-x="605" 
d="M762 580q-75 -58 -165.5 -126t-177 -141t-161 -149t-118.5 -150q-10 -18 -23 -26.5t-26 -9t-25 5.5t-20 17q-18 24 -13 48t17 46q10 18 32.5 43t51 53.5l58 58t53.5 56.5q-2 7 -10.5 14.5t-18 15.5t-19.5 18t-15 22q-7 18 -11.5 35.5t-3.5 37t7.5 42t19.5 49.5
q5 10 18 27.5t30 34.5t35.5 30t33.5 14q24 2 41 -2.5t26 -12t9.5 -16.5t-7.5 -18q-62 -62 -74.5 -115.5t38.5 -93.5q43 33 82.5 63t78.5 60t78 63.5t81 73.5q15 15 38.5 11t42 -17.5t26 -31t-8.5 -30.5zM735 765q-12 -25 -24 -40.5t-39 -21.5q-18 -4 -31 -0.5t-21.5 13
t-13.5 24t-9 30.5q-4 15 3 34t20.5 35t32.5 25.5t40 5.5q23 -4 35 -15.5t16 -26.5t1.5 -32t-10.5 -31zM512 778q0 -18 -6 -31.5t-14.5 -23.5t-18 -15.5t-17.5 -7.5q-38 -10 -58 3.5t-30 40.5q-7 21 -2 41.5t18.5 36.5t32 25.5t38.5 8.5q18 0 29 -8t17 -19.5t8.5 -25
t2.5 -25.5z" />
    <glyph glyph-name="Zcaron" unicode="&#x17d;" horiz-adv-x="662" 
d="M794 594q16 -25 15 -47t-13 -40.5t-32.5 -33.5t-43.5 -26q-38 -19 -86.5 -47t-100 -60t-103.5 -65.5t-97 -64t-80.5 -55t-55.5 -38.5q56 -5 104 2t91.5 15.5t83.5 12.5t79 -8q36 -10 49 -25t4.5 -29t-38 -25t-78.5 -15q-55 -4 -96.5 -7.5t-82 -8.5t-86 -13t-110.5 -22
q-38 -8 -61.5 9.5t-28.5 61.5q-1 15 4.5 33t16 35t24.5 31.5t29 23.5q48 29 111.5 67t129.5 78t128.5 77.5t109.5 64.5l70 47q-41 5 -77.5 0t-70 -13.5t-66.5 -16t-67 -8.5q-23 0 -40 2t-31 21q-7 10 -8.5 22.5t2 25t13 23.5t24.5 18q82 15 170.5 23.5t180.5 6.5h32.5
t32 -2.5t28 -9t21.5 -20.5zM417 891q17 26 40 32t52 -11q32 -19 62 -42.5t68 -58.5q26 10 51 24.5t50.5 30.5t50.5 32t49 29q30 17 47.5 7.5t22.5 -30.5t-3.5 -46t-32.5 -40q-15 -9 -41 -25t-53.5 -32.5t-51.5 -30.5t-34 -19q-14 -8 -26 -16.5t-25 -16.5q-28 -16 -48.5 -11
t-30.5 24q-3 6 -5 11.5t-7 10.5q-26 28 -55.5 53.5t-68.5 41.5q-25 11 -25 36t14 47z" />
    <glyph glyph-name="zcaron" unicode="&#x17e;" horiz-adv-x="680" 
d="M796 597q6 -15 8.5 -33.5t-0.5 -37t-13 -35t-29 -27.5q-39 -23 -82.5 -49.5t-89 -53.5t-92 -54t-91.5 -51q-13 -7 -48 -27.5t-74.5 -43.5t-75 -42.5t-49.5 -25.5q60 -5 106 1t88.5 13.5t85.5 12t96 -3.5q21 -3 42.5 -2.5t44.5 -12.5q22 -12 21.5 -24t-12.5 -21.5
t-29.5 -16t-29.5 -6.5q-61 0 -118 -6t-113.5 -15t-112 -19.5t-113.5 -19.5q-29 -5 -56.5 -3.5t-44.5 24.5q-13 17 -16.5 35t-1 35.5t10.5 34.5t19 33q66 38 147.5 81t164.5 88t162.5 91t141.5 91q-33 15 -73 11t-83.5 -15.5l-87 -23t-84.5 -10.5q-22 -3 -33 4.5t-14.5 20.5
t-0.5 28.5t10 29.5t16.5 23t18.5 9q44 2 87 9.5t85.5 15.5t84 14.5t82.5 7.5q19 1 41.5 2t43.5 -1.5t37.5 -10t22.5 -24.5zM406 891q17 26 40 32t51 -11q33 -19 62.5 -42.5t67.5 -58.5q26 10 51.5 24.5t50.5 30.5l50 32t49 29q30 17 48 7.5t23 -30.5t-4 -46t-32 -40
q-15 -9 -41 -25t-54 -32.5t-52 -30.5t-34 -19q-13 -8 -25 -16.5t-26 -16.5q-27 -16 -48 -11t-30 24q-3 6 -5.5 11.5t-7.5 10.5q-26 28 -55 53.5t-69 41.5q-24 11 -24 36t14 47z" />
    <glyph glyph-name="circumflex" unicode="&#x2c6;" horiz-adv-x="591" 
d="M826 710q-36 -53 -92 -21q-32 20 -62 43.5t-68 58.5q-51 -21 -101.5 -55.5t-99.5 -61.5q-30 -16 -48 -7t-22.5 30t4 46t32.5 40q14 9 40 25.5t54 33t52 30.5t34 19q14 7 26 15.5t25 16.5q28 16 48.5 11t30.5 -24q2 -5 4.5 -11t7.5 -11q26 -28 55.5 -53.5t68.5 -41.5
q25 -10 25 -35.5t-14 -47.5z" />
    <glyph glyph-name="caron" unicode="&#x2c7;" horiz-adv-x="591" 
d="M-181 894q17 26 40 32t52 -11q32 -19 62 -42.5t67 -58.5q26 10 51.5 24.5t51 30.5t50.5 32t49 29q30 17 47.5 7.5t22.5 -30.5t-4 -46t-32 -40q-15 -9 -41 -25t-53.5 -32.5t-51.5 -30.5t-34 -19q-14 -8 -26 -16.5t-26 -16.5q-27 -16 -48 -11t-30 24q-3 6 -5.5 11.5
t-6.5 10.5q-26 28 -55.5 53.5t-69.5 41.5q-24 11 -24 36t14 47z" />
    <glyph glyph-name="breve" unicode="&#x2d8;" horiz-adv-x="591" 
d="M-181 894q17 26 40 32t52 -11q32 -19 62 -42.5t67 -58.5q26 10 51.5 24.5t51 30.5t50.5 32t49 29q30 17 47.5 7.5t22.5 -30.5t-4 -46t-32 -40q-15 -9 -41 -25t-53.5 -32.5t-51.5 -30.5t-34 -19q-14 -8 -26 -16.5t-26 -16.5q-27 -16 -48 -11t-30 24q-3 6 -5.5 11.5
t-6.5 10.5q-26 28 -55.5 53.5t-69.5 41.5q-24 11 -24 36t14 47z" />
    <glyph glyph-name="dotaccent" unicode="&#x2d9;" horiz-adv-x="210" 
d="M97 817q-1 -27 -5.5 -45.5t-27.5 -36.5q-16 -12 -29.5 -15t-25.5 1t-23 13.5t-22 21.5q-10 11 -12 30t4 38.5t20 36.5t36 24q23 8 39.5 4t27 -15t15 -26.5t3.5 -30.5z" />
    <glyph glyph-name="ring" unicode="&#x2da;" horiz-adv-x="593" 
d="M819 875q17 -13 23 -32t2.5 -38.5t-15 -38t-31.5 -29.5q-57 -32 -142 -44q-34 -5 -70 -5.5t-72 10.5q-20 6 -30.5 14.5t-15.5 18t-6 19.5t-1 19q0 36 20.5 68t74.5 63q25 14 60 24t71 6q24 -3 41 -7t31.5 -10t28.5 -15t31 -23zM739 793q7 8 3 20t-15.5 22.5t-27.5 18
t-32 7.5q-23 0 -49 -10.5t-40 -24.5q-8 -7 -15.5 -18.5t-9.5 -22.5t4.5 -20.5t26.5 -14.5q21 -4 43.5 -3.5t43.5 6.5t39 16t29 24z" />
    <glyph glyph-name="tilde" unicode="&#x2dc;" horiz-adv-x="551" 
d="M833 830q2 -23 -6.5 -41t-23.5 -34t-35 -30t-40 -29q-14 -10 -26 -12.5t-25 -2.5q-20 0 -36.5 6.5t-30.5 16.5t-26.5 20.5t-25.5 19.5q-13 8 -23.5 15t-24.5 7q-6 0 -11.5 -5t-10.5 -12.5t-9.5 -16t-7.5 -14.5q-10 -17 -24.5 -25t-37.5 -8q-6 0 -13 5.5t-12.5 13t-9 16.5
t-3.5 16q0 12 10 24t13 16q12 15 26.5 33t31 34.5t32.5 27.5t31 11q27 0 43.5 -6.5t30 -17t28 -24t36.5 -28.5q20 -12 33.5 -16t24.5 4q10 8 21 19.5t22.5 22.5t23.5 19t24 8q13 0 21 -9.5t10 -23.5z" />
    <glyph glyph-name="endash" unicode="&#x2013;" horiz-adv-x="562" 
d="M575 416q2 -24 -11 -36.5t-34 -18.5q-16 -4 -45.5 -6.5t-62 -5t-62.5 -5t-45 -7.5q-10 -3 -35 -9t-53.5 -11.5t-55.5 -9.5t-41 -4q-20 0 -35.5 9.5t-22.5 35.5q-11 42 -2 61.5t31 27.5q15 5 46 6t65.5 1.5t66 1.5t48.5 6q13 4 40 9t57.5 9t59 5.5t43.5 -1.5q20 -5 33 -18
t15 -40z" />
    <glyph glyph-name="emdash" unicode="&#x2014;" horiz-adv-x="675" 
d="M671 418q2 -23 -11 -35.5t-33 -18.5q-11 -3 -32 -5t-48 -3.5t-56 -3t-55.5 -3t-47.5 -4t-31 -5.5q-7 -2 -25 -5.5t-42 -8t-51 -8.5t-51.5 -7.5t-44 -5.5t-29.5 -2q-20 0 -35.5 9.5t-22.5 35.5q-11 42 -2 61.5t31 27.5q10 3 32 5t49.5 2.5t58.5 1.5t59 1.5t51 2.5t34 5
q8 3 27.5 6t44.5 6t53 5.5t53.5 4.5t46 2t30.5 -2q20 -5 32.5 -18t14.5 -41z" />
    <glyph glyph-name="quoteleft" unicode="&#x2018;" horiz-adv-x="201" 
d="M414 755q-15 -18 -30.5 -29.5t-31 -23.5t-31.5 -29t-33 -46q-11 -19 -24 -43.5t-28.5 -47.5t-35 -42t-42.5 -27q-26 -9 -38 -1t-14 23.5t5 35.5t19 36q24 31 43 60.5t38 58t41 57t52 56.5q22 21 45.5 37.5t48.5 11.5q21 -3 30 -12.5t9.5 -22t-6.5 -26.5t-17 -26z" />
    <glyph glyph-name="quoteright" unicode="&#x2019;" horiz-adv-x="203" 
d="M366 771q-7 -33 -20.5 -63.5t-29.5 -60t-33 -59.5t-32 -63q-8 -17 -24 -35t-34 -29t-34.5 -11.5t-26.5 16.5q-9 15 -4 37.5t18 46.5t28.5 47.5t27.5 41.5q18 29 24 48.5t7.5 35t2 30.5t8.5 35q5 13 14.5 26t22.5 22.5t30 13t36 -2.5q23 -8 24 -29.5t-5 -46.5z" />
    <glyph glyph-name="quotesinglbase" unicode="&#x201a;" horiz-adv-x="196" 
d="M200 296q-4 -33 -13.5 -63t-22 -59t-26 -59t-25.5 -63q-6 -16 -19.5 -34.5t-30 -30.5t-33.5 -14t-29 13q-10 14 -7 35.5t12.5 45.5t22.5 47.5t22 42.5q15 29 18.5 48t3 34t-1.5 29t5 34q4 13 12 26t20 23t28 14.5t36 0.5q12 -3 18.5 -9.5t9 -16.5t2.5 -21t-2 -23z" />
    <glyph glyph-name="quotedblleft" unicode="&#x201c;" horiz-adv-x="457" 
d="M590 741q-20 -22 -40 -39t-40.5 -33.5t-40.5 -33.5t-41 -40q-21 -22 -43 -54.5t-44.5 -60.5t-43.5 -45t-39 -8q-20 10 -20 28.5t10 40.5t25.5 45t27.5 41q22 34 50 69.5t59 66.5t64.5 55t65.5 36q12 4 26.5 -0.5t24.5 -14t12 -24t-13 -29.5zM410 763q-15 -18 -30.5 -29.5
t-31 -23.5t-31.5 -29t-33 -46q-11 -19 -24 -43.5t-29 -47.5t-35 -42t-42 -27q-26 -9 -38 -1t-14 23.5t5 35.5t19 36q23 31 42 60.5t38.5 58.5t41.5 57.5t52 56.5q22 20 45.5 36.5t48.5 11.5q21 -3 30 -12.5t9 -22t-6.5 -26.5t-16.5 -26z" />
    <glyph glyph-name="quotedblright" unicode="&#x201d;" horiz-adv-x="348" 
d="M504 754q-7 -33 -20.5 -63.5t-29.5 -60t-33 -59.5t-32 -63q-8 -17 -24 -35t-34 -29t-35 -11.5t-27 16.5q-9 15 -3.5 37.5t18 46.5t28.5 47.5t28 41.5q18 29 23.5 48.5t7 35t2 30.5t8.5 35q5 13 14.5 26t23 22.5t30.5 13t36 -2.5q23 -8 24 -29.5t-5 -46.5zM319 834
q12 -22 11.5 -54.5t-9.5 -68.5t-25.5 -74t-35.5 -73q-10 -19 -22.5 -42.5t-28.5 -44.5t-35.5 -34.5t-45.5 -12.5q-22 1 -20.5 22.5t14.5 51.5t30.5 63.5t25.5 58.5q8 26 11 47.5t5 42t5 41.5t11 46q6 18 22 27.5t34 13t33.5 1t19.5 -10.5z" />
    <glyph glyph-name="quotedblbase" unicode="&#x201e;" horiz-adv-x="369" 
d="M381 307q-4 -33 -13.5 -63t-22 -59t-26 -59t-25.5 -63q-6 -17 -19.5 -35t-30 -30t-33.5 -14t-29 13q-11 14 -8 35.5t13 45.5t23 47.5t22 42.5q15 29 18.5 47.5t3 33.5t-1.5 29t5 34q4 13 12 26.5t20 23.5t28 14.5t36 0.5q24 -5 27.5 -26t0.5 -44zM160 106
q-9 -19 -18.5 -42.5t-23 -44.5t-31 -35.5t-43.5 -15.5q-22 -1 -22.5 19t8.5 50t22.5 63t18.5 58t6 45.5t0.5 40t0 40t4.5 44.5q4 17 19.5 28t33 15.5t33.5 3.5t21 -8q14 -20 17 -50.5t-2 -65.5t-17 -72.5t-27 -72.5z" />
    <glyph glyph-name="dagger" unicode="&#x2020;" horiz-adv-x="476" 
d="M521 722q-9 -38 -40 -105.5t-73 -148.5q20 -4 31.5 -17.5t10.5 -40.5q-1 -19 -10 -30.5t-24 -18.5t-33.5 -10t-39.5 -5q-27 -50 -53 -97.5t-49.5 -89.5t-42 -75.5t-30.5 -55.5q-4 -7 -14.5 -14t-22.5 -10.5t-24 -4t-20 5.5q-6 5 -14.5 10.5t-15 13t-8.5 17.5t5 23
q21 40 55 103t76 140q-17 -5 -34.5 -7.5t-31.5 0.5t-24.5 13t-13.5 30q-5 31 0.5 50t18 28.5t31 13t39.5 4t43 0t42 1.5q44 84 85.5 166t74.5 152q7 15 27 20.5t40 1t33 -20t6 -42.5z" />
    <glyph glyph-name="daggerdbl" unicode="&#x2021;" horiz-adv-x="476" 
d="M521 722q-7 -29 -27 -74.5t-47 -102.5q10 -8 18.5 -18.5t14.5 -25.5q7 -17 3 -27.5t-16.5 -16.5t-31 -8.5t-39.5 -3.5q-8 -15 -16.5 -31t-16.5 -32q6 0 12 -0.5t13 -1.5q21 -4 31.5 -13.5t17.5 -34.5q8 -27 -0.5 -42.5t-24 -24t-33.5 -11t-30 -2.5q-14 0 -27 2t-27 4
q-41 -75 -75 -135.5t-52 -94.5q-4 -7 -14.5 -14t-22.5 -10.5t-24 -4t-20 5.5q-6 5 -14.5 10.5t-15 13t-8.5 17.5t5 23q17 32 42 78t55 103q-30 -8 -53.5 -8.5t-42.5 20.5t-12.5 38t25 29.5t42.5 19.5t40 8q33 3 63 9q10 17 19 34.5t18 35.5q-16 -5 -34 -10.5t-34.5 -4.5
t-31 12t-25.5 38q-14 35 1 51t45 22t68.5 6.5t71.5 2.5q29 57 55.5 109.5t48.5 100.5q7 15 27 20.5t40 1t33 -20t6 -42.5z" />
    <glyph glyph-name="bullet" unicode="&#x2022;" horiz-adv-x="294" 
d="M303 410q6 -19 -6 -39t-33.5 -35.5t-47.5 -24t-48 -4.5q-11 2 -22 9.5t-20 18t-13.5 23.5t-2.5 25q7 37 22.5 57t36 27t42.5 3t41 -13t33 -22t18 -25z" />
    <glyph glyph-name="ellipsis" unicode="&#x2026;" horiz-adv-x="1151" 
d="M873 126q7 -19 -1 -41.5t-24.5 -41t-39 -29t-44.5 -6.5t-34.5 24.5t-6.5 45.5q11 47 33.5 66.5t46.5 21.5t44 -10t26 -30zM458 59q-8 -16 -20.5 -26t-26.5 -15t-26.5 -6t-20.5 0q-40 5 -49.5 21t-5.5 45q3 21 15.5 38.5t30.5 28.5t39 14t39 -4q16 -7 24 -18.5t10 -25
t-0.5 -27.5t-8.5 -25zM104 93q-1 -26 -5.5 -45t-27.5 -37q-15 -12 -28.5 -15t-26 1t-23.5 13.5t-22 21.5q-10 11 -11.5 30t4.5 39t20 37t35 24q23 7 39.5 3t27 -15t15 -26.5t3.5 -30.5z" />
    <glyph glyph-name="perthousand" unicode="&#x2030;" horiz-adv-x="1022" 
d="M772 747q-25 -25 -62.5 -61t-83.5 -80t-97 -93.5t-104 -101.5q-17 -17 -40.5 -42.5t-50 -55.5t-53.5 -62.5t-51 -64t-42.5 -59.5t-27.5 -50q-6 -14 -13.5 -26t-18.5 -24t-26.5 -23.5t-37.5 -24.5q-15 -9 -24.5 -1.5t-13.5 24t-1 38.5t13 42q32 60 61 98.5t60.5 73
t68.5 72.5t85 95q17 20 40.5 46.5t52 56.5t59.5 62t62 63q-23 -2 -45.5 -3t-44.5 2q-25 -66 -77 -123.5t-127 -86.5q-15 -6 -35 -9.5t-39 -3.5t-35 5t-24 16q-15 23 -14 54t4 65q1 9 8.5 26.5t18 36t21.5 35.5t19 26q19 20 36.5 37.5t37 32t42 26t51.5 20.5q8 3 18.5 5.5
t21.5 3.5t22 -0.5t20 -6.5q29 -16 58 -24.5t69 -8.5q44 0 83 12.5t76 17.5q14 9 26.5 14.5t23.5 3.5q11 -3 22 -7t17.5 -12.5t5.5 -21.5t-15 -34zM937 312q8 -21 2.5 -52t-20 -63.5t-36 -62.5t-45.5 -48q-36 -27 -76 -45t-82 -28q-35 -8 -68 -9t-60 18q-16 10 -21 27
q-32 -19 -64.5 -32.5t-66.5 -21.5q-35 -8 -68 -9t-59 18q-15 11 -20 24.5t-4.5 28.5t5.5 31.5t11 31.5q21 60 58.5 112.5t105.5 103.5q15 12 33 22t36.5 17t36.5 10t33 -1q19 -4 32 -9.5t22.5 -14.5t16.5 -21.5t14 -31.5q12 11 26 22.5t29 23.5q16 12 34 22t36 17.5t35.5 10
t32.5 -0.5q21 -5 34.5 -11t23.5 -16t17.5 -25t15.5 -38zM816 178q11 14 13.5 33t-1.5 36.5t-14.5 30t-25.5 12.5q-10 0 -23.5 -4.5t-27.5 -12.5t-27.5 -18.5t-23.5 -22.5q-12 -12 -25.5 -30.5t-21.5 -37t-8 -34t15 -23.5q17 -8 38.5 -6.5t44.5 11t45.5 26.5t41.5 40z
M536 160q12 14 14.5 33t-1.5 36.5t-14.5 30t-25.5 12.5q-10 0 -23.5 -4.5t-27.5 -12.5t-27.5 -18t-24.5 -22q-12 -13 -25 -31.5t-21.5 -37t-8 -34t15.5 -22.5q17 -8 38 -6.5t44 11t45.5 26t41.5 39.5zM323 607q17 27 23 51.5t-14 41.5q-9 8 -25 5.5t-26 -8.5
q-34 -23 -60 -56t-31 -67q-1 -6 0 -14.5t6 -15.5t13.5 -9.5t21.5 1.5q27 10 52 27.5t40 43.5z" />
    <glyph glyph-name="guilsinglleft" unicode="&#x2039;" horiz-adv-x="427" 
d="M518 729q29 -4 31.5 -15.5t-11.5 -26.5t-39 -32t-52 -34q-47 -29 -90 -61t-78.5 -61t-61 -52t-37.5 -33q8 -29 27 -62.5t39 -68t36 -68.5t18 -63q1 -11 3 -23.5t0.5 -24.5t-9 -23.5t-26.5 -19.5q-15 -7 -28.5 -6t-25 7t-20 15.5t-11.5 19.5q-8 24 -18.5 58t-24.5 68.5
t-31.5 65t-40.5 47.5q-11 9 -22.5 16.5t-20.5 14.5t-13 14.5t1 14.5q11 19 26 33.5t30.5 26.5t31.5 22t28 20q32 24 66.5 50t70.5 52t71.5 50t69.5 43q26 14 56 26.5t55 9.5z" />
    <glyph glyph-name="guilsinglright" unicode="&#x203a;" horiz-adv-x="430" 
d="M411 411q-7 -9 -20 -16t-27 -13.5t-28 -14.5t-24 -18q-78 -50 -152.5 -113t-134.5 -136q-17 -20 -47 -29t-53 -5q-26 3 -28.5 23.5t26.5 49.5q60 61 146 132.5t192 153.5q-8 44 -26 80.5t-39 68.5t-41.5 59t-34.5 51q-10 18 4 29.5t36.5 17t45.5 3t30 -13.5
q12 -16 33 -46t42 -61.5t38.5 -59.5t23.5 -40q8 -15 19.5 -27t20 -23.5t10 -24t-11.5 -27.5z" />
    <glyph glyph-name="fraction" unicode="&#x2044;" horiz-adv-x="561" 
d="M725 728q-27 -23 -70.5 -61t-96 -84.5t-110.5 -97.5t-116 -101q-28 -24 -68 -63t-81.5 -80t-77.5 -78t-57 -58q-12 -12 -22 -27.5t-22.5 -31t-28 -30.5t-37.5 -26q-15 -8 -24.5 4.5t-11.5 34t2.5 47.5t18.5 46q27 40 51 69t46.5 53.5t45.5 46t49 45t56 51.5t66 65
q20 21 49.5 49t64 59.5t72 64.5t73 64.5t67.5 58.5t56 46q9 8 22.5 12t27 6t25.5 1t19 -4q9 -3 18.5 -8.5t13 -15t0 -23.5t-19.5 -34z" />
    <glyph glyph-name="Euro" unicode="&#x20ac;" horiz-adv-x="720" 
d="M769 656q-11 -31 -26 -57t-32.5 -42t-36.5 -18t-37 14q-14 13 -13 30t6 34t10 31.5t-1 21.5q-16 18 -48 11.5t-72.5 -29.5t-86 -59t-88.5 -75q17 0 32 1t28 3q35 4 69 4.5t63 -5t53 -18t40 -34.5q13 -19 1.5 -30t-39.5 -16t-67.5 -6t-81.5 -0.5t-82 0.5t-69 -4
q-14 -2 -28.5 -4.5t-29.5 -5.5q-8 -9 -15 -18t-13 -17q-5 -6 -9 -13l-8 -14q76 7 148 14t144 -1q34 -3 51.5 -12t28.5 -32q12 -25 -1.5 -40t-38.5 -23t-54 -10.5t-49 -2.5q-28 0 -55 2.5t-56.5 5t-63.5 3t-75 -3.5q1 -7 1.5 -13.5t2.5 -12.5q13 -50 43 -73.5t69.5 -28t84 5
t85.5 25.5q19 7 36 15.5t32.5 13t29.5 3.5t26 -13q7 -6 4 -21t-11.5 -31t-20 -30t-21.5 -20q-67 -41 -137.5 -57.5t-134 -10.5t-114.5 35t-78 79q-29 57 -32 117q-26 -1 -47 3t-40 16q-24 16 -22 29.5t20 24t46.5 18.5t56.5 13q14 44 40 83q-17 11 -29 30q-13 20 -9 32.5
t20.5 21t43.5 12.5t60 6q47 49 103 98.5t115 91.5t116.5 71.5t106.5 36.5q47 7 82 -2t56 -30.5t26 -53t-8 -69.5z" />
    <glyph glyph-name="trademark" unicode="&#x2122;" horiz-adv-x="800" 
d="M853 739q-37 -97 -81.5 -188t-94.5 -187q-7 -13 -19 -21t-24 -9.5t-22 5.5t-13 24q-1 8 1.5 22.5t8 31.5t12.5 34.5t14 31.5q-51 -60 -79 -79t-41 -10t-13.5 40t3.5 71q-6 -9 -16.5 -26t-22 -35t-22 -33.5t-15.5 -21.5q-17 -21 -34 -23.5t-28.5 7t-14 27.5t9.5 39
q47 84 92.5 165.5t102.5 166.5q13 19 30.5 24t32.5 0t24.5 -18t4.5 -30q-14 -45 -21.5 -89t-18.5 -89q35 43 62 85.5t62 85.5q18 22 40.5 36.5t42 17t31 -10t6.5 -44.5zM492 782q11 -4 13.5 -12t-0.5 -17t-9 -17t-11 -13q-11 -11 -28 -21.5t-34 -11.5q-24 -1 -48.5 -6
t-44.5 -12q-20 -27 -37.5 -59.5t-33 -67t-29.5 -68t-27 -62.5q-15 -33 -36 -46.5t-39.5 -11.5t-30 17.5t-7.5 40.5q3 23 19.5 51.5t30.5 51.5q17 29 36 63.5t37 79.5h-33.5t-29.5 4t-21.5 13.5t-10.5 28.5q-1 14 4 28.5t15 25.5t24.5 17t30.5 2q35 -7 74 -3t78.5 9.5t77.5 7
t70 -11.5z" />
    <glyph glyph-name="Delta" unicode="&#x2206;" horiz-adv-x="589" 
d="M456 83q-6 -23 -23 -35.5t-39 -18.5q-18 -5 -57 -7.5t-82.5 -5t-82.5 -4.5t-56 -7q-10 -3 -30 -8t-42.5 -10.5t-45.5 -10.5t-40 -7q-15 -12 -31.5 -19t-32.5 -5q-27 3 -34 15t0 30.5t24.5 42t39 50t44 55.5t40.5 57q26 41 54.5 86.5t57.5 93t57.5 96t55.5 95.5
q21 38 41 74.5t38.5 67.5t36 55t35.5 37q32 24 59.5 29.5t48 -3t31.5 -27.5t11 -44q-4 -136 -31.5 -291.5t-72.5 -322.5q19 -4 27 -17t-1 -41zM392 624q-52 -61 -92.5 -124.5t-77.5 -128t-73 -130t-78 -131.5q27 2 52.5 3.5t44.5 6.5q7 2 21 4.5t32 4.5t39.5 4.5t42.5 4.5
q22 66 35.5 123t22.5 113.5t15.5 116.5t15.5 133z" />
    <glyph glyph-name="minus" unicode="&#x2212;" horiz-adv-x="422" 
d="M450 410q-1 -20 -11.5 -31.5t-26.5 -18.5t-36.5 -10t-42.5 -4.5t-43 -4t-39 -7.5t-45 -15t-53 -14t-46.5 4t-25.5 39q-5 34 1.5 53t21.5 28.5t36.5 11.5t45 2t47 0.5t43.5 5.5q14 4 33 9t38.5 8.5t38.5 3.5t33.5 -5.5t23 -18.5t7.5 -36z" />
    <glyph glyph-name="radical" unicode="&#x221a;" horiz-adv-x="1077" 
d="M931 647q-1 -30 -22.5 -42.5t-52 -17t-64.5 -6t-60 -9.5q-13 -4 -30.5 -11t-36.5 -12q-38 -67 -83.5 -137.5t-90.5 -137.5t-87 -128t-74 -110q-24 -16 -52 -29.5t-56.5 -19.5t-55.5 -3t-50 20q-13 22 -21 50.5t-13 58t-7.5 57t-5.5 46.5q-6 38 -9.5 84t8.5 87
q4 13 9 27.5t12 26.5t17 20t23 7q11 -1 17 -9t10.5 -19t7.5 -24t6 -25q8 -28 11.5 -63.5t7.5 -71.5t11.5 -68t23.5 -55q33 36 77.5 95t91 126.5t91 135t77.5 121.5q0 39 20 52.5t50 16t64 1t62 6.5q22 6 52.5 13.5t58 7t46.5 -13t17 -47.5z" />
    <glyph glyph-name="infinity" unicode="&#x221e;" horiz-adv-x="673" 
d="M670 489q8 -21 2.5 -52t-19.5 -63.5t-35.5 -62.5t-46.5 -48q-35 -27 -75.5 -45t-81.5 -28q-35 -8 -68 -9t-61 18q-21 15 -24 36q-31 -20 -65 -34.5t-69 -22.5t-68.5 -9t-59.5 18q-15 10 -19.5 23.5t-3.5 29t6 32t10 31.5q20 60 57 112t106 103q31 23 69 39.5t69 9.5
q20 -5 33.5 -11t23 -16t17 -24.5t15.5 -36.5q14 13 28.5 25.5t31.5 25.5q15 12 33 22t36.5 17.5t36 10t32.5 -0.5q21 -5 34.5 -11t23.5 -16t17 -25t15 -38zM550 355q11 14 13.5 33t-1.5 36.5t-14.5 30t-25.5 12.5q-10 0 -23.5 -4.5t-27.5 -12.5t-27.5 -18.5t-24.5 -22.5
t-24.5 -30.5t-22 -37t-8.5 -34t16 -23.5q17 -8 38.5 -6.5t44.5 11t45.5 26.5t41.5 40zM263 343q11 14 13.5 33t-2 36.5t-15 30t-25.5 12.5q-10 0 -23.5 -4.5t-27.5 -12.5t-27.5 -18.5t-24.5 -22.5t-24 -30.5t-21.5 -37t-8.5 -34t15 -23.5q17 -8 38.5 -6.5t44.5 11t46 26.5
t42 40z" />
    <glyph glyph-name="approxequal" unicode="&#x2248;" horiz-adv-x="633" 
d="M507 510q2 -23 -6.5 -41t-23.5 -34t-34.5 -30t-39.5 -29q-14 -10 -26.5 -12.5t-24.5 -2.5q-20 0 -36.5 6.5t-30.5 16.5t-27 20.5t-26 19.5q-12 8 -23 15t-25 7q-6 0 -11.5 -5t-10.5 -12.5t-9.5 -16t-7.5 -14.5q-10 -17 -24 -25t-38 -8q-6 0 -13 5.5t-12 13t-8.5 16.5
t-3.5 16q0 12 9.5 24t12.5 16q12 15 27 33t31 34.5t32.5 27.5t30.5 11q27 0 43.5 -6.5t30 -17t28 -24t37.5 -28.5q19 -12 32.5 -16t24.5 4q10 8 21 19.5t22.5 22.5t23.5 19t24 8q13 0 21 -9.5t10 -23.5zM507 314q2 -23 -6.5 -41t-23.5 -34t-34.5 -30t-39.5 -29
q-14 -10 -26.5 -12.5t-24.5 -2.5q-20 0 -36.5 6.5t-30.5 16.5t-27 20.5t-26 19.5q-12 8 -23 15t-25 7q-6 0 -11.5 -5t-10.5 -12.5t-9.5 -16t-7.5 -14.5q-10 -17 -24 -25t-38 -8q-6 0 -13 5.5t-12 13t-8.5 16.5t-3.5 16q0 11 9.5 23.5t12.5 16.5q12 15 27 33t31 34.5
t32.5 27.5t30.5 11q27 0 43.5 -6.5t30 -17t28 -24t37.5 -28.5q19 -12 32.5 -16t24.5 4q10 8 21 19.5t22.5 22.5t23.5 19t24 8q13 0 21 -9.5t10 -23.5z" />
    <glyph glyph-name="notequal" unicode="&#x2260;" horiz-adv-x="553" 
d="M616 680q-24 -21 -63 -58t-86 -82q20 -15 31 -39q9 -21 0.5 -32t-28.5 -16.5t-48 -6.5t-57 -1q-11 -11 -22.5 -20.5t-22.5 -20.5q-5 -5 -11.5 -11t-13.5 -13q26 2 50.5 3t49.5 -3q23 -4 35 -13.5t20 -34.5q9 -27 -0.5 -42.5t-26.5 -24t-37 -11t-34 -2.5q-19 0 -37.5 3
t-39 5t-43.5 3t-52 -4q-23 -24 -42 -45t-31 -34q-9 -10 -17 -22t-17 -24.5t-20.5 -24.5t-28.5 -21q-11 -6 -18 4t-9 27t2 38t14 37q10 15 19 28t17 25q-11 4 -22 15q-21 21 -13.5 38t27.5 29.5t46.5 19.5t44.5 8q5 1 9.5 1t9.5 1q31 30 71 71q-16 -5 -33 -8t-32 0t-28.5 14
t-24.5 35q-12 26 -5 41t26 23.5t47.5 11.5t59 4t60 1.5t51.5 4.5h3q25 24 51.5 49.5t51.5 48.5t47.5 43t39.5 35q7 6 17 9.5t20.5 5t19.5 0.5t14 -3q7 -3 13.5 -7t9.5 -11.5t0.5 -18.5t-14.5 -28z" />
    <glyph glyph-name="lessequal" unicode="&#x2264;" horiz-adv-x="491" 
d="M521 827q27 -6 28 -17.5t-14 -26t-41 -31t-54 -31.5q-48 -26 -93 -56.5t-82.5 -58t-65 -49.5t-39.5 -31q3 -30 16.5 -66t28 -73t25.5 -72.5t9 -65.5q-1 -12 -0.5 -25t-3 -25.5t-12 -23.5t-27.5 -19q-15 -6 -28 -4t-23 8.5t-16.5 17t-8.5 21.5q-5 25 -10.5 60.5t-13.5 72
t-20.5 69.5t-32.5 52q-9 9 -19 18t-17.5 17t-10.5 15.5t2 14.5q13 19 29 33t33 25.5t33.5 20.5t29.5 18q33 23 69 47.5t73.5 49t74.5 47t72 39.5q26 13 56 23.5t53 5.5zM316 67q-1 -30 -22.5 -42.5t-52 -17t-64.5 -6.5t-60 -9q-12 -3 -28 -9.5t-33.5 -12t-35.5 -8.5t-32.5 0
t-25.5 13t-14 31q-6 34 1 53t22 28.5t36 11.5t44.5 2t47 0.5t43.5 5.5q22 6 52.5 13.5t58 7.5t46.5 -13t17 -48z" />
    <glyph glyph-name="greaterequal" unicode="&#x2265;" horiz-adv-x="494" 
d="M503 495q-8 -9 -21.5 -15.5t-28 -13t-29 -13.5t-25.5 -18q-82 -49 -162 -113t-149 -139q-10 -10 -23 -17t-27 -11t-28 -4.5t-26 2.5q-24 5 -23.5 27.5t32.5 52.5q68 63 161 135t206 153q-2 48 -14.5 89.5t-28.5 78t-32 67.5t-26 58q-7 20 8 31.5t37 15.5t44 0t28 -16
q10 -19 26 -53t32 -70t29 -67t17 -45q5 -17 15 -31t16.5 -27.5t6.5 -27t-15 -29.5zM310 67q-1 -20 -11.5 -31.5t-26.5 -18.5t-36.5 -9.5t-42.5 -4.5t-43 -4t-39 -7t-45 -15.5t-53 -14.5t-46 4t-25 40q-6 34 1 53t22 28.5t36 11.5t44.5 2t47 0.5t43.5 5.5q14 4 33 9t38.5 8.5
t38.5 3.5t33.5 -6t23 -19t7.5 -36z" />
    <glyph glyph-name="lozenge" unicode="&#x25ca;" horiz-adv-x="727" 
d="M714 411q-7 -9 -20 -16t-27.5 -13.5t-28.5 -14.5t-24 -18q-78 -50 -152.5 -113t-134.5 -136q-10 -12 -28.5 -22.5t-33.5 -16.5q-14 -7 -28 -6t-25.5 7t-20 15.5t-11.5 19.5q-8 24 -18.5 58t-24.5 68.5t-31.5 65t-40.5 47.5q-11 9 -22.5 16.5t-20 14.5t-12 14.5t0.5 14.5
q11 19 25.5 33.5t30.5 26.5t31.5 22t28.5 20q33 25 69 53t74 55t75.5 51.5t73.5 43.5q4 14 23.5 22.5t41.5 10t41 -4.5t22 -20q14 -19 34 -48t39 -58t34.5 -54t21.5 -36q7 -15 18.5 -27t20 -23.5t10.5 -24t-11 -27.5zM178 414q6 -24 20 -51t30 -55l32 -56t26 -54
q57 51 126.5 107.5t151.5 119.5q-13 64 -44.5 114.5t-61.5 90.5q-3 -2 -6 -4.5t-8 -4.5q-46 -29 -89 -61t-78.5 -61t-61 -52t-37.5 -33z" />
    <glyph glyph-name="apple" unicode="&#xf8ff;" horiz-adv-x="1495" 
d="M1475 690v27l-10 -27h-3l-10 27h-1v-27h-3v31h6l10 -25l9 25h6v-31h-4zM1434 718v-28h-4v28h-9v3h23v-3h-10zM1407 713q11 -14 6.5 -32.5t-16.5 -28.5q-15 -14 -30 -17.5t-38 -4.5q4 2 9 8.5t6 11.5q-5 -8 -21 -14.5t-33 -11.5v-15h-36v-200h-21v-4q0 -91 -42.5 -163.5
t-125.5 -123.5q2 -18 -3.5 -39t-19 -41t-35.5 -36t-54 -23q-7 -2 -11 6q-3 7 3 12q10 6 17.5 17.5t10.5 24.5q2 7 2 16.5t-5 18.5q-123 -44 -283 -44q-111 0 -204 21t-164 63v-62q-45 17 -87 43.5t-75 64t-53 86.5t-20 111q0 31 7 60.5t18.5 55t26.5 46t30 33.5q-7 2 -18 7
t-19 10q5 -10 15 -15q-6 -1 -15 -1t-19.5 2.5t-21.5 7.5t-20 14q-18 19 -14.5 37.5t14.5 26.5q8 7 23.5 8.5t28.5 -8.5q11 8 24.5 8.5t24.5 -6.5q10 -5 12 -13.5t0.5 -17t-5.5 -15t-7 -8.5q2 -7 5 -13t8 -8q2 2 4.5 4t5.5 4q62 95 190 149t305 54q125 0 227.5 -26.5
t174.5 -77.5q20 1 41.5 2t39.5 1q38 0 72.5 1t45.5 1q-5 9 -2.5 21t12.5 19q14 9 27.5 7t23.5 -11q8 8 26 11t32 -14zM1396 690q-1 12 -8.5 16t-12.5 4t-11.5 -4.5t-6.5 -12.5q-1 -8 4 -14t12 -6q2 -11 -10 -21q10 4 17 10q6 5 11.5 12.5t4.5 15.5zM1345 690q0 13 -8.5 17
t-13.5 4t-11 -4.5t-7 -12.5q0 -9 5 -14.5t12 -6.5q2 -12 -11 -20q9 4 17 10q7 5 12.5 12t4.5 15zM1304 664q-9 4 -14 13v-30q6 5 9 8.5t5 8.5zM1174 606l-9 -1q2 -3 4.5 -6.5t4.5 -6.5v14zM1269 659h-111v-30h36v-201l39 -1v202h36v30zM1140 658l-79 -3v-233l36 2v57l40 2
v34l-40 -3l4 111l39 2v31zM997 650l-52 -4l-43 -243l37 6l6 33l60 5l9 -29l37 3zM901 496q-8 -26 -28 -44l15 -15l13 59v0zM845 451q14 12 25 27q9 13 16.5 31t5.5 41q-2 38 -19.5 55.5t-38.5 24.5q-25 8 -55 4v-253l35 7l-1 43l39 -36l40 7zM756 574q-29 -9 -47 -29.5
t-19 -50.5q-1 -27 18.5 -45t47.5 -19v144zM762 412q-25 0 -44 9q-17 8 -30.5 24.5t-15.5 49.5q-1 30 12 49.5t30 30.5q19 13 43 21v37q-36 -9 -63 -27q-23 -16 -42.5 -43.5t-18.5 -72.5q1 -40 18.5 -63t39.5 -34t42.5 -13.5t28.5 -1.5v34zM1215 405q0 1 -0.5 1.5t-0.5 2.5
h-40v149q-7 12 -15.5 23.5t-17.5 22.5l-21 -1v-69l37 2v-73l-40 -3v-56l-114 -10l-11 31l-25 -3l-8 -31q-20 -2 -53.5 -7.5t-56.5 -10.5l-12 10v-13q-10 -2 -21 -4q-9 -2 -20 -4l-22 -4q-20 -4 -41 -1.5t-40 10t-35 19.5t-25 28v-87l-144 -47v79l-17 -39l-18 36v-89l-76 -31
l1 38q-13 -27 -31 -46.5t-41 -19.5q-24 0 -41 15t-28 37.5t-16.5 49t-6.5 49.5q-1 17 3 44t14.5 52t28.5 43t45 18t44.5 -16.5t26.5 -41.5v74l62 21l30 -48l20 61l143 52v-52q17 36 54 59.5t81 28.5q121 14 146 -82l15 93l85 5l26 -108v110h5q2 0 5.5 0.5t7.5 0.5
q-69 43 -163 65t-207 22q-143 0 -256 -37t-182 -107l-4 -4l-4 -4q15 8 31 14.5t32 9.5v-98q-31 -6 -55.5 -24t-41 -43t-25.5 -55t-9 -60q0 -39 14 -71.5t35.5 -57.5t47.5 -43t49 -27v-17q69 -43 162.5 -65t205.5 -22q163 0 284 45q7 3 12 -4q15 -23 9 -55q-5 -15 -10 -25
q19 10 32 24t20.5 29.5t10 31t0.5 27.5q0 7 5 10q81 48 123 117t42 156zM611 586l-36 -12v-248l36 12v248zM545 565l-39 -14l-36 -95l-41 73l-32 -12v-252l36 13v161l39 -61l38 91l-1 -163l36 12v247zM163 614q-1 8 -7 12.5t-11 4.5t-12.5 -4t-8.5 -17q0 -8 5 -15t11 -12
q7 -6 17 -10q-13 8 -11 20q8 1 13 6.5t4 14.5zM112 613q-1 8 -7 12.5t-12 4.5q-5 0 -12.5 -4t-7.5 -16q0 -8 5 -15.5t11 -12.5q7 -6 16 -10q-12 10 -10 20q8 1 13 7t4 14zM378 354q0 19 -3 43.5t-11.5 46.5t-22.5 37t-35 15t-35.5 -16t-23 -37.5t-12 -44.5t-3.5 -38
q1 -17 6 -39.5t14 -43t23 -34.5t32 -14q15 0 27.5 12t22.5 31t15.5 41t5.5 41zM300 138q-26 9 -52.5 28t-48 46.5t-35 63t-12.5 76.5q2 60 22.5 98t45.5 61q29 26 65 39v54q-51 -19 -91 -53q-17 -15 -33.5 -34t-29 -44t-20 -55.5t-7.5 -67.5q0 -36 8.5 -66.5t22.5 -56
t31.5 -45.5t35.5 -36q43 -37 98 -61v53zM951 471l22 127l26 -123zM859 544q2 -14 -5.5 -27t-16.5 -23q-11 -11 -24 -20v116q12 -2 22 -8q8 -5 15.5 -14t8.5 -24zM341 365q0 -41 -9 -68t-26 -28q-9 0 -16 10.5t-12 25.5t-7.5 31t-2.5 27q0 14 2.5 31t7 32t11.5 25.5t16 10.5
q18 0 27 -28.5t9 -68.5zM975 516l-5 -28l11 1zM830 517q5 3 7.5 9t2.5 12t-2.5 11.5t-7.5 8.5v-41v0zM319 364q0 29 -3.5 48.5t-10.5 19.5q-4 0 -6.5 -7t-4.5 -17.5t-3 -22.5t-1 -22q0 -8 1 -19t3.5 -21.5t5 -17.5t5.5 -7q7 0 10.5 19t3.5 47z" />
    <glyph glyph-name="fi" unicode="&#xfb01;" horiz-adv-x="842" 
d="M671 650q-58 -4 -110 0.5t-99 5t-91 -7.5t-86 -37l-75 -147q44 5 82 10.5l76 11t80.5 10t95.5 7.5q23 1 34.5 -13.5t12 -33t-8.5 -36.5t-27 -24q-53 -18 -108.5 -26.5t-109.5 -15.5t-104.5 -16t-93.5 -29q-32 -63 -53 -115t-16 -87q3 -17 -4 -35t-19.5 -33t-30.5 -25
t-38 -11q-18 -1 -26.5 7t-11 21t-0.5 29t4 31q3 22 15.5 51t26.5 59t26 58.5t14 49.5q1 11 -4 18.5t-9.5 15t-6 15.5t5.5 20q18 27 28 39t18.5 17t17.5 8.5t24 14.5l56 123l-22 3q-16 14 -20.5 34.5t0 42t17.5 41t31 31.5q34 0 88 11.5t122.5 21.5t147.5 10.5t163 -21.5
q18 -5 23.5 -21.5t2 -34.5t-13.5 -32.5t-24 -15.5zM880 727q-5 -33 -20.5 -85.5t-38 -115t-48.5 -129t-51.5 -129t-47.5 -115.5t-36 -88q-3 -9 -13 -18.5t-22 -17.5t-24.5 -12.5t-21.5 -1.5q-7 2 -16 4.5t-16 7.5t-10 14t3 24q20 54 52 130.5t68.5 165t74 184.5t68.5 188
q6 17 23.5 28.5t35.5 13t31 -9t9 -38.5z" />
    <glyph glyph-name="fl" unicode="&#xfb02;" horiz-adv-x="1132" 
d="M672 650q-58 -4 -109.5 0.5t-98.5 5t-90.5 -7.5t-85.5 -37l-76 -147q44 5 82 10.5t76.5 11t80.5 10t95 7.5q23 1 34.5 -13.5t12 -33t-9 -36.5t-27.5 -24q-52 -18 -107 -26.5t-109 -15.5t-105 -16t-94 -29q-32 -63 -52.5 -115t-15.5 -87q3 -17 -4 -35t-20 -33t-30.5 -25
t-37.5 -11q-19 -1 -27.5 7t-11 21t-1 29t3.5 31q3 22 16 51t27.5 59t26.5 58.5t13 49.5q1 11 -3.5 18.5t-9.5 15t-7 15.5t5 20q18 27 29 39t19 17t17 8.5t24 14.5l55 123l-22 3q-16 14 -20 34.5t1 42t17.5 41t29.5 31.5q34 0 88.5 11.5t123 21.5t147.5 10.5t163 -21.5
q18 -5 23.5 -21.5t2 -34.5t-14 -32.5t-24.5 -15.5zM1009 193q-31 -25 -66 -46t-72.5 -41.5t-76.5 -42t-79 -48.5q-47 -24 -84 -24t-62 16t-38.5 43.5t-13.5 58.5q39 84 70 169.5t63 170t71.5 169t95.5 167.5q17 24 39 29.5t39.5 -2.5t24.5 -27t-6 -43q-85 -154 -146.5 -305
t-99.5 -309q49 24 90 46.5t79.5 43.5t77 40t81.5 36q23 9 34 -1.5t12 -29t-7.5 -39t-25.5 -31.5z" />
    </font>
</defs>
</svg>
